<svg width="760" height="355" viewBox="0 0 760 355" fill="none" xmlns="http://www.w3.org/2000/svg">
<g clip-path="url(#clip0_871_1814)">
<path d="M501.676 329.701C501.676 329.701 514.638 329.701 520.961 329.701C527.283 329.701 528.864 327.804 528.864 327.804L527.283 329.701L531.077 328.753H537.4L586.401 327.488L592.724 328.12L598.099 328.437L598.731 326.54L602.208 328.437L644.571 327.172C644.571 327.172 645.045 326.856 645.441 326.066C645.836 325.275 645.994 327.488 645.994 327.488L646.626 326.224L647.021 327.409L648.602 326.777L649.076 328.041C649.076 328.041 663.777 328.041 664.804 327.409C665.832 326.777 666.701 327.804 666.701 327.804C666.701 327.804 667.966 328.041 668.045 327.804C668.124 327.567 668.44 326.461 668.756 326.698C669.072 326.935 669.941 327.883 669.941 327.883C669.941 327.883 699.896 330.175 700.923 329.385C701.951 328.595 702.741 328.12 702.741 328.12L704.085 328.279L713.725 327.962C713.725 327.962 714.674 328.832 715.072 328.832C715.464 328.832 715.546 329.069 716.021 328.832C716.495 328.595 717.045 328.2 717.045 328.2L722.577 329.227L725.031 328.516L725.739 329.701L726.611 328.911L727.244 329.227L728.034 327.488L728.426 329.227L730.879 329.069L759.648 328.858" stroke="#3A3B38" stroke-width="1.5"/>
<mask id="mask0_871_1814" style="mask-type:alpha" maskUnits="userSpaceOnUse" x="76" y="293" width="598" height="38">
<path d="M76.1853 293.17H673.309V330.412H76.1853V293.17Z" fill="white"/>
</mask>
<g mask="url(#mask0_871_1814)">
<path fill-rule="evenodd" clip-rule="evenodd" d="M673.149 293.216C673.149 293.216 672.838 293.243 672.541 293.358C672.243 293.475 672.19 293.748 672.088 293.748C671.983 293.748 671.569 293.424 671.569 293.424C671.569 293.424 671.867 294.447 672.126 294.292C672.386 294.136 672.644 293.786 672.683 293.786C672.722 293.786 673.681 292.97 673.149 293.216Z" stroke="#3A3B38" stroke-width="0.5"/>
<path d="M154.554 328.437L144.86 328.858L139.591 327.172L140.434 329.069L136.851 327.804L137.483 328.858L134.743 329.491L133.057 328.226L131.792 328.647L87.1117 330.334L85.4254 328.858L84.1608 330.334L76.1517 330.413" stroke="#3A3B38" stroke-width="1.5"/>
</g>
<path fill-rule="evenodd" clip-rule="evenodd" d="M124.732 231.698C124.732 231.698 126.417 223.268 124.31 223.057C122.203 222.846 116.723 216.313 118.83 213.994C120.938 211.676 121.991 213.151 119.462 197.766C116.933 182.38 115.669 188.703 115.669 188.703C115.669 188.703 114.826 187.017 115.669 186.385C116.512 185.753 116.512 179.851 116.512 179.851L113.14 175.215L111.454 170.367C111.454 170.367 107.66 172.686 107.66 173.95C107.66 175.215 107.028 178.376 107.028 180.695C107.028 183.013 104.499 193.972 104.499 193.972C104.499 193.972 106.817 195.448 107.028 196.502C107.238 197.555 108.292 198.398 106.184 199.241C104.077 200.084 104.077 200.084 104.077 200.084L101.758 203.667L102.391 207.25L103.234 211.887L103.023 213.362C103.023 213.362 97.9648 222.003 97.7542 222.846C97.5437 223.69 98.176 226.008 98.176 228.326C98.176 230.645 100.916 242.447 97.9648 243.711C95.0146 244.976 95.0146 244.976 95.0146 244.976C95.0146 244.976 91.0097 251.72 91.642 252.142C92.2743 252.563 95.0146 272.375 95.0146 272.375C95.0146 272.375 91.4314 271.953 90.1669 274.061C88.9023 276.169 92.0637 280.172 92.0637 281.648C92.0637 283.124 91.8532 283.756 91.2209 284.81C90.5886 285.864 88.0595 289.657 88.0595 292.397C88.0595 295.137 88.4806 302.934 88.4806 304.41C88.4806 305.886 91.2203 307.15 89.1129 309.047C87.0055 310.944 85.1087 309.68 84.6869 310.522C84.2658 311.365 86.5838 313.684 86.5838 314.738C86.5838 315.791 86.5838 316.635 85.9515 316.845C85.3192 317.056 83.6335 319.163 83.6335 320.849C83.6335 322.536 83.8441 328.648 83.8441 328.648L86.7949 330.755L127.893 329.069L132.951 243.923L124.732 231.698Z" fill="white" fill-opacity="0.542134" stroke="#585858"/>
<path fill-rule="evenodd" clip-rule="evenodd" d="M409.257 271.953C409.679 270.056 413.051 267.317 415.369 270.056C417.687 272.796 419.163 275.536 419.373 276.169C419.584 276.801 416.633 278.908 418.319 279.751C420.006 280.595 420.637 280.806 421.481 280.595C422.324 280.384 426.539 281.438 428.225 282.702C429.912 283.967 431.808 288.814 430.122 289.657C428.436 290.5 426.96 293.451 429.068 293.451C431.176 293.451 430.122 292.608 432.862 293.451C435.602 294.294 437.077 298.509 437.077 299.141C437.077 299.774 435.602 303.778 433.705 304.41C431.808 305.042 430.333 305.254 430.333 306.096C430.333 306.939 433.073 313.051 433.073 313.051C433.073 313.051 436.445 318.109 436.445 320.217C436.445 322.325 434.759 329.912 434.759 329.912H398.719C398.719 329.912 392.607 279.541 401.67 278.276C401.67 278.276 408.835 273.85 409.257 271.953Z" fill="white" fill-opacity="0.590917" stroke="black"/>
<path fill-rule="evenodd" clip-rule="evenodd" d="M401.67 231.382V329.491H122.835V240.129L170.797 238.624C222.545 195.701 262.694 173.792 291.245 172.896C319.796 172 356.604 191.496 401.67 231.382Z" fill="#FFFFFE"/>
<path d="M401.67 231.382V329.491H122.835V240.129" stroke="#3A3B38" stroke-width="1.5"/>
<path fill-rule="evenodd" clip-rule="evenodd" d="M104.92 230.117L104.983 240.291L162.773 240.55L293.708 172.324L417.63 239.975L422.372 232.388L294.025 159.679L163.15 229.859L104.92 230.117Z" fill="#FFFFFE"/>
<path fill-rule="evenodd" clip-rule="evenodd" d="M104.92 230.117L104.983 240.291L162.773 240.55L293.708 172.324L417.63 239.975L422.372 232.388L294.025 159.679L163.15 229.859L104.92 230.117Z" stroke="#3A3B38" stroke-width="1.5"/>
<path fill-rule="evenodd" clip-rule="evenodd" d="M359.452 330.017H378.104V299.668H359.452V330.017Z" fill="#FFFFFE"/>
<path fill-rule="evenodd" clip-rule="evenodd" d="M359.452 330.017H378.104V299.668H359.452V330.017Z" stroke="#3A3B38" stroke-width="1.5"/>
<path fill-rule="evenodd" clip-rule="evenodd" d="M356.37 299.51H381.187V294.926H356.37V299.51Z" fill="#FFFFFE"/>
<path fill-rule="evenodd" clip-rule="evenodd" d="M356.37 299.51H381.187V294.926H356.37V299.51Z" stroke="#3A3B38" stroke-width="1.5"/>
<path fill-rule="evenodd" clip-rule="evenodd" d="M168.978 330.017H288.163V299.668H168.978V330.017Z" fill="#FFFFFE"/>
<path fill-rule="evenodd" clip-rule="evenodd" d="M168.978 330.017H288.163V299.668H168.978V330.017Z" stroke="#3A3B38" stroke-width="1.5"/>
<path fill-rule="evenodd" clip-rule="evenodd" d="M165.896 299.51H291.245V294.926H165.896V299.51Z" fill="#FFFFFE"/>
<path fill-rule="evenodd" clip-rule="evenodd" d="M165.896 299.51H291.245V294.926H165.896V299.51ZM248.237 183.961H194.704V213.046L248.237 183.961ZM325.19 177.322V160.883H349.217L352.142 192.602L325.19 177.322Z" stroke="#3A3B38" stroke-width="1.5"/>
<path fill-rule="evenodd" clip-rule="evenodd" d="M305.353 312.314H346.135V241.814H305.353V312.314Z" fill="#FFFFFE"/>
<path fill-rule="evenodd" clip-rule="evenodd" d="M305.353 312.314H346.135V241.814H305.353V312.314Z" stroke="#3A3B38" stroke-width="1.5"/>
<path fill-rule="evenodd" clip-rule="evenodd" d="M307.882 314.21H343.605V243.711H307.882V314.21Z" fill="#FFFFFE"/>
<path fill-rule="evenodd" clip-rule="evenodd" d="M307.882 314.21H343.605V243.711H307.882V314.21Z" stroke="#3A3B38" stroke-width="1.5"/>
<path fill-rule="evenodd" clip-rule="evenodd" d="M363.417 320.85H284.592L287.859 312.42H359.412L363.417 320.85Z" fill="#FFFFFE"/>
<path fill-rule="evenodd" clip-rule="evenodd" d="M363.417 320.85H284.592L287.859 312.42H359.412L363.417 320.85Z" stroke="#3A3B38" stroke-width="1.5"/>
<path fill-rule="evenodd" clip-rule="evenodd" d="M357.13 268.62H391.057V241.643H357.13V268.62Z" fill="#FFFFFE"/>
<path fill-rule="evenodd" clip-rule="evenodd" d="M357.13 268.62H391.057V241.643H357.13V268.62Z" stroke="#3A3B38" stroke-width="1.5"/>
<path fill-rule="evenodd" clip-rule="evenodd" d="M358.86 254.4H373.244V243.098H358.86V254.4Z" fill="#FFFFFE"/>
<path fill-rule="evenodd" clip-rule="evenodd" d="M358.86 254.4H373.244V243.098H358.86V254.4Z" stroke="#3A3B38" stroke-width="1.5"/>
<path fill-rule="evenodd" clip-rule="evenodd" d="M374.944 254.4H389.328V243.098H374.944V254.4Z" fill="#FFFFFE"/>
<path fill-rule="evenodd" clip-rule="evenodd" d="M374.944 254.4H389.328V243.098H374.944V254.4Z" stroke="#3A3B38" stroke-width="1.5"/>
<path fill-rule="evenodd" clip-rule="evenodd" d="M358.86 267.164H373.244V255.862H358.86V267.164Z" fill="#FFFFFE"/>
<path fill-rule="evenodd" clip-rule="evenodd" d="M358.86 267.164H373.244V255.862H358.86V267.164Z" stroke="#3A3B38" stroke-width="1.5"/>
<path fill-rule="evenodd" clip-rule="evenodd" d="M374.944 267.164H389.328V255.862H374.944V267.164Z" fill="#FFFFFE"/>
<path fill-rule="evenodd" clip-rule="evenodd" d="M374.944 267.164H389.328V255.862H374.944V267.164Z" stroke="#3A3B38" stroke-width="1.5"/>
<path fill-rule="evenodd" clip-rule="evenodd" d="M253.858 268.62H287.785V241.643H253.858V268.62Z" fill="#FFFFFE"/>
<path fill-rule="evenodd" clip-rule="evenodd" d="M253.858 268.62H287.785V241.643H253.858V268.62Z" stroke="#3A3B38" stroke-width="1.5"/>
<path fill-rule="evenodd" clip-rule="evenodd" d="M255.588 254.4H269.972V243.098H255.588V254.4Z" fill="#FFFFFE"/>
<path fill-rule="evenodd" clip-rule="evenodd" d="M255.588 254.4H269.972V243.098H255.588V254.4Z" stroke="#3A3B38" stroke-width="1.5"/>
<path fill-rule="evenodd" clip-rule="evenodd" d="M271.672 254.4H286.056V243.098H271.672V254.4Z" fill="#FFFFFE"/>
<path fill-rule="evenodd" clip-rule="evenodd" d="M271.672 254.4H286.056V243.098H271.672V254.4Z" stroke="#3A3B38" stroke-width="1.5"/>
<path fill-rule="evenodd" clip-rule="evenodd" d="M255.588 267.164H269.972V255.862H255.588V267.164Z" fill="#FFFFFE"/>
<path fill-rule="evenodd" clip-rule="evenodd" d="M255.588 267.164H269.972V255.862H255.588V267.164Z" stroke="#3A3B38" stroke-width="1.5"/>
<path fill-rule="evenodd" clip-rule="evenodd" d="M271.672 267.164H286.056V255.862H271.672V267.164Z" fill="#FFFFFE"/>
<path fill-rule="evenodd" clip-rule="evenodd" d="M271.672 267.164H286.056V255.862H271.672V267.164Z" stroke="#3A3B38" stroke-width="1.5"/>
<path fill-rule="evenodd" clip-rule="evenodd" d="M192.948 268.62H226.876V241.643H192.948V268.62Z" fill="#FFFFFE"/>
<path fill-rule="evenodd" clip-rule="evenodd" d="M192.948 268.62H226.876V241.643H192.948V268.62Z" stroke="#3A3B38" stroke-width="1.5"/>
<path fill-rule="evenodd" clip-rule="evenodd" d="M194.678 254.4H209.063V243.098H194.678V254.4Z" fill="#FFFFFE"/>
<path fill-rule="evenodd" clip-rule="evenodd" d="M194.678 254.4H209.063V243.098H194.678V254.4Z" stroke="#3A3B38" stroke-width="1.5"/>
<path fill-rule="evenodd" clip-rule="evenodd" d="M210.762 254.4H225.147V243.098H210.762V254.4Z" fill="#FFFFFE"/>
<path fill-rule="evenodd" clip-rule="evenodd" d="M210.762 254.4H225.147V243.098H210.762V254.4Z" stroke="#3A3B38" stroke-width="1.5"/>
<path fill-rule="evenodd" clip-rule="evenodd" d="M194.678 267.164H209.063V255.862H194.678V267.164Z" fill="#FFFFFE"/>
<path fill-rule="evenodd" clip-rule="evenodd" d="M194.678 267.164H209.063V255.862H194.678V267.164Z" stroke="#3A3B38" stroke-width="1.5"/>
<path fill-rule="evenodd" clip-rule="evenodd" d="M210.762 267.164H225.147V255.862H210.762V267.164Z" fill="#FFFFFE"/>
<path fill-rule="evenodd" clip-rule="evenodd" d="M210.762 267.164H225.147V255.862H210.762V267.164Z" stroke="#3A3B38" stroke-width="1.5"/>
<path fill-rule="evenodd" clip-rule="evenodd" d="M129.088 287.588H163.016V260.611H129.088V287.588Z" fill="#FFFFFE"/>
<path fill-rule="evenodd" clip-rule="evenodd" d="M129.088 287.588H163.016V260.611H129.088V287.588Z" stroke="#3A3B38" stroke-width="1.5"/>
<path fill-rule="evenodd" clip-rule="evenodd" d="M130.818 273.368H145.202V262.066H130.818V273.368Z" fill="#FFFFFE"/>
<path fill-rule="evenodd" clip-rule="evenodd" d="M130.818 273.368H145.202V262.066H130.818V273.368Z" stroke="#3A3B38" stroke-width="1.5"/>
<path fill-rule="evenodd" clip-rule="evenodd" d="M146.902 273.368H161.286V262.066H146.902V273.368Z" fill="#FFFFFE"/>
<path fill-rule="evenodd" clip-rule="evenodd" d="M146.902 273.368H161.286V262.066H146.902V273.368Z" stroke="#3A3B38" stroke-width="1.5"/>
<path fill-rule="evenodd" clip-rule="evenodd" d="M130.818 286.132H145.202V274.83H130.818V286.132Z" fill="#FFFFFE"/>
<path fill-rule="evenodd" clip-rule="evenodd" d="M130.818 286.132H145.202V274.83H130.818V286.132Z" stroke="#3A3B38" stroke-width="1.5"/>
<path fill-rule="evenodd" clip-rule="evenodd" d="M146.902 286.132H161.286V274.83H146.902V286.132Z" fill="#FFFFFE"/>
<path fill-rule="evenodd" clip-rule="evenodd" d="M146.902 286.132H161.286V274.83H146.902V286.132Z" stroke="#3A3B38" stroke-width="1.5"/>
<path d="M168.938 237.23V294.61" stroke="#3A3B38" stroke-width="1.5"/>
<path fill-rule="evenodd" clip-rule="evenodd" d="M110.874 246.188L107.08 246.399C107.08 246.399 107.818 247.61 108.029 247.663C108.239 247.716 111.928 247.189 111.928 247.189L110.874 246.188Z" fill="#FFFFFE"/>
<path fill-rule="evenodd" clip-rule="evenodd" d="M109.82 249.139C109.82 249.139 108.609 249.613 109.083 249.665C109.557 249.718 110.137 249.823 110.189 249.665C110.242 249.507 110.4 249.192 109.82 249.139Z" fill="#FFFFFE"/>
<path fill-rule="evenodd" clip-rule="evenodd" d="M104.762 248.665C104.551 248.665 102.654 248.981 102.602 249.297C102.549 249.613 104.709 249.929 104.709 249.929C104.709 249.929 106.026 248.665 104.762 248.665Z" fill="#FFFFFE"/>
<path d="M401.38 235.966L358.148 236.124" stroke="#3A3B38" stroke-width="1.5"/>
<path d="M401.854 233.437H368.739" stroke="#3A3B38" stroke-width="1.5"/>
<path d="M401.696 231.382H377.511" stroke="#3A3B38" stroke-width="1.5"/>
<path d="M168.886 276.063H212.934" stroke="#3A3B38" stroke-width="1.5"/>
<path d="M169.096 278.382H195.125" stroke="#3A3B38" stroke-width="1.5"/>
<path d="M168.991 281.121H183.428" stroke="#3A3B38" stroke-width="1.5"/>
<path d="M168.991 283.65H177" stroke="#3A3B38" stroke-width="1.5"/>
<path d="M168.622 243H123.019" stroke="#3A3B38" stroke-width="1.5"/>
<path d="M168.701 245.371H127.761" stroke="#3A3B38" stroke-width="1.5"/>
<path d="M168.859 248.374H138.115" stroke="#3A3B38" stroke-width="1.5"/>
<path d="M168.938 250.587H148.389" stroke="#3A3B38" stroke-width="1.5"/>
<path d="M284.066 177.533H302.928" stroke="#3A3B38" stroke-width="1.5"/>
<path d="M284.171 181.011H309.251" stroke="#3A3B38" stroke-width="1.5"/>
<path d="M289.651 183.856H314.731" stroke="#3A3B38" stroke-width="1.5"/>
<path d="M294.498 186.596H319.578" stroke="#3A3B38" stroke-width="1.5"/>
<path d="M337.546 172.896H350.087" stroke="#3A3B38" stroke-width="1.5"/>
<path d="M377.802 301.249H359.624" stroke="#3A3B38" stroke-width="1.5"/>
<path d="M364.629 303.673H378.104" stroke="#3A3B38" stroke-width="1.5"/>
<path d="M367.369 305.833H378.012" stroke="#3A3B38" stroke-width="1.5"/>
<path d="M370.162 307.572H378.118" stroke="#3A3B38" stroke-width="1.5"/>
<path fill-rule="evenodd" clip-rule="evenodd" d="M353.722 323.905H432.967V321.06H353.722V323.905Z" fill="#FFFFFE"/>
<path fill-rule="evenodd" clip-rule="evenodd" d="M353.722 323.905H432.967V321.06H353.722V323.905Z" stroke="#3A3B38" stroke-width="1.5"/>
<path fill-rule="evenodd" clip-rule="evenodd" d="M353.722 327.067H432.967V324.221H353.722V327.067Z" fill="#FFFFFE"/>
<path fill-rule="evenodd" clip-rule="evenodd" d="M353.722 327.067H432.967V324.221H353.722V327.067Z" stroke="#3A3B38" stroke-width="1.5"/>
<path fill-rule="evenodd" clip-rule="evenodd" d="M353.722 330.228H432.967V327.383H353.722V330.228Z" fill="#FFFFFE"/>
<path fill-rule="evenodd" clip-rule="evenodd" d="M353.722 330.228H432.967V327.383H353.722V330.228Z" stroke="#3A3B38" stroke-width="1.5"/>
<path fill-rule="evenodd" clip-rule="evenodd" d="M353.722 333.389H432.967V330.544H353.722V333.389Z" fill="#FFFFFE"/>
<path fill-rule="evenodd" clip-rule="evenodd" d="M353.722 333.389H432.967V330.544H353.722V333.389Z" stroke="#3A3B38" stroke-width="1.5"/>
<path fill-rule="evenodd" clip-rule="evenodd" d="M344.871 320.428C344.871 320.428 344.238 320.323 343.237 320.376C342.236 320.428 341.129 319.796 340.497 320.27C339.865 320.744 339.338 322.378 339.812 322.431C340.287 322.483 342.183 321.956 342.921 321.956C343.659 321.956 344.396 321.798 345.081 321.64C345.766 321.482 347.189 320.534 344.871 320.428Z" fill="#FFFFFE"/>
<path fill-rule="evenodd" clip-rule="evenodd" d="M486.666 236.778C486.753 236.762 486.822 236.735 486.869 236.698C487.727 236.034 489.063 234.89 490.431 233.68C490.12 233.766 489.728 233.817 489.236 233.817C488.829 233.817 488.447 233.783 488.184 233.751L486.666 236.778ZM478.475 348.041C475.991 348.041 473.168 347.282 472.232 347.008C471.89 347.365 471.148 347.883 469.697 347.95C469.543 347.957 469.38 347.96 469.213 347.96C467.29 347.96 464.672 347.521 464.561 347.503L464.21 347.443L464.169 347.09C464.167 347.075 463.991 345.559 463.902 344.105C463.818 342.716 464.741 340.941 465.004 340.466C464.993 339.582 464.939 334.658 465.186 332.882C465.362 331.635 465.959 328.554 466.486 325.836C466.766 324.393 467.024 323.069 467.177 322.22C467.483 320.536 468.994 316.869 470.097 314.191C470.612 312.939 471.058 311.857 471.211 311.384C471.517 310.44 471.457 308.118 471.404 306.071C471.377 305.061 471.35 304.015 471.364 303.132C471.405 300.665 471.409 292.556 471.409 289.185C471.409 287.562 471.292 285.943 469.867 283.991C468.441 282.036 468.224 278.808 468.19 277.958L466.684 276.54V270.55C466.684 269.548 466.588 268.402 466.486 267.189C466.299 264.962 466.086 262.436 466.471 260.309C466.81 258.432 466.505 256.174 466.182 253.783C465.977 252.264 465.764 250.691 465.712 249.149C465.61 246.111 467.43 240.734 468.76 236.808C469.181 235.566 469.543 234.493 469.75 233.767C470.594 230.786 471.734 228.798 471.782 228.714L472.05 228.25L474.518 230.112C475.09 229.634 475.655 229.148 475.84 228.968C475.874 228.7 475.825 227.89 475.75 227.2C475.402 226.576 473.352 222.885 472.889 221.458C472.283 219.584 475.131 216.353 477.893 214.929C480.173 213.751 483.285 212.348 485.159 212.348C485.398 212.348 485.617 212.37 485.811 212.415C487.363 212.769 489.246 216.476 489.85 217.747C492.118 217.772 494.649 218.081 494.831 219.345C494.886 219.733 494.741 220.13 494.398 220.526C493.488 221.573 491.142 222.555 490.414 222.58C490.407 222.633 490.41 222.714 490.422 222.794C491.391 223.736 492.892 225.326 492.892 226.125C492.892 226.539 492.725 227.225 491.683 227.464C491.716 227.555 491.757 227.653 491.787 227.727C491.888 227.974 491.983 228.208 492.006 228.412C492.046 228.776 491.831 229.059 491.521 229.26C491.63 229.417 491.734 229.603 491.806 229.81C491.936 230.184 491.816 230.437 491.733 230.554C491.686 230.621 491.631 230.673 491.574 230.715C491.616 231.097 491.649 231.725 491.564 232.533C491.559 232.586 491.551 232.639 491.539 232.692C493.475 230.951 495.229 229.305 495.486 228.97C496.102 228.17 497.952 227.834 498.877 227.713C498.851 226.81 498.899 225.023 499.634 224.288C499.981 223.941 500.399 223.758 500.843 223.758C500.985 223.758 501.118 223.777 501.239 223.805C501.642 221.728 503.154 220.148 503.81 219.546L503.327 218.65L541.038 191.868L543.133 194.152L528.86 204.856V206.341C528.86 207.782 526.254 209.572 525.732 209.917L520.715 213.321C520.853 213.491 520.927 213.662 520.965 213.804C521.146 214.473 520.742 215.087 520.695 215.155L512.987 224.728C513.445 225.246 513.667 225.748 513.651 226.224C513.638 226.614 513.467 226.877 513.352 227.01L506.828 241.708C506.296 242.904 503.759 243.967 502.979 244.27C501.919 246.823 499.547 252.324 498.59 252.802C498.394 252.901 497.793 253.201 494.614 253.201C494.35 253.201 494.111 253.199 493.913 253.196C494.249 255.107 495.301 261.195 495.453 263.273C495.589 265.159 495.927 273.611 495.652 274.488C495.507 274.953 495.003 275.253 494.469 275.569C494.03 275.829 493.429 276.185 493.495 276.436C493.737 277.365 495.352 283.078 497.187 287.822C499.15 292.896 501.895 304.404 501.724 311.939C501.549 319.631 500.759 332.451 500.751 332.579L500.734 332.856L499.556 333.429C500.296 334.113 501.706 335.362 502.655 335.836C503.03 336.023 503.656 336.156 504.319 336.295C506.014 336.653 508.122 337.097 508.083 338.964L508.08 339.144L507.958 339.275C507.889 339.351 506.224 341.106 502.133 341.106C499.206 341.106 497.295 340.771 496.465 340.586L496.178 341.649L488.403 341.359L488.301 341.044C488.277 340.969 487.708 339.197 487.616 337.433C487.529 335.734 487.862 330.206 488.236 325.624C488.654 320.506 489.3 309.603 489.051 308.713C488.822 307.996 487.525 305.995 486.978 305.185C486.973 305.181 486.968 305.178 486.963 305.175C486.63 307.059 486.356 310.508 486.356 311.265C486.356 312.266 485.782 313.877 484.959 315.183C484.291 316.242 482.032 320.995 480.682 325.403C479.891 327.99 479.447 332.716 479.466 338.367L479.467 338.512C479.467 339.102 479.082 339.483 478.486 339.483C478.371 339.483 478.258 339.469 478.159 339.45C478.061 339.584 477.94 339.76 477.841 339.937C478.323 340.319 480.237 341.177 483.013 341.987C485.494 342.713 486.92 343.283 487.353 344.222C487.532 344.61 487.525 345.028 487.33 345.462C486.595 347.102 481.367 347.999 478.647 348.041H478.475Z" fill="#FFFFFE"/>
<mask id="mask1_871_1814" style="mask-type:alpha" maskUnits="userSpaceOnUse" x="463" y="191" width="81" height="158">
<path d="M463.423 191.239H543.836V348.477H463.423V191.239Z" fill="white"/>
</mask>
<g mask="url(#mask1_871_1814)">
<path fill-rule="evenodd" clip-rule="evenodd" d="M488.016 235.145L488.462 234.256C488.629 234.271 488.816 234.283 489.013 234.288C488.666 234.589 488.332 234.878 488.016 235.145ZM541.105 191.239L540.423 191.723L503.394 218.021L502.71 218.507L503.109 219.245L503.222 219.454C502.505 220.167 501.345 221.534 500.874 223.284C500.863 223.284 500.853 223.284 500.843 223.284C500.27 223.284 499.736 223.516 499.299 223.953C498.549 224.702 498.401 226.242 498.397 227.3C497.272 227.477 495.741 227.863 495.111 228.681C494.898 228.954 493.629 230.153 492.091 231.55C492.091 231.3 492.082 231.082 492.067 230.897C492.084 230.876 492.101 230.853 492.118 230.83C492.255 230.639 492.454 230.23 492.254 229.655C492.218 229.555 492.178 229.458 492.133 229.367C492.395 229.082 492.519 228.736 492.477 228.361C492.455 228.157 492.388 227.957 492.307 227.751C493.275 227.305 493.366 226.433 493.366 226.125C493.366 225.86 493.366 225.094 491.198 222.895C492.298 222.563 493.965 221.748 494.756 220.836C495.3 220.209 495.352 219.643 495.301 219.279C495.232 218.799 495.027 217.376 490.151 217.277C489.275 215.466 487.543 212.324 485.917 211.952C485.688 211.9 485.434 211.873 485.159 211.873C483.578 211.873 481.06 212.759 477.675 214.507C474.69 216.047 471.752 219.483 472.439 221.604C472.896 223.017 474.828 226.52 475.289 227.346C475.345 227.893 475.379 228.453 475.376 228.751C475.182 228.927 474.853 229.209 474.502 229.506L472.764 228.194L471.908 227.549L471.371 228.477C471.322 228.562 470.154 230.601 469.294 233.638C469.091 234.352 468.729 235.42 468.311 236.656C466.97 240.616 465.133 246.041 465.239 249.165C465.291 250.731 465.505 252.315 465.712 253.847C466.03 256.199 466.33 258.421 466.004 260.225C465.608 262.413 465.824 264.972 466.013 267.23C466.114 268.432 466.21 269.568 466.21 270.55V276.745L466.508 277.026L467.726 278.172C467.786 279.281 468.078 282.342 469.483 284.269C470.826 286.11 470.935 287.585 470.935 289.185C470.935 292.555 470.931 300.66 470.89 303.124C470.876 304.017 470.903 305.068 470.929 306.083C470.982 308.093 471.041 310.37 470.761 311.238C470.613 311.693 470.17 312.768 469.659 314.011C468.485 316.858 467.026 320.401 466.711 322.136C466.557 322.98 466.297 324.324 466.021 325.747C465.492 328.47 464.894 331.557 464.717 332.816C464.474 334.554 464.515 339.191 464.529 340.346C464.182 340.989 463.342 342.703 463.429 344.134C463.518 345.601 463.691 347.083 463.698 347.145L463.781 347.851L464.482 347.97C464.594 347.989 467.25 348.434 469.213 348.434C469.389 348.434 469.558 348.431 469.72 348.424C471.065 348.362 471.883 347.927 472.352 347.536C473.497 347.857 476.129 348.515 478.475 348.515H478.653C480.758 348.482 486.826 347.745 487.763 345.656C488.078 344.952 487.948 344.38 487.785 344.024C487.272 342.914 485.82 342.314 483.146 341.532C481.165 340.953 479.621 340.349 478.774 339.933C479.474 339.815 479.941 339.264 479.941 338.512L479.941 338.366C479.922 332.76 480.358 328.086 481.136 325.541C482.474 321.174 484.703 316.478 485.36 315.436C486.092 314.274 486.831 312.534 486.831 311.265C486.831 310.661 487.007 308.315 487.249 306.462C487.847 307.401 488.446 308.411 488.591 308.835C488.802 310.018 488.165 320.663 487.763 325.585C487.46 329.304 487.045 335.535 487.142 337.456C487.237 339.283 487.825 341.113 487.85 341.19L488.054 341.82L488.717 341.845L495.783 342.109L496.537 342.138L496.734 341.409L496.806 341.139C497.813 341.331 499.606 341.581 502.133 341.581C506.429 341.581 508.232 339.678 508.307 339.597L508.55 339.333L508.558 338.974C508.604 336.714 506.084 336.183 504.417 335.832C503.812 335.705 503.188 335.573 502.866 335.412C502.184 335.071 501.18 334.247 500.394 333.549L500.693 333.404L501.191 333.162L501.224 332.609C501.233 332.48 502.023 319.651 502.198 311.949C502.371 304.354 499.606 292.761 497.629 287.652C495.879 283.124 494.329 277.712 493.991 276.456C494.142 276.313 494.489 276.108 494.71 275.977C495.298 275.629 495.906 275.268 496.105 274.628C496.43 273.585 496.02 264.542 495.926 263.239C495.786 261.314 494.886 256.02 494.478 253.675C494.523 253.675 494.568 253.675 494.614 253.675C497.905 253.675 498.558 253.349 498.803 253.225C499.979 252.639 502.361 247 503.339 244.639C504.455 244.196 506.697 243.169 507.261 241.9L513.758 227.265C513.948 227.023 514.111 226.67 514.125 226.24C514.142 225.743 513.964 225.237 513.596 224.729L521.043 215.481L521.066 215.453L521.086 215.424C521.183 215.283 521.655 214.537 521.423 213.681C521.404 213.613 521.38 213.54 521.349 213.465L526.004 210.305C526.997 209.65 529.334 207.938 529.334 206.341V205.093L542.999 194.846L543.836 194.217L541.671 191.856L541.105 191.239ZM540.972 192.497L542.429 194.087L528.386 204.619C528.386 204.619 528.386 205.082 528.386 206.341C528.386 207.6 525.471 209.52 525.471 209.52L519.908 213.296C521.034 213.826 520.305 214.886 520.305 214.886L512.356 224.756C513.747 226.081 512.951 226.743 512.951 226.743C512.951 226.743 506.924 240.322 506.394 241.515C505.864 242.707 502.619 243.899 502.619 243.899C502.619 243.899 499.307 251.914 498.379 252.377C497.788 252.673 495.902 252.727 494.614 252.727C493.884 252.727 493.346 252.71 493.346 252.71C493.346 252.71 494.802 260.879 494.98 263.308C495.156 265.736 495.42 273.64 495.199 274.347C494.98 275.054 492.771 275.54 493.036 276.556C493.301 277.572 494.935 283.312 496.745 287.994C498.556 292.674 501.427 304.156 501.25 311.928C501.073 319.7 500.278 332.55 500.278 332.55L498.733 333.301C498.733 333.301 501.03 335.553 502.442 336.26C503.855 336.967 507.653 336.834 507.609 338.954C507.609 338.954 506.063 340.632 502.133 340.632C498.203 340.632 496.128 340.014 496.128 340.014L495.818 341.161L488.752 340.897C488.752 340.897 488.179 339.13 488.089 337.408C488.002 335.686 488.356 329.989 488.708 325.662C489.062 321.334 489.812 309.544 489.503 308.57C489.194 307.6 487.317 304.839 487.317 304.839C487.317 304.839 486.676 304.419 486.635 304.419C486.633 304.419 486.633 304.42 486.633 304.42C486.235 306.055 485.882 310.338 485.882 311.265C485.882 312.193 485.309 313.738 484.558 314.931C483.806 316.123 481.554 320.937 480.229 325.264C478.905 329.592 478.993 337.717 478.993 338.512C478.993 338.91 478.739 339.008 478.486 339.008C478.232 339.008 477.977 338.909 477.977 338.909C477.977 338.909 477.536 339.44 477.315 339.925C477.094 340.411 480.009 341.604 482.88 342.442C485.75 343.281 487.472 343.988 486.897 345.269C486.323 346.549 481.598 347.521 478.64 347.567C478.585 347.567 478.531 347.567 478.475 347.567C475.549 347.567 472.06 346.461 472.06 346.461C472.06 346.461 471.574 347.389 469.676 347.477C469.528 347.483 469.373 347.486 469.213 347.486C467.308 347.486 464.64 347.035 464.64 347.035C464.64 347.035 464.464 345.533 464.376 344.076C464.288 342.619 465.48 340.588 465.48 340.588C465.48 340.588 465.392 334.847 465.657 332.947C465.922 331.049 467.203 324.734 467.644 322.305C468.085 319.876 471.176 313.031 471.663 311.53C472.148 310.029 471.795 305.878 471.839 303.14C471.884 300.402 471.884 290.775 471.884 289.185C471.884 287.595 471.795 285.829 470.25 283.711C468.704 281.591 468.66 277.748 468.66 277.748L467.158 276.335C467.158 276.335 467.158 273.464 467.158 270.55C467.158 267.635 466.363 263.572 466.937 260.393C467.512 257.214 466.319 253.063 466.187 249.133C466.054 245.202 469.366 236.855 470.206 233.897C471.044 230.938 472.192 228.951 472.192 228.951L474.533 230.717C474.533 230.717 476.079 229.437 476.256 229.216C476.432 228.996 476.211 227.052 476.211 227.052C476.211 227.052 473.826 222.813 473.341 221.311C472.855 219.81 475.372 216.763 478.11 215.35C480.558 214.086 483.467 212.822 485.159 212.822C485.359 212.822 485.543 212.84 485.706 212.877C487.251 213.23 489.548 218.22 489.548 218.22C489.548 218.22 489.568 218.22 489.606 218.22C490.139 218.22 494.195 218.258 494.362 219.412C494.537 220.649 491.049 222.106 490.387 222.106C489.724 222.106 489.988 223.034 489.988 223.034C489.988 223.034 492.417 225.374 492.417 226.125C492.417 226.876 491.667 227.008 491.269 227.052C490.872 227.096 491.49 228.068 491.535 228.464C491.579 228.863 490.739 229.083 490.739 229.083C490.739 229.083 491.181 229.459 491.358 229.967C491.513 230.41 491.049 230.409 491.049 230.409C491.049 230.409 491.226 231.204 491.093 232.485C491.021 233.184 490.077 233.343 489.236 233.343C488.54 233.343 487.914 233.234 487.914 233.234L485.922 237.204C485.922 237.204 486.164 237.27 486.457 237.27C486.692 237.27 486.961 237.228 487.16 237.072C489.362 235.367 495.311 229.975 495.862 229.259C496.524 228.399 499.373 228.134 499.373 228.134C499.373 228.134 499.174 225.418 499.969 224.623C500.267 224.326 500.574 224.232 500.843 224.232C501.289 224.232 501.625 224.491 501.625 224.491C501.824 221.709 504.408 219.655 504.408 219.655L503.943 218.794L540.972 192.497Z" fill="#3A3B38"/>
</g>
<path fill-rule="evenodd" clip-rule="evenodd" d="M478.739 214.886C478.739 214.886 484.027 217.072 484.645 222.46L478.739 214.886Z" fill="#FFFFFE"/>
<path d="M478.739 214.886C478.739 214.886 484.027 217.072 484.645 222.46" stroke="#3A3B38"/>
<path fill-rule="evenodd" clip-rule="evenodd" d="M476.586 216.244C476.586 216.244 478.871 217.238 480.064 219.059C481.255 220.881 482.106 223.806 482.106 223.806" fill="#FFFFFE"/>
<path d="M476.586 216.244C476.586 216.244 478.871 217.238 480.064 219.059C481.255 220.881 482.106 223.806 482.106 223.806" stroke="#3A3B38"/>
<path fill-rule="evenodd" clip-rule="evenodd" d="M487.914 226.876C487.914 226.876 487.118 221.951 484.071 222.328C481.5 222.644 480.737 225.86 482.636 228.797C484.094 231.051 488.609 230.772 487.914 226.876Z" fill="#FFFFFE"/>
<path fill-rule="evenodd" clip-rule="evenodd" d="M487.914 226.876C487.914 226.876 487.118 221.951 484.071 222.328C481.5 222.644 480.737 225.86 482.636 228.797C484.094 231.051 488.609 230.772 487.914 226.876Z" stroke="#3A3B38"/>
<path fill-rule="evenodd" clip-rule="evenodd" d="M489.349 218.154C489.349 218.154 487.362 220.825 484.823 222.349L489.349 218.154Z" fill="#FFFFFE"/>
<path d="M489.349 218.154C489.349 218.154 487.362 220.825 484.823 222.349" stroke="#3A3B38"/>
<path fill-rule="evenodd" clip-rule="evenodd" d="M485.153 222.283C485.153 222.283 489.068 222.854 490.901 222.346L485.153 222.283Z" fill="#FFFFFE"/>
<path d="M485.153 222.283C485.153 222.283 489.068 222.854 490.901 222.346" stroke="#3A3B38" stroke-width="1.5"/>
<path fill-rule="evenodd" clip-rule="evenodd" d="M482.106 223.409C482.106 223.409 481.399 225.639 475.725 226.501L482.106 223.409Z" fill="#FFFFFE"/>
<path d="M482.106 223.409C482.106 223.409 481.399 225.639 475.725 226.501" stroke="#3A3B38"/>
<path fill-rule="evenodd" clip-rule="evenodd" d="M484.558 224.027C484.558 224.027 482.018 224.932 483.784 228.068L484.558 224.027Z" fill="#FFFFFE"/>
<path d="M484.558 224.027C484.558 224.027 482.018 224.932 483.784 228.068" stroke="#3A3B38"/>
<path fill-rule="evenodd" clip-rule="evenodd" d="M491.291 226.478C491.291 226.478 490.652 226.412 490.387 226.588L491.291 226.478Z" fill="#FFFFFE"/>
<path d="M491.291 226.478C491.291 226.478 490.652 226.412 490.387 226.588" stroke="#3A3B38" stroke-width="0.5"/>
<path fill-rule="evenodd" clip-rule="evenodd" d="M489.122 223.182C489.122 223.182 488.598 223.062 488.228 223.712C487.864 224.353 487.996 224.226 487.996 224.226C487.996 224.226 488.289 224.005 488.576 224.071C488.863 224.137 489.222 223.995 489.222 223.995H489.52C489.52 223.995 489.1 223.514 489.122 223.182Z" fill="#FFFFFE"/>
<path fill-rule="evenodd" clip-rule="evenodd" d="M489.122 223.182C489.122 223.182 488.598 223.062 488.228 223.712C487.864 224.353 487.996 224.226 487.996 224.226C487.996 224.226 488.289 224.005 488.576 224.071C488.863 224.137 489.222 223.995 489.222 223.995H489.52C489.52 223.995 489.1 223.514 489.122 223.182Z" stroke="#3A3B38" stroke-width="0.5"/>
<path fill-rule="evenodd" clip-rule="evenodd" d="M489.856 228.907C489.856 228.907 491.014 228.843 491.191 229.13L489.856 228.907Z" fill="#FFFFFE"/>
<path d="M489.856 228.907C489.856 228.907 491.014 228.843 491.191 229.13" stroke="#3A3B38" stroke-width="0.5"/>
<path d="M490.321 230.447L491.375 230.592" stroke="#3A3B38" stroke-width="0.5"/>
<path fill-rule="evenodd" clip-rule="evenodd" d="M484.336 230.055C484.336 230.055 485.22 232.528 487.759 233.168L484.336 230.055Z" fill="#FFFFFE"/>
<path d="M484.336 230.055C484.336 230.055 485.22 232.528 487.759 233.168" stroke="#3A3B38"/>
<path fill-rule="evenodd" clip-rule="evenodd" d="M476.167 228.222C476.167 228.222 478.176 227.825 479.015 227.891C479.855 227.958 481.246 227.692 483.298 229.459" fill="#FFFFFE"/>
<path d="M476.167 228.222C476.167 228.222 478.176 227.825 479.015 227.891C479.855 227.958 481.246 227.692 483.298 229.459" stroke="#3A3B38"/>
<path d="M483.012 232.021L480.891 234.935" stroke="#3A3B38"/>
<path fill-rule="evenodd" clip-rule="evenodd" d="M484.601 232.794C484.601 232.794 483.806 235.973 483.32 236.238L484.601 232.794Z" fill="#FFFFFE"/>
<path d="M499.174 228.068L499.141 230.585M484.601 232.794C484.601 232.794 483.806 235.973 483.32 236.238L484.601 232.794ZM474.169 230.751L482.747 236.083C482.747 236.083 484.171 237.242 487.55 237.872C490.927 238.501 492.947 239.792 492.947 239.792L497.816 231.546C497.816 231.546 498.115 230.717 499.141 230.585C500.168 230.453 503.613 232.34 503.977 234.262C504.341 236.183 503.023 242.616 502.427 244.107L474.169 230.751ZM501.427 224.424C501.427 224.424 501.03 225.153 503.48 225.153C505.931 225.153 507.355 224.69 507.355 224.69C507.355 224.69 508.183 224.392 508.348 225.32C508.514 226.246 507.155 227.108 507.155 227.108C507.155 227.108 507.62 228.167 507.388 228.498C507.155 228.829 506.792 228.864 506.792 229.326C506.792 229.79 507.322 230.287 506.792 230.717C506.261 231.149 506.394 232.375 506.195 232.407C505.997 232.44 503.943 234.129 503.943 234.129L501.427 224.424Z" stroke="#3A3B38"/>
<path d="M509.22 222.371L510.236 223.696C510.236 223.696 510.435 223.983 510.236 224.491C510.038 224.999 508.16 226.169 508.16 226.169M519.708 213.23C519.708 213.23 518.45 212.601 517.556 212.601C516.661 212.601 516.065 213.131 516.596 213.561C517.125 213.992 518.417 214.82 518.417 214.82L517.787 215.813C517.787 215.813 516.165 213.959 515.37 213.859C514.576 213.76 515.204 215.052 515.204 215.052C515.204 215.052 514.079 214.422 513.847 214.952C513.615 215.482 513.946 215.781 513.946 215.781C513.946 215.781 513.416 215.35 513.052 215.946C512.687 216.542 514.376 218.794 514.376 218.794C514.376 218.794 513.001 219.563 512.655 219.755C509.242 221.643 507.289 224.855 507.289 224.855L519.708 213.23ZM504.209 219.59L505.003 220.152L527.525 203.89L528.22 204.652L504.209 219.59Z" stroke="#0A0B09" stroke-width="0.419"/>
<path d="M480.732 234.78C480.732 234.78 478.11 233.433 475.361 234.758C472.612 236.083 469.531 239.858 469.83 243.303C470.128 246.748 472.016 252.411 475.924 253.735C479.832 255.062 480.754 254.814 482.714 253.967C484.171 253.338 485.529 252.213 485.529 252.213" stroke="#3A3B38"/>
<path fill-rule="evenodd" clip-rule="evenodd" d="M473.507 243.369C473.507 243.369 473.307 247.212 473.937 248.073C474.565 248.933 475.096 248.933 475.295 249.165C475.493 249.397 476.951 249.762 477.447 249.827C477.945 249.894 483.012 252.245 487.649 252.411C492.285 252.576 493.444 252.609 493.444 252.609" fill="#FFFFFE"/>
<path d="M473.507 243.369C473.507 243.369 473.307 247.212 473.937 248.073C474.565 248.933 475.096 248.933 475.295 249.165C475.493 249.397 476.951 249.762 477.447 249.827C477.945 249.894 483.012 252.245 487.649 252.411C492.285 252.576 493.444 252.609 493.444 252.609" stroke="#3A3B38"/>
<path fill-rule="evenodd" clip-rule="evenodd" d="M492.573 239.705C492.573 239.705 496.238 242.309 497.12 244.297C498.004 246.284 496.635 248.492 496.635 248.492" fill="#FFFFFE"/>
<path d="M492.573 239.705C492.573 239.705 496.238 242.309 497.12 244.297C498.004 246.284 496.635 248.492 496.635 248.492" stroke="#3A3B38"/>
<path fill-rule="evenodd" clip-rule="evenodd" d="M495.266 246.019C495.266 246.019 496.104 242.619 492.263 239.527L495.266 246.019Z" fill="#FFFFFE"/>
<path d="M495.266 246.019C495.266 246.019 496.104 242.619 492.263 239.527" stroke="#3A3B38"/>
<path fill-rule="evenodd" clip-rule="evenodd" d="M498.181 242.796C498.181 242.796 496.988 241.161 495.62 240.72C494.25 240.278 493.191 239.968 493.191 239.968" fill="#FFFFFE"/>
<path d="M498.181 242.796C498.181 242.796 496.988 241.161 495.62 240.72C494.25 240.278 493.191 239.968 493.191 239.968" stroke="#3A3B38"/>
<path fill-rule="evenodd" clip-rule="evenodd" d="M476.189 243.369C476.189 243.369 476.852 246.284 480.385 247.432L476.189 243.369Z" fill="#FFFFFE"/>
<path d="M476.189 243.369C476.189 243.369 476.852 246.284 480.385 247.432" stroke="#3A3B38"/>
<path fill-rule="evenodd" clip-rule="evenodd" d="M490.931 252.722C490.931 252.722 492.19 255.173 492.587 257.293C492.985 259.412 493.117 273.456 493.117 273.456C493.117 273.456 493.316 275.443 492.786 275.509C492.256 275.576 479.384 281.14 468.83 277.629" fill="#FFFFFE"/>
<path d="M490.931 252.722C490.931 252.722 492.19 255.173 492.587 257.293C492.985 259.412 493.117 273.456 493.117 273.456C493.117 273.456 493.316 275.443 492.786 275.509C492.256 275.576 479.384 281.14 468.83 277.629" stroke="#3A3B38"/>
<path fill-rule="evenodd" clip-rule="evenodd" d="M490.828 276.356C490.828 276.356 492.285 278.874 491.423 281.987C490.562 285.101 488.311 291.062 488.311 293.513C488.311 295.965 487.308 301.347 486.975 304.99" fill="#FFFFFE"/>
<path d="M490.828 276.356C490.828 276.356 492.285 278.874 491.423 281.987C490.562 285.101 488.311 291.062 488.311 293.513C488.311 295.965 487.308 301.347 486.975 304.99" stroke="#3A3B38"/>
<path fill-rule="evenodd" clip-rule="evenodd" d="M474.003 300.666C474.003 300.666 475.46 306.563 477.58 307.623C479.699 308.682 478.773 307.159 478.773 307.159" fill="#FFFFFE"/>
<path d="M474.003 300.666C474.003 300.666 475.46 306.563 477.58 307.623C479.699 308.682 478.773 307.159 478.773 307.159" stroke="#3A3B38"/>
<path fill-rule="evenodd" clip-rule="evenodd" d="M477.381 312.061C477.381 312.061 472.745 313.518 470.028 318.486L477.381 312.061Z" fill="#FFFFFE"/>
<path d="M477.381 312.061C477.381 312.061 472.745 313.518 470.028 318.486" stroke="#3A3B38"/>
<path fill-rule="evenodd" clip-rule="evenodd" d="M469.079 269.953C469.079 269.953 470.934 272.382 473.23 273.045L469.079 269.953Z" fill="#FFFFFE"/>
<path d="M469.079 269.953C469.079 269.953 470.934 272.382 473.23 273.045" stroke="#3A3B38"/>
<path fill-rule="evenodd" clip-rule="evenodd" d="M490.099 265.758C490.099 265.758 490.32 267.746 490.32 267.878C490.32 268.01 485.595 269.512 483.21 269.645C480.826 269.776 480.252 267.967 480.252 267.967C480.252 267.967 482.415 268.1 483.696 267.79C484.977 267.481 490.099 265.758 490.099 265.758Z" fill="#FFFFFE"/>
<path fill-rule="evenodd" clip-rule="evenodd" d="M490.099 265.758C490.099 265.758 490.32 267.746 490.32 267.878C490.32 268.01 485.595 269.512 483.21 269.645C480.826 269.776 480.252 267.967 480.252 267.967C480.252 267.967 482.415 268.1 483.696 267.79C484.977 267.481 490.099 265.758 490.099 265.758Z" stroke="#3A3B38"/>
<path fill-rule="evenodd" clip-rule="evenodd" d="M494.207 308.019C494.007 307.887 490.562 301.064 488.112 299.673L494.207 308.019Z" fill="#FFFFFE"/>
<path d="M494.207 308.019C494.007 307.887 490.562 301.064 488.112 299.673" stroke="#3A3B38"/>
<path d="M495.002 324.713C495.002 324.713 492.219 332.992 490.562 333.522C488.907 334.051 488.509 333.324 488.509 333.324M491.491 301.329L487.581 297.156L491.491 301.329Z" stroke="#3A3B38"/>
<path fill-rule="evenodd" clip-rule="evenodd" d="M556.896 332.132C556.896 332.132 554.954 334.163 544.709 336.415L556.896 332.132Z" fill="#FFFFFE"/>
<path d="M556.896 332.132C556.896 332.132 554.954 334.163 544.709 336.415" stroke="#3A3B38"/>
<path fill-rule="evenodd" clip-rule="evenodd" d="M531.24 328.952C531.24 328.952 522.43 334.582 523.688 336.967L531.24 328.952Z" fill="#FFFFFE"/>
<path d="M531.24 328.952C531.24 328.952 522.43 334.582 523.688 336.967" stroke="#3A3B38"/>
<path fill-rule="evenodd" clip-rule="evenodd" d="M554.755 327.892C554.755 327.892 551.641 332.198 550.119 332.86L554.755 327.892Z" fill="#FFFFFE"/>
<path d="M554.755 327.892C554.755 327.892 551.641 332.198 550.119 332.86" stroke="#3A3B38"/>
<path fill-rule="evenodd" clip-rule="evenodd" d="M566.624 342.718C566.315 342.718 566.005 342.674 565.702 342.585C564.179 342.143 563.34 341.117 563.34 339.695C563.34 339.447 563.15 339.235 562.84 338.908C562.462 338.51 561.992 338.014 561.893 337.215C561.837 336.773 561.733 336.418 561.622 336.043C561.439 335.423 561.25 334.782 561.319 333.807C561.386 332.876 561.111 331.145 560.892 329.754C560.784 329.071 560.681 328.427 560.63 327.949C560.479 326.544 559.162 320.628 558.881 319.903C558.859 319.879 558.835 319.853 558.809 319.823C558.585 319.576 558.172 319.116 557.717 319.116C557.081 319.116 556.669 318.822 555.92 318.29C555.507 317.996 554.941 317.592 554.133 317.092C552.499 316.081 549.17 315.675 547.856 315.551C547.884 316.304 547.815 317.643 547.12 318.798C546.24 320.267 544.321 322.322 542.92 323.822L542.553 324.215C542.091 324.712 541.632 325.16 541.227 325.555C540.416 326.348 539.715 327.033 539.366 327.731C539.094 328.275 538.836 328.618 538.629 328.892C538.39 329.21 538.292 329.348 538.275 329.576C538.201 330.54 538.27 331.123 538.48 331.309C538.688 331.494 538.932 331.836 539.214 332.233C539.496 332.629 540.082 333.453 540.323 333.53C540.948 333.633 542.266 333.853 542.266 335.033C542.266 336.181 540.541 336.646 539.823 336.646C539.125 336.646 537.314 335.722 536.091 333.499C535.449 332.333 535.098 331.288 534.814 330.449C534.595 329.799 534.422 329.285 534.207 328.991C533.019 327.371 532.99 325.833 534.128 324.876C534.302 324.73 534.492 324.575 534.692 324.413C535.87 323.458 537.483 322.15 537.483 320.938C537.483 320.141 537.761 319.556 537.983 319.087C538.291 318.437 538.371 318.211 538.006 317.768C537.562 317.23 537.259 316.813 537.057 316.51C535.798 317.96 532.114 322.194 530.585 323.85C528.649 325.949 526.954 328.184 525.935 329.981C523.914 333.539 522.671 335.497 522.023 336.145C521.355 336.812 521.947 338.205 522.016 338.362C522.044 338.424 522.19 338.573 522.286 338.671C522.574 338.963 522.932 339.328 522.893 339.808C522.87 340.09 522.716 340.338 522.432 340.544C521.917 340.923 520.63 341.233 519.566 341.233C518.676 341.233 518.042 341.027 517.682 340.621C517.437 340.344 517.334 339.987 517.382 339.586L517.403 339.413C517.619 337.615 517.917 335.152 519.337 334.13C520.431 333.341 521.641 330.574 521.96 329.553C522.017 329.371 522.038 329.176 522.061 328.97C522.129 328.344 522.214 327.565 523.318 326.726C524.368 325.928 526.246 324.119 527.031 320.979C527.219 320.225 527.45 319.216 527.706 318.098C528.535 314.477 529.566 309.969 530.359 308.76C530.773 308.128 531.177 307.347 531.567 306.591C532.185 305.393 532.585 304.642 532.99 304.304C533.186 304.141 533.274 303.859 533.296 303.664C532.827 303.754 531.469 304.074 530.424 304.887C530.304 304.966 529.861 305.233 529.422 305.233C529.09 305.233 528.885 305.087 528.772 304.963C528.604 304.78 528.519 304.524 528.519 304.201C528.519 302.672 532.773 300.943 533.684 300.688C533.897 300.628 534.114 300.571 534.336 300.513C535.476 300.214 536.655 299.904 538.072 299.031C539.422 298.197 543.47 296.235 551.883 296.007C558.307 295.832 562.457 295.128 564.218 293.915C564.913 293.436 566.128 292.189 567.302 290.984C568.646 289.605 569.915 288.303 570.752 287.744C572.095 286.848 574.984 286.092 577.06 286.092C577.682 286.092 578.221 286.157 578.661 286.284C580.549 286.831 581.175 289.25 581.336 290.079C583.119 290.822 585.766 292.154 585.411 293.399C585.316 293.73 585.227 294.008 585.147 294.255C584.974 294.794 584.859 295.15 584.859 295.548C584.859 296.438 582.967 298.873 581.523 298.873C581.037 298.852 580.494 298.749 579.864 298.63C579.071 298.48 578.172 298.31 577.448 298.31C577.164 298.31 576.927 298.336 576.74 298.388C575.751 298.665 572.671 303.594 572.577 304.44C572.566 304.622 572.615 305.011 572.667 305.422C572.843 306.818 573.062 308.557 572.126 309.247C571.495 309.712 569.525 313.163 568.344 315.386C568.865 316.317 570.56 319.437 570.609 320.713C570.645 321.656 570.526 323.989 568.639 325.269C567.954 325.734 567.39 326.336 566.937 326.821C566.365 327.433 565.986 327.837 565.523 327.837C565.379 327.837 565.247 327.833 565.13 327.828C565.188 330.076 565.356 334.643 565.617 335.577C566.502 338.741 567.045 339.188 567.238 339.233C569.246 339.706 569.644 340.143 569.768 340.509C569.853 340.76 569.801 341.019 569.621 341.239C569.062 341.922 567.943 342.718 566.624 342.718Z" fill="#FFFFFE"/>
<path fill-rule="evenodd" clip-rule="evenodd" d="M577.06 285.618C574.869 285.618 571.922 286.395 570.489 287.349C569.611 287.936 568.324 289.256 566.963 290.654C565.804 291.842 564.606 293.071 563.949 293.524C562.791 294.321 559.756 295.319 551.87 295.534C543.342 295.765 539.205 297.774 537.822 298.627C536.466 299.464 535.322 299.765 534.215 300.055C533.991 300.114 533.772 300.171 533.556 300.231C533.502 300.247 528.044 302.032 528.044 304.201C528.044 305.237 528.758 305.708 529.422 305.708C529.978 305.708 530.496 305.406 530.642 305.313L530.68 305.289L530.715 305.262C531.191 304.891 531.741 304.631 532.229 304.454C531.918 304.889 531.592 305.51 531.145 306.374C530.76 307.119 530.362 307.888 529.962 308.5C529.185 309.687 528.308 313.339 527.244 317.993C526.994 319.085 526.757 320.117 526.571 320.863C525.821 323.863 524.031 325.589 523.03 326.35C521.765 327.311 521.664 328.24 521.59 328.919C521.569 329.109 521.551 329.274 521.508 329.412C521.155 330.538 519.971 333.088 519.059 333.745C517.471 334.889 517.16 337.471 516.932 339.356L516.911 339.529C516.846 340.068 516.99 340.554 517.327 340.935C517.781 341.448 518.534 341.707 519.566 341.707C520.591 341.707 522.049 341.415 522.715 340.925C523.209 340.564 523.342 340.138 523.366 339.846C523.423 339.15 522.942 338.661 522.625 338.339C522.563 338.276 522.473 338.184 522.435 338.137C522.221 337.638 522.03 336.808 522.358 336.48C523.037 335.802 524.304 333.811 526.347 330.216C527.349 328.448 529.021 326.246 530.934 324.171C532.348 322.639 535.509 319.015 537.018 317.278C537.188 317.507 537.394 317.771 537.641 318.071C537.827 318.297 537.831 318.301 537.554 318.884C537.324 319.37 537.009 320.034 537.009 320.938C537.009 321.924 535.435 323.201 534.393 324.046C534.191 324.209 533.999 324.365 533.824 324.512C532.471 325.648 532.472 327.428 533.825 329.272C533.997 329.507 534.167 330.014 534.365 330.6C534.654 331.457 535.014 332.524 535.676 333.728C536.948 336.042 538.903 337.12 539.823 337.12C540.602 337.12 542.741 336.625 542.741 335.033C542.741 333.527 541.195 333.198 540.492 333.077C540.27 332.9 539.838 332.294 539.6 331.959C539.297 331.532 539.055 331.193 538.813 330.972C538.764 330.886 538.673 330.592 538.748 329.612C538.754 329.527 538.791 329.466 539.008 329.177C539.215 328.903 539.499 328.526 539.79 327.943C540.104 327.316 540.778 326.658 541.559 325.894C541.967 325.495 542.43 325.043 542.901 324.538L543.267 324.145C544.682 322.63 546.621 320.554 547.527 319.042C548.133 318.035 548.302 316.903 548.329 316.074C549.99 316.262 552.597 316.699 553.883 317.496C554.678 317.988 555.215 318.37 555.646 318.676C556.419 319.226 556.93 319.59 557.717 319.59C557.961 319.59 558.308 319.976 558.456 320.14C558.459 320.144 558.462 320.147 558.465 320.15C558.788 321.14 560.02 326.707 560.159 328C560.211 328.489 560.314 329.14 560.423 329.828C560.64 331.195 560.909 332.896 560.847 333.773C560.771 334.834 560.981 335.547 561.167 336.178C561.272 336.533 561.371 336.869 561.422 337.275C561.541 338.228 562.093 338.81 562.496 339.235C562.625 339.371 562.865 339.624 562.865 339.695C562.865 340.652 563.216 342.358 565.57 343.041C565.915 343.141 566.27 343.192 566.624 343.192C568.108 343.192 569.363 342.302 569.987 341.54C570.272 341.193 570.355 340.762 570.218 340.356C569.979 339.654 569.19 339.211 567.41 338.787C567.233 338.637 566.791 338.015 566.074 335.45C565.862 334.691 565.694 331.016 565.616 328.308C566.236 328.265 566.68 327.79 567.284 327.144C567.72 326.677 568.264 326.096 568.905 325.661C570.988 324.247 571.122 321.717 571.083 320.695C571.033 319.405 569.556 316.595 568.884 315.381C570.249 312.829 571.914 310.019 572.409 309.627C573.567 308.774 573.329 306.882 573.137 305.363C573.098 305.048 573.048 304.661 573.05 304.499C573.294 303.52 576.01 299.22 576.89 298.838C577.013 298.804 577.207 298.784 577.448 298.784C578.127 298.784 579.003 298.95 579.776 299.096C580.423 299.218 580.982 299.325 581.441 299.345C581.467 299.346 581.495 299.347 581.523 299.347C583.198 299.347 585.333 296.772 585.333 295.548C585.333 295.239 585.419 294.957 585.598 294.4C585.679 294.15 585.77 293.866 585.867 293.53C585.997 293.073 586.386 291.713 581.752 289.74C581.511 288.656 580.778 286.403 578.792 285.829C578.309 285.689 577.727 285.618 577.06 285.618ZM577.06 286.567C577.611 286.567 578.115 286.62 578.529 286.74C580.498 287.31 580.913 290.418 580.913 290.418C580.913 290.418 585.265 292.181 584.955 293.269C584.644 294.356 584.384 294.875 584.384 295.548C584.384 296.214 582.663 298.398 581.523 298.398C581.509 298.398 581.497 298.398 581.483 298.398C580.557 298.356 578.778 297.836 577.448 297.836C577.14 297.836 576.856 297.864 576.612 297.932C575.317 298.295 572.156 303.581 572.104 304.408C572.052 305.238 572.829 308.139 571.844 308.865C570.861 309.59 567.803 315.393 567.803 315.393C567.803 315.393 570.083 319.384 570.135 320.731C570.187 322.079 569.824 323.892 568.373 324.876C566.923 325.86 566.041 327.363 565.523 327.363C565.005 327.363 564.643 327.312 564.643 327.312C564.643 327.312 564.798 334.411 565.161 335.705C565.523 337.002 566.248 339.488 567.129 339.695C568.01 339.903 569.721 340.369 569.254 340.939C568.866 341.413 567.871 342.244 566.624 342.244C566.371 342.244 566.106 342.21 565.835 342.131C564.228 341.664 563.814 340.628 563.814 339.695C563.814 338.763 562.518 338.4 562.363 337.157C562.208 335.913 561.689 335.291 561.792 333.84C561.896 332.39 561.257 329.35 561.102 327.899C560.946 326.448 559.478 319.832 559.271 319.625C559.063 319.419 558.494 318.641 557.717 318.641C556.94 318.641 556.56 318.036 554.383 316.689C552.206 315.342 547.337 315.031 547.337 315.031C547.337 315.031 547.647 317.001 546.714 318.555C545.781 320.11 543.606 322.389 542.206 323.892C540.807 325.394 539.512 326.379 538.942 327.519C538.371 328.659 537.854 328.866 537.802 329.54C537.751 330.213 537.699 331.25 538.165 331.664C538.632 332.078 539.615 333.892 540.237 333.996C540.86 334.099 541.792 334.256 541.792 335.033C541.792 335.81 540.341 336.171 539.823 336.171C539.304 336.171 537.646 335.343 536.507 333.271C535.367 331.198 535.159 329.488 534.589 328.711C534.02 327.934 533.138 326.327 534.434 325.239C535.729 324.15 537.957 322.596 537.957 320.938C537.957 319.279 539.355 318.659 538.371 317.467C537.388 316.275 537.128 315.705 537.128 315.705C537.128 315.705 532.102 321.508 530.237 323.529C528.372 325.55 526.61 327.829 525.522 329.747C524.434 331.664 522.516 334.981 521.688 335.81C520.858 336.639 521.376 338.089 521.583 338.555C521.791 339.022 522.932 339.592 522.153 340.161C521.756 340.453 520.587 340.759 519.566 340.759C518.591 340.759 517.752 340.479 517.853 339.643C518.06 337.933 518.319 335.447 519.614 334.515C520.91 333.581 522.153 330.525 522.413 329.695C522.671 328.866 522.309 328.089 523.605 327.105C524.9 326.119 526.714 324.203 527.491 321.093C528.268 317.985 529.771 310.523 530.755 309.02C531.74 307.518 532.672 305.187 533.294 304.668C533.859 304.197 533.911 303.13 533.528 303.13C533.489 303.13 533.445 303.141 533.397 303.165C533.397 303.165 531.532 303.425 530.133 304.513C530.133 304.513 529.745 304.759 529.422 304.759C529.191 304.759 528.993 304.633 528.993 304.201C528.993 303.165 532.517 301.507 533.812 301.144C535.107 300.781 536.558 300.522 538.32 299.434C540.082 298.347 544.279 296.688 551.896 296.481C559.513 296.273 562.984 295.341 564.487 294.305C565.99 293.269 569.461 289.176 571.015 288.138C572.243 287.32 574.989 286.567 577.06 286.567Z" fill="#3A3B38"/>
<path d="M575.964 296.704C576.353 297.636 578.064 297.066 578.244 297.066C578.425 297.066 581.172 297.921 581.923 297.481C582.436 297.18 583.071 296.208 583.348 295.711C583.477 295.479 583.872 295.736 583.872 295.736C583.872 295.736 584.406 296.665 583.24 297.87" stroke="#3A3B38"/>
<path fill-rule="evenodd" clip-rule="evenodd" d="M576.353 290.523L577.493 289.641L578.581 290.523C578.581 290.523 578.141 290.212 577.934 290.315C577.493 290.535 576.898 290.601 576.353 290.523Z" fill="#FFFFFE"/>
<path fill-rule="evenodd" clip-rule="evenodd" d="M576.353 290.523L577.493 289.641L578.581 290.523C578.581 290.523 578.141 290.212 577.934 290.315C577.493 290.535 576.898 290.601 576.353 290.523Z" stroke="#3A3B38"/>
<path fill-rule="evenodd" clip-rule="evenodd" d="M574.902 288.242C574.902 288.242 574.15 288.76 574.15 289.46C574.15 290.16 574.644 292.491 574.747 293.605C574.851 294.719 574.824 298.19 574.281 298.269C573.736 298.347 571.378 297.932 570.653 296.818C569.929 295.704 568.244 293.139 567.881 293.113" fill="#FFFFFE"/>
<path fill-rule="evenodd" clip-rule="evenodd" d="M574.902 288.242C574.902 288.242 574.15 288.76 574.15 289.46C574.15 290.16 574.643 292.491 574.746 293.605C574.851 294.719 574.824 298.19 574.281 298.269C573.736 298.347 571.378 297.932 570.653 296.818C569.929 295.704 568.244 293.139 567.881 293.113L574.902 288.242ZM565.316 318.71C565.316 318.71 568.166 319.85 567.959 321.094C567.752 322.338 566.974 323.788 566.716 323.892C566.456 323.995 564.694 324.565 564.694 324.565C564.694 324.565 563.866 318.97 565.316 318.71ZM567.906 315.135C567.906 315.135 567.027 316.119 566.508 316.896C565.99 317.674 565.161 318.348 564.849 319.176L567.906 315.135ZM564.643 324.048C564.643 324.048 564.643 326.665 564.643 327.57V324.048ZM537.295 316.213C537.295 316.213 539.366 313.626 540.298 313.262C541.231 312.9 541.795 312.72 543.038 313.368C544.281 314.015 547.06 315.371 548.096 315.528L537.295 316.213ZM540.099 310.904C540.099 310.904 541.48 310.005 542.586 310.835C543.691 311.664 549.011 314.012 550.946 314.081C552.88 314.151 555.989 315.463 556.818 315.739L540.099 310.904ZM564.003 297.5C564.003 297.5 566.904 298.882 567.595 300.195C568.286 301.507 569.738 305.929 569.668 306.758L564.003 297.5Z" stroke="#3A3B38"/>
<path fill-rule="evenodd" clip-rule="evenodd" d="M584.63 293.216C584.63 293.216 584.319 293.243 584.022 293.359C583.724 293.476 583.671 293.748 583.569 293.748C583.464 293.748 583.05 293.424 583.05 293.424C583.05 293.424 583.348 294.447 583.607 294.292C583.867 294.136 584.125 293.787 584.164 293.787C584.203 293.787 585.161 292.97 584.63 293.216Z" fill="#FFFFFE"/>
<path d="M104.916 305.427H1.41724V346.612H104.916V305.427Z" fill="white"/>
<path fill-rule="evenodd" clip-rule="evenodd" d="M105.677 313.714H118.978L130.968 331.387V347.225H105.677V313.714Z" fill="white"/>
<path d="M116.956 353.763C120.483 353.763 123.341 350.904 123.341 347.378C123.341 343.851 120.483 340.993 116.956 340.993C113.43 340.993 110.571 343.851 110.571 347.378C110.571 350.904 113.43 353.763 116.956 353.763Z" fill="white"/>
<path d="M18.0881 353.813C21.6144 353.813 24.473 350.954 24.473 347.428C24.473 343.902 21.6144 341.043 18.0881 341.043C14.5618 341.043 11.7031 343.902 11.7031 347.428C11.7031 350.954 14.5618 353.813 18.0881 353.813Z" fill="white"/>
<path d="M105.118 303.616L105.202 303.62C105.618 303.66 105.95 303.996 105.98 304.418L105.982 304.497L105.982 312.983L119.837 312.983L119.926 312.987C120.162 313.012 120.38 313.133 120.525 313.324L120.574 313.394L132.606 332.112L132.648 332.185C132.7 332.286 132.731 332.396 132.74 332.509L132.744 332.599V347.298L132.739 347.383C132.699 347.799 132.364 348.13 131.942 348.16L131.863 348.163L124.677 348.162L124.61 348.558L124.576 348.744C123.894 352.258 120.794 354.853 117.161 354.853C113.464 354.853 110.319 352.166 109.711 348.558L109.645 348.162H25.868L25.8014 348.558L25.7677 348.744C25.0852 352.258 21.985 354.853 18.352 354.853C14.6553 354.853 11.5101 352.166 10.9026 348.558L10.836 348.162L0.956884 348.162L0.872715 348.158C0.457112 348.118 0.125019 347.783 0.0952527 347.361L0.0927734 347.282V304.48L0.0971299 304.396C0.137459 303.981 0.473264 303.648 0.894791 303.618L0.973563 303.616H105.118ZM117.161 341.472C113.947 341.472 111.334 344.085 111.334 347.298C111.334 350.512 113.947 353.125 117.161 353.125C120.374 353.125 122.987 350.512 122.987 347.298C122.987 344.085 120.374 341.472 117.161 341.472ZM18.352 341.472C15.1383 341.472 12.5255 344.085 12.5255 347.298C12.5255 350.512 15.1383 353.125 18.352 353.125C21.5656 353.125 24.1785 350.512 24.1785 347.298C24.1785 344.085 21.5656 341.472 18.352 341.472ZM19.2366 346.434V348.162H17.5086V346.434H19.2366ZM118.024 346.434V348.162H116.297V346.434H118.024ZM119.365 314.71H105.982V346.435L109.645 346.434L109.711 346.039L109.745 345.853C110.428 342.339 113.528 339.744 117.161 339.744C120.857 339.744 124.002 342.431 124.61 346.039L124.677 346.435H131.016V342.81L127.001 342.81V341.082L131.016 341.082V332.834L130.547 332.105L110.47 332.105L110.386 332.101C109.97 332.061 109.638 331.726 109.609 331.304L109.606 331.225L109.606 319.199L109.611 319.114C109.651 318.699 109.986 318.367 110.408 318.337L110.487 318.335L121.695 318.335L119.365 314.71ZM104.254 305.344H1.82085V346.434L10.8361 346.434L10.9027 346.039L10.9364 345.853C11.6191 342.339 14.7192 339.744 18.352 339.744C22.0484 339.744 25.1935 342.431 25.8013 346.039L25.8679 346.434L104.254 346.434V342.81L28.1922 342.81V341.082L104.254 341.082V310.696L58.7591 310.696V308.968L104.254 308.968V305.344ZM10.0787 341.082V342.81H2.99902V341.082H10.0787ZM122.022 318.844L122.034 320.062L111.334 320.063V330.377L129.436 330.377L122.022 318.844ZM76.5439 298.264V299.991H58.7591V298.264H76.5439ZM55.1343 298.264V299.991H53.4069V298.264H55.1343Z" fill="#797A7C"/>
<path opacity="0.605679" d="M80.9802 333.501L78.5286 330.752L76.0986 333.501H70.9853L75.9828 327.887L70.9853 322.271H76.2582L78.7346 324.999L81.1175 322.271H86.206L81.2334 327.863L86.2751 333.501H80.9802ZM61.1666 333.501V315.809H70.9853V319.753H65.3257V322.271H70.9853V326.065H65.3257V329.548H70.9853V333.501H61.1666Z" fill="#696969"/>
<path d="M36.8756 315.81V319.753H31.1221V322.27H36.3938V324.588C37.4456 322.723 39.4591 321.578 42.01 321.578C45.1502 321.578 47.2684 323.232 48.0899 325.929C48.81 323.481 50.8616 321.629 53.5849 321.629C54.9139 321.629 56.0601 321.996 56.9771 323.05H57.023V315.81H61.1655V333.504H57.0222V332.358H56.9767C56.2202 333.481 54.9826 334.146 53.6309 334.146C50.4972 334.146 48.214 331.619 47.8583 328.688H39.6577C39.6577 329.993 40.7472 331.095 42.0096 331.095C43.0987 331.095 43.5123 330.865 44.0566 330.086H48.0841C47.0298 332.674 45.0344 334.096 42.0092 334.096C38.4102 334.096 35.5913 331.503 35.5913 327.815C35.5896 327.225 35.6617 326.637 35.806 326.065H31.1221V333.502H26.4229V315.81H36.8756ZM54.5086 324.787C52.8586 324.787 52.033 326.313 52.033 327.901C52.033 329.387 52.9819 330.809 54.5086 330.809C56.1805 330.809 56.9026 329.406 56.9026 327.901C56.9026 326.314 56.2206 324.787 54.5086 324.787ZM42.0096 324.259C40.9217 324.259 40.0502 324.994 39.7884 326.118H44.2519C44.0347 324.971 43.2074 324.259 42.0096 324.259Z" fill="#696969"/>
</g>
<g clip-path="url(#clip1_871_1814)">
<path d="M571.234 61.2846L571.305 61.2873C571.568 61.3069 571.799 61.4314 571.959 61.6168C572.121 61.8049 572.21 62.0557 572.187 62.3234V69.5866C572.168 70.0029 572.044 70.2334 571.859 70.3932C571.673 70.553 571.427 70.642 571.163 70.6224C570.9 70.6029 570.669 70.4784 570.51 70.293C570.348 70.1049 570.258 69.8541 570.281 69.5864V62.3231C570.3 61.9069 570.424 61.6763 570.61 61.5165C570.795 61.3568 571.042 61.2678 571.305 61.2873L571.234 61.2846ZM584.117 57.9366C584.344 57.8048 584.602 57.7774 584.837 57.8396C585.072 57.9018 585.283 58.0535 585.415 58.2795L589.036 64.5447C589.169 64.7741 589.196 65.0341 589.134 65.2697C589.071 65.505 588.918 65.7158 588.691 65.8468C588.464 65.9776 588.206 66.0042 587.972 65.9416C587.737 65.879 587.527 65.7271 587.396 65.5011L583.773 59.2348C583.642 59.0082 583.614 58.7495 583.676 58.5146C583.739 58.2796 583.89 58.0684 584.117 57.9366ZM557.624 57.8396C557.859 57.7774 558.117 57.8048 558.344 57.9366C558.571 58.0684 558.723 58.2796 558.785 58.5145C558.847 58.7495 558.819 59.0081 558.687 59.2356L555.066 65.5003C554.934 65.727 554.723 65.8788 554.488 65.9409C554.253 66.0031 553.994 65.9757 553.768 65.8439C553.541 65.7121 553.389 65.5009 553.327 65.266C553.265 65.031 553.292 64.7724 553.425 64.545L557.046 58.2802C557.178 58.0535 557.389 57.9018 557.624 57.8396ZM571.236 17.0044C576.371 17.0051 581.02 19.0873 584.385 22.4533C587.751 25.8193 589.832 30.469 589.831 35.6046C589.83 40.7402 587.748 45.3893 584.382 48.7544C581.016 52.1194 576.366 54.2004 571.23 54.1997C566.299 54.206 561.568 52.2466 558.085 48.7548C554.595 45.2662 552.635 40.5338 552.635 35.5994C552.636 30.4638 554.719 25.8147 558.085 22.4497C561.451 19.0846 566.1 17.0037 571.236 17.0044ZM571.168 18.9315L570.967 18.9335C566.871 18.9978 562.795 20.5603 559.63 23.6208L559.436 23.7909L559.292 23.9361C556.241 27.0494 554.532 31.2384 554.539 35.6025C554.533 40.036 556.292 44.2906 559.428 47.4263C562.687 50.6855 566.959 52.3152 571.23 52.3152C575.502 52.3152 579.774 50.6855 583.033 47.4263C586.293 44.167 587.923 39.8951 587.923 35.6233C587.923 31.3515 586.293 27.0796 583.033 23.8203C579.809 20.5964 575.595 18.9669 571.369 18.932L571.168 18.9315ZM571.405 24.4886C571.665 24.5099 571.892 24.6338 572.051 24.8174C572.21 25.0028 572.3 25.2492 572.28 25.5126C572.261 25.7671 572.144 25.991 571.969 26.1499C571.81 26.2944 571.603 26.3854 571.377 26.397L571.309 26.3981L571.239 26.3947H571.216C568.676 26.3967 566.376 27.4283 564.713 29.0946C563.049 30.7608 562.021 33.0617 562.023 35.602C562.023 35.8651 561.917 36.1035 561.745 36.2765C561.573 36.4494 561.335 36.557 561.074 36.5584C560.81 36.5584 560.571 36.4514 560.398 36.2783C560.225 36.1053 560.118 35.8662 560.118 35.602C560.118 32.5332 561.361 29.7549 563.373 27.7439C565.347 25.769 568.062 24.534 571.065 24.4902L571.239 24.489L571.405 24.4886ZM594.143 48.055C594.378 47.9929 594.637 48.0203 594.864 48.1525L601.129 51.7739C601.356 51.9057 601.507 52.1169 601.57 52.3518C601.632 52.5867 601.604 52.8454 601.473 53.0721C601.341 53.2987 601.13 53.4505 600.895 53.5127C600.66 53.5748 600.401 53.5474 600.174 53.4152L593.909 49.7938C593.682 49.662 593.53 49.4508 593.468 49.2159C593.406 48.981 593.433 48.7223 593.565 48.4956C593.697 48.269 593.908 48.1172 594.143 48.055ZM547.598 48.145C547.825 48.0132 548.083 47.9858 548.318 48.048C548.553 48.1101 548.764 48.2619 548.896 48.4885C549.028 48.7152 549.055 48.9738 548.993 49.2087C548.931 49.4437 548.779 49.6549 548.553 49.7863L542.287 53.4085C542.06 53.5403 541.802 53.5678 541.567 53.5056C541.332 53.4434 541.121 53.2916 540.989 53.065C540.857 52.8383 540.83 52.5797 540.892 52.3447C540.954 52.1098 541.106 51.8986 541.332 51.7672L547.598 48.145ZM544.509 34.6527C544.926 34.6713 545.156 34.7957 545.316 34.9811C545.476 35.1666 545.565 35.413 545.545 35.6764C545.526 35.9398 545.401 36.1703 545.216 36.3301C545.028 36.4922 544.777 36.5815 544.509 36.5584H537.273C537.041 36.5385 536.833 36.4366 536.679 36.2819C536.521 36.1245 536.419 35.9125 536.401 35.6764C536.382 35.413 536.471 35.1667 536.63 34.9813C536.788 34.7985 537.014 34.675 537.273 34.6527H544.509ZM597.885 34.642L597.952 34.6455H605.188C605.42 34.6654 605.628 34.7673 605.783 34.922C605.94 35.0794 606.042 35.2913 606.06 35.5275C606.08 35.7909 605.991 36.0373 605.831 36.2227C605.673 36.4055 605.447 36.529 605.189 36.5512H597.952C597.536 36.5325 597.305 36.4081 597.145 36.2226C596.985 36.0373 596.896 35.7909 596.916 35.5275C596.936 35.2641 597.06 35.0335 597.245 34.8737C597.433 34.7117 597.684 34.6224 597.952 34.6455L597.885 34.642ZM600.174 17.7955C600.401 17.6637 600.66 17.6363 600.895 17.6985C601.13 17.7607 601.341 17.9124 601.473 18.1391C601.604 18.3657 601.632 18.6243 601.57 18.8593C601.507 19.0942 601.356 19.3054 601.13 19.4368L594.863 23.0591C594.637 23.1909 594.378 23.2183 594.143 23.1561C593.908 23.0939 593.697 22.9422 593.565 22.7155C593.433 22.4889 593.406 22.2302 593.468 21.9952C593.53 21.7603 593.682 21.5491 593.908 21.4178L600.174 17.7955ZM541.567 17.6985C541.802 17.6363 542.06 17.6637 542.288 17.7959L548.553 21.4173C548.779 21.5491 548.931 21.7603 548.993 21.9952C549.055 22.2301 549.028 22.4888 548.896 22.7155C548.764 22.9422 548.553 23.0939 548.318 23.1561C548.083 23.2183 547.825 23.1909 547.597 23.0586L541.332 19.4373C541.106 19.3055 540.954 19.0943 540.892 18.8593C540.83 18.6244 540.857 18.3657 540.989 18.1391C541.121 17.9124 541.332 17.7607 541.567 17.6985ZM588.016 5.26313C588.251 5.20096 588.509 5.22839 588.736 5.36018C588.963 5.49196 589.115 5.70314 589.177 5.93805C589.239 6.17299 589.211 6.43166 589.079 6.65909L585.458 12.9235C585.323 13.1546 585.112 13.3071 584.876 13.3691C584.642 13.431 584.383 13.4032 584.157 13.2716C583.929 13.1377 583.777 12.9257 583.716 12.6902C583.654 12.455 583.683 12.1965 583.817 11.9685L587.438 5.70372C587.57 5.47707 587.781 5.32531 588.016 5.26313ZM553.768 5.36018C553.994 5.22839 554.253 5.20096 554.488 5.26313C554.723 5.32531 554.934 5.47707 555.065 5.70275L558.681 11.9692C558.812 12.1959 558.84 12.4545 558.778 12.6894C558.715 12.9244 558.564 13.1356 558.337 13.2674C558.11 13.3992 557.852 13.4266 557.617 13.3645C557.382 13.3023 557.171 13.1505 557.039 12.9249L553.424 6.65836C553.292 6.4317 553.265 6.17304 553.327 5.93809C553.389 5.70317 553.541 5.49196 553.768 5.36018ZM571.234 0.578613L571.305 0.581287C571.568 0.600862 571.799 0.72535 571.959 0.910784C572.121 1.09892 572.21 1.34978 572.187 1.61751V8.86001C572.187 9.12414 572.08 9.36325 571.907 9.53632C571.734 9.70939 571.495 9.81642 571.233 9.81642C570.97 9.81498 570.733 9.70819 570.561 9.53627C570.39 9.36435 570.283 9.12729 570.281 8.8671V1.6171C570.3 1.20085 570.424 0.970296 570.61 0.810502C570.795 0.650735 571.042 0.561715 571.305 0.581287L571.234 0.578613Z" fill="#919395"/>
</g>
<defs>
<clipPath id="clip0_871_1814">
<rect width="760" height="196.007" fill="white" transform="translate(0 159.047)"/>
</clipPath>
<clipPath id="clip1_871_1814">
<rect width="70.7136" height="71.0472" fill="white" transform="translate(535.911)"/>
</clipPath>
</defs>
</svg>
