<svg width="909" height="371" viewBox="0 0 909 371" fill="none" xmlns="http://www.w3.org/2000/svg">
<g clip-path="url(#clip0_562_2139)">
<path fill-rule="evenodd" clip-rule="evenodd" d="M703.558 280.53C722.944 280.704 731.464 280.168 731.464 280.168V259.521C731.464 259.521 730.739 254.999 733.811 252.639C736.883 250.277 739.056 245.581 746.3 245.581C753.545 245.581 796.838 245.581 796.838 245.581L821.296 235.064L814.587 113.545H719.148C719.148 113.545 692.691 114.456 684.374 149.405C676.029 184.352 653.035 261.869 653.035 261.869C653.035 261.869 684.186 280.355 703.558 280.53ZM612.466 199.999H614.393L614.523 90.6071C614.523 90.6071 619.348 90.2449 627.433 90.2449C635.532 90.2449 636.126 95.5493 636.126 95.5493C636.126 95.5493 636.372 115.834 636.372 120.789C636.372 125.743 629.012 126.585 629.012 126.585V261.448H635.402C639.632 261.448 640.965 264.113 640.965 264.113H645.182C645.182 264.113 676.217 153.143 684.548 130.814C692.879 108.473 719.568 106.778 719.568 106.778L827.874 106.907V113.661H824.121L835.596 234.644C835.596 234.644 864.69 234.644 875.919 234.644C887.148 234.644 888.843 246.843 892.712 260.608C896.566 274.373 905.259 273.402 905.259 273.402V293.091H899.464C906.346 295.989 907.591 304.799 907.591 304.799V340.211L895.001 347.18H882.497L810.723 347.361C810.723 347.361 811.024 350.038 809.762 349.96C807.705 349.836 808.067 347.296 808.067 347.296H698.921C698.921 347.296 698.791 350.078 697.472 350.078C696.139 350.078 695.893 347.296 695.893 347.296L668.61 346.7L645.312 289.224L648.934 276.791L628.766 276.3L628.882 293.324L616.204 301.293L614.91 291.759L612.828 291.642C612.828 296.468 608.597 296.468 608.597 296.468L608.119 195.045C611.834 195.316 612.423 197.966 612.484 199.275C612.503 199.712 612.466 199.999 612.466 199.999Z" fill="#FFFFFE"/>
<path fill-rule="evenodd" clip-rule="evenodd" d="M703.558 280.53C722.944 280.704 731.464 280.168 731.464 280.168V259.521C731.464 259.521 730.739 254.999 733.811 252.639C736.883 250.277 739.056 245.581 746.3 245.581C753.545 245.581 796.838 245.581 796.838 245.581L821.296 235.064L814.587 113.545H719.148C719.148 113.545 692.691 114.456 684.374 149.405C676.029 184.352 653.035 261.869 653.035 261.869C653.035 261.869 684.186 280.355 703.558 280.53ZM612.466 199.999H614.393L614.523 90.6071C614.523 90.6071 619.348 90.2449 627.433 90.2449C635.532 90.2449 636.126 95.5493 636.126 95.5493C636.126 95.5493 636.372 115.834 636.372 120.789C636.372 125.743 629.012 126.585 629.012 126.585V261.448H635.402C639.632 261.448 640.965 264.113 640.965 264.113H645.182C645.182 264.113 676.217 153.143 684.548 130.814C692.879 108.473 719.568 106.778 719.568 106.778L827.874 106.907V113.661H824.121L835.596 234.644C835.596 234.644 864.69 234.644 875.919 234.644C887.148 234.644 888.843 246.843 892.712 260.608C896.566 274.373 905.259 273.402 905.259 273.402V293.091H899.464C906.346 295.989 907.591 304.799 907.591 304.799V340.211L895.001 347.18H882.497L810.723 347.361C810.723 347.361 811.024 350.038 809.762 349.96C807.705 349.836 808.067 347.296 808.067 347.296H698.921C698.921 347.296 698.791 350.078 697.472 350.078C696.139 350.078 695.893 347.296 695.893 347.296L668.61 346.7L645.312 289.224L648.934 276.791L628.766 276.3L628.882 293.324L616.204 301.293L614.91 291.759L612.828 291.642C612.828 296.468 608.597 296.468 608.597 296.468L608.119 195.045C611.834 195.316 612.423 197.966 612.484 199.275C612.503 199.712 612.466 199.999 612.466 199.999Z" stroke="#3A3B38"/>
<path fill-rule="evenodd" clip-rule="evenodd" d="M835.505 234.618L836.321 257.71H808.98L731.637 315.129H697.859" fill="#FFFFFE"/>
<path d="M900.343 293.117L864.151 293.147M835.505 234.618L836.321 257.71H808.98L731.638 315.129H697.859L835.505 234.618Z" stroke="#3A3B38"/>
<path fill-rule="evenodd" clip-rule="evenodd" d="M813.093 273.376C813.093 268.775 816.823 265.045 821.424 265.045C826.026 265.045 829.756 268.775 829.756 273.376C829.756 277.976 826.026 281.707 821.424 281.707C816.823 281.707 813.093 277.976 813.093 273.376Z" fill="#FFFFFE"/>
<path fill-rule="evenodd" clip-rule="evenodd" d="M813.093 273.376C813.093 268.775 816.823 265.045 821.424 265.045C826.026 265.045 829.756 268.775 829.756 273.376C829.756 277.976 826.026 281.707 821.424 281.707C816.823 281.707 813.093 277.976 813.093 273.376Z" stroke="#3A3B38"/>
<path d="M809.878 257.59L820.623 235.735" stroke="#3A3B38"/>
<path fill-rule="evenodd" clip-rule="evenodd" d="M812.776 252.035H760.494C760.494 252.035 757.718 251.432 754.458 254.692C751.198 257.952 751.076 258.677 751.076 258.677C751.076 258.677 749.749 260.368 749.749 264.834C749.749 269.301 749.749 280.168 749.749 280.168H731.464" fill="#FFFFFE"/>
<path d="M812.776 252.035H760.494C760.494 252.035 757.718 251.432 754.458 254.692C751.198 257.952 751.076 258.677 751.076 258.677C751.076 258.677 749.749 260.368 749.749 264.834C749.749 269.301 749.749 280.168 749.749 280.168H731.464" stroke="#3A3B38"/>
<path fill-rule="evenodd" clip-rule="evenodd" d="M773.052 284.153H726.807C726.807 284.153 724.151 282.583 721.978 288.741C719.804 294.899 719.08 299.246 719.08 299.246C719.08 299.246 718.597 302.628 718.597 305.404C718.597 308.18 718.96 315.062 718.96 315.062" fill="#FFFFFE"/>
<path d="M770.033 286.446H739.847L736.829 299.728L736.467 311.924M773.052 284.153H726.807C726.807 284.153 724.151 282.583 721.978 288.741C719.804 294.899 719.08 299.246 719.08 299.246C719.08 299.246 718.597 302.628 718.597 305.404C718.597 308.18 718.96 315.062 718.96 315.062L773.052 284.153Z" stroke="#3A3B38"/>
<path fill-rule="evenodd" clip-rule="evenodd" d="M820.499 339.094C820.6 339.675 820.209 340.225 819.644 340.325C819.513 340.356 819.369 340.341 819.238 340.325C819.398 341.616 819.616 342.891 819.919 344.137C819.979 344.094 820.05 344.063 820.122 344.036C820.657 343.833 821.265 344.121 821.469 344.657C821.674 345.208 821.381 345.816 820.833 346.021C820.703 346.064 820.571 346.093 820.455 346.079C820.833 347.323 821.281 348.542 821.803 349.715C821.846 349.657 821.89 349.628 821.948 349.598C822.455 349.295 823.107 349.482 823.396 349.975C823.685 350.483 823.512 351.135 823.007 351.424C822.904 351.498 822.773 351.54 822.658 351.554C823.239 352.715 823.889 353.816 824.614 354.888C824.641 354.845 824.687 354.8 824.729 354.758C825.18 354.366 825.845 354.437 826.22 354.872C826.599 355.323 826.526 355.989 826.09 356.364C825.99 356.453 825.889 356.511 825.787 356.553C826.555 357.581 827.381 358.552 828.263 359.481C828.279 359.438 828.323 359.393 828.352 359.351C828.728 358.9 829.396 358.842 829.843 359.204C830.293 359.581 830.351 360.263 829.974 360.698C829.902 360.784 829.815 360.857 829.712 360.915C830.641 361.798 831.641 362.625 832.669 363.377C832.669 363.319 832.698 363.277 832.727 363.234C833.019 362.727 833.669 362.567 834.162 362.857C834.667 363.145 834.843 363.784 834.552 364.29C834.495 364.391 834.437 364.48 834.352 364.538C835.408 365.246 836.525 365.885 837.668 366.449C837.681 366.405 837.697 366.363 837.712 366.32C837.9 365.769 838.509 365.478 839.061 365.681C839.61 365.885 839.885 366.494 839.697 367.044C839.653 367.146 839.61 367.231 839.552 367.32C840.709 367.812 841.899 368.247 843.131 368.609C843.131 368.564 843.131 368.522 843.145 368.479C843.245 367.898 843.797 367.522 844.362 367.624C844.942 367.724 845.334 368.274 845.231 368.855C845.218 368.957 845.188 369.042 845.13 369.131C846.347 369.419 847.608 369.638 848.883 369.767V369.665C848.883 369.087 849.346 368.609 849.94 368.609C850.52 368.609 850.984 369.087 850.984 369.665C850.984 369.767 850.968 369.87 850.94 369.955C851.534 369.986 852.128 370 852.737 370C853.418 370 854.099 369.986 854.765 369.942C854.752 369.913 854.736 369.87 854.736 369.839C854.62 369.276 855.011 368.725 855.577 368.609C856.171 368.522 856.707 368.913 856.81 369.477C856.823 369.565 856.823 369.651 856.823 369.739C858.096 369.593 859.345 369.377 860.575 369.087C860.548 369.057 860.548 369.029 860.532 368.999C860.316 368.464 860.604 367.854 861.14 367.638C861.705 367.45 862.312 367.74 862.502 368.274C862.531 368.363 862.559 368.448 862.559 368.537C863.792 368.174 864.978 367.74 866.139 367.231C866.112 367.218 866.096 367.188 866.081 367.16C865.791 366.668 865.965 366.016 866.458 365.711C866.979 365.42 867.617 365.608 867.907 366.101C867.95 366.189 867.992 366.26 868.008 366.349C869.138 365.782 870.239 365.146 871.299 364.436C871.268 364.436 871.252 364.406 871.239 364.391C870.862 363.944 870.92 363.277 871.355 362.899C871.819 362.522 872.485 362.58 872.863 363.031C872.92 363.103 872.963 363.176 872.994 363.247C874.007 362.495 874.977 361.682 875.892 360.799C875.876 360.784 875.845 360.769 875.832 360.756C875.383 360.394 875.325 359.727 875.687 359.277C876.077 358.815 876.745 358.771 877.194 359.146C877.267 359.204 877.325 359.262 877.368 359.335C878.223 358.422 879.049 357.451 879.802 356.422C879.773 356.422 879.759 356.409 879.73 356.395C879.221 356.105 879.049 355.453 879.337 354.946C879.63 354.437 880.28 354.264 880.786 354.553C880.86 354.598 880.932 354.656 880.99 354.714C881.687 353.655 882.323 352.555 882.89 351.424C882.859 351.424 882.83 351.424 882.801 351.409C882.265 351.222 881.976 350.614 882.165 350.063C882.381 349.497 882.99 349.223 883.526 349.424C883.614 349.455 883.7 349.497 883.772 349.555C884.265 348.395 884.701 347.193 885.063 345.963C885.033 345.976 885.004 345.963 884.975 345.963C884.395 345.874 884.018 345.324 884.105 344.746C884.223 344.165 884.77 343.789 885.337 343.891C885.425 343.905 885.511 343.933 885.598 343.978C885.888 342.761 886.119 341.513 886.25 340.24H886.163C885.583 340.24 885.105 339.76 885.105 339.182C885.105 338.588 885.583 338.124 886.163 338.124C886.266 338.124 886.35 338.137 886.438 338.168C886.482 337.529 886.496 336.893 886.496 336.255C886.496 335.616 886.482 334.98 886.438 334.357C886.409 334.372 886.366 334.385 886.337 334.385C885.757 334.487 885.207 334.111 885.105 333.531C885.004 332.95 885.395 332.4 885.96 332.3C886.061 332.284 886.15 332.284 886.25 332.3C886.119 331.023 885.903 329.764 885.598 328.531C885.554 328.561 885.525 328.576 885.482 328.589C884.947 328.792 884.339 328.518 884.134 327.967C883.93 327.401 884.223 326.808 884.77 326.604C884.873 326.576 884.96 326.546 885.063 326.546C884.701 325.301 884.265 324.099 883.758 322.938C883.73 322.982 883.684 323.012 883.656 323.027C883.149 323.331 882.497 323.156 882.207 322.65C881.919 322.141 882.091 321.489 882.597 321.201C882.685 321.143 882.787 321.1 882.89 321.085C882.323 319.941 881.687 318.823 880.976 317.767C880.947 317.811 880.916 317.853 880.874 317.883C880.44 318.26 879.773 318.202 879.383 317.753C879.005 317.302 879.078 316.636 879.527 316.26C879.614 316.188 879.699 316.13 879.802 316.086C879.034 315.058 878.223 314.087 877.34 313.158C877.31 313.202 877.281 313.232 877.252 313.274C876.875 313.738 876.207 313.797 875.761 313.42C875.311 313.044 875.253 312.361 875.629 311.927C875.702 311.825 875.803 311.753 875.905 311.709C874.977 310.827 873.992 310 872.947 309.232C872.934 309.29 872.905 309.333 872.876 309.391C872.585 309.898 871.949 310.072 871.442 309.784C870.92 309.479 870.761 308.827 871.052 308.335C871.109 308.219 871.183 308.131 871.283 308.06C870.212 307.348 869.109 306.696 867.95 306.131C867.936 306.19 867.907 306.248 867.892 306.306C867.704 306.855 867.095 307.147 866.543 306.944C865.994 306.74 865.719 306.131 865.907 305.582C865.951 305.466 866.023 305.363 866.096 305.263C864.922 304.755 863.719 304.307 862.473 303.945C862.473 304.003 862.473 304.075 862.459 304.146C862.359 304.727 861.807 305.104 861.242 305.001C860.662 304.901 860.27 304.35 860.372 303.771C860.401 303.64 860.445 303.524 860.501 303.409C859.271 303.117 857.996 302.886 856.707 302.755C856.721 302.813 856.721 302.886 856.721 302.959C856.736 303.538 856.258 304.017 855.677 304.017C855.084 304.017 854.62 303.538 854.62 302.959C854.62 302.813 854.649 302.684 854.706 302.568C854.055 302.523 853.403 302.509 852.737 302.509C852.085 302.509 851.446 302.523 850.81 302.568C850.839 302.639 850.852 302.712 850.868 302.786C850.984 303.351 850.592 303.9 850.027 304.003C849.433 304.103 848.897 303.726 848.794 303.148C848.767 303.016 848.781 302.871 848.794 302.742C847.492 302.886 846.202 303.117 844.956 303.422C845.014 303.48 845.043 303.552 845.072 303.626C845.288 304.176 845 304.771 844.448 304.986C843.898 305.175 843.291 304.901 843.102 304.35C843.058 304.218 843.029 304.075 843.029 303.93C841.769 304.307 840.551 304.755 839.376 305.263C839.436 305.321 839.479 305.394 839.523 305.466C839.813 305.972 839.639 306.611 839.13 306.9C838.624 307.205 837.987 307.031 837.697 306.524C837.625 306.392 837.581 306.261 837.565 306.118C836.393 306.696 835.276 307.348 834.189 308.073C834.263 308.117 834.305 308.175 834.365 308.233C834.741 308.681 834.683 309.348 834.236 309.726C833.785 310.102 833.119 310.045 832.756 309.594C832.656 309.479 832.583 309.348 832.554 309.217C831.51 310 830.511 310.827 829.569 311.725C829.643 311.767 829.712 311.811 829.772 311.869C830.221 312.231 830.279 312.897 829.902 313.348C829.527 313.797 828.859 313.855 828.41 313.478C828.294 313.39 828.207 313.274 828.147 313.144C827.265 314.087 826.425 315.085 825.642 316.144C825.728 316.172 825.802 316.202 825.874 316.246C826.383 316.52 826.555 317.173 826.267 317.679C825.974 318.187 825.324 318.361 824.818 318.071C824.687 317.999 824.585 317.898 824.512 317.782C823.788 318.868 823.136 319.998 822.556 321.171C822.629 321.171 822.714 321.185 822.802 321.216C823.353 321.417 823.628 322.025 823.425 322.576C823.223 323.128 822.614 323.402 822.078 323.201C821.933 323.143 821.817 323.07 821.716 322.969C821.196 324.157 820.759 325.388 820.397 326.649C820.471 326.634 820.557 326.649 820.629 326.662C821.209 326.75 821.585 327.301 821.498 327.879C821.381 328.46 820.833 328.835 820.267 328.734C820.122 328.706 819.992 328.661 819.876 328.589C819.57 329.837 819.354 331.112 819.224 332.4C819.296 332.4 819.369 332.387 819.441 332.387C820.035 332.387 820.499 332.865 820.499 333.443C820.499 334.037 820.021 334.502 819.441 334.502C819.296 334.502 819.166 334.473 819.05 334.415H819.035C819.006 335.024 818.992 335.632 818.992 336.255C818.992 336.935 819.006 337.617 819.064 338.298C819.138 338.268 819.195 338.253 819.267 338.24C819.847 338.137 820.383 338.53 820.499 339.094Z" fill="#FFFFFE"/>
<path fill-rule="evenodd" clip-rule="evenodd" d="M820.499 339.094C820.6 339.675 820.209 340.225 819.644 340.325C819.513 340.356 819.369 340.341 819.238 340.325C819.398 341.616 819.616 342.891 819.919 344.137C819.979 344.094 820.05 344.063 820.122 344.036C820.657 343.833 821.265 344.121 821.469 344.657C821.674 345.208 821.381 345.816 820.833 346.021C820.703 346.064 820.571 346.093 820.455 346.079C820.833 347.323 821.281 348.542 821.803 349.715C821.846 349.657 821.89 349.628 821.948 349.598C822.455 349.295 823.107 349.482 823.396 349.975C823.685 350.483 823.512 351.135 823.007 351.424C822.904 351.498 822.773 351.54 822.658 351.554C823.239 352.715 823.889 353.816 824.614 354.888C824.641 354.845 824.687 354.8 824.729 354.758C825.18 354.366 825.845 354.437 826.22 354.872C826.599 355.323 826.526 355.989 826.09 356.364C825.99 356.453 825.889 356.511 825.787 356.553C826.555 357.581 827.381 358.552 828.263 359.481C828.279 359.438 828.323 359.393 828.352 359.351C828.728 358.9 829.396 358.842 829.843 359.204C830.293 359.581 830.351 360.263 829.974 360.698C829.902 360.784 829.815 360.857 829.712 360.915C830.641 361.798 831.641 362.625 832.669 363.377C832.669 363.319 832.698 363.277 832.727 363.234C833.019 362.727 833.669 362.567 834.162 362.857C834.667 363.145 834.843 363.784 834.552 364.29C834.495 364.391 834.437 364.48 834.352 364.538C835.408 365.246 836.525 365.885 837.668 366.449C837.681 366.405 837.697 366.363 837.712 366.32C837.9 365.769 838.509 365.478 839.061 365.681C839.61 365.885 839.885 366.494 839.697 367.044C839.653 367.146 839.61 367.231 839.552 367.32C840.709 367.812 841.899 368.247 843.131 368.609C843.131 368.564 843.131 368.522 843.145 368.479C843.245 367.898 843.797 367.522 844.362 367.624C844.942 367.724 845.334 368.274 845.231 368.855C845.218 368.957 845.188 369.042 845.13 369.131C846.347 369.419 847.608 369.638 848.883 369.767V369.665C848.883 369.087 849.346 368.609 849.94 368.609C850.52 368.609 850.984 369.087 850.984 369.665C850.984 369.767 850.968 369.87 850.94 369.955C851.534 369.986 852.128 370 852.737 370C853.418 370 854.099 369.986 854.765 369.942C854.752 369.913 854.736 369.87 854.736 369.839C854.62 369.276 855.011 368.725 855.577 368.609C856.171 368.522 856.707 368.913 856.81 369.477C856.823 369.565 856.823 369.651 856.823 369.739C858.096 369.593 859.345 369.377 860.575 369.087C860.548 369.057 860.548 369.029 860.532 368.999C860.316 368.464 860.604 367.854 861.14 367.638C861.705 367.45 862.312 367.74 862.502 368.274C862.531 368.363 862.559 368.448 862.559 368.537C863.792 368.174 864.978 367.74 866.139 367.231C866.112 367.218 866.096 367.188 866.081 367.16C865.791 366.668 865.965 366.016 866.458 365.711C866.979 365.42 867.617 365.608 867.907 366.101C867.95 366.189 867.992 366.26 868.008 366.349C869.138 365.782 870.239 365.146 871.299 364.436C871.268 364.436 871.252 364.406 871.239 364.391C870.862 363.944 870.92 363.277 871.355 362.899C871.819 362.522 872.485 362.58 872.863 363.031C872.92 363.103 872.963 363.176 872.994 363.247C874.007 362.495 874.977 361.682 875.892 360.799C875.876 360.784 875.845 360.769 875.832 360.756C875.383 360.394 875.325 359.727 875.687 359.277C876.077 358.815 876.745 358.771 877.194 359.146C877.267 359.204 877.325 359.262 877.368 359.335C878.223 358.422 879.049 357.451 879.802 356.422C879.773 356.422 879.759 356.409 879.73 356.395C879.221 356.105 879.049 355.453 879.337 354.946C879.63 354.437 880.28 354.264 880.786 354.553C880.86 354.598 880.932 354.656 880.99 354.714C881.687 353.655 882.323 352.555 882.89 351.424C882.859 351.424 882.83 351.424 882.801 351.409C882.265 351.222 881.976 350.614 882.165 350.063C882.381 349.497 882.99 349.223 883.526 349.424C883.614 349.455 883.7 349.497 883.772 349.555C884.265 348.395 884.701 347.193 885.063 345.963C885.033 345.976 885.004 345.963 884.975 345.963C884.395 345.874 884.018 345.324 884.105 344.746C884.223 344.165 884.77 343.789 885.337 343.891C885.425 343.905 885.511 343.933 885.598 343.978C885.888 342.761 886.119 341.513 886.25 340.24H886.163C885.583 340.24 885.105 339.76 885.105 339.182C885.105 338.588 885.583 338.124 886.163 338.124C886.266 338.124 886.35 338.137 886.438 338.168C886.482 337.529 886.496 336.893 886.496 336.255C886.496 335.616 886.482 334.98 886.438 334.357C886.409 334.372 886.366 334.385 886.337 334.385C885.757 334.487 885.207 334.111 885.105 333.531C885.004 332.95 885.395 332.4 885.96 332.3C886.061 332.284 886.15 332.284 886.25 332.3C886.119 331.023 885.903 329.764 885.598 328.531C885.554 328.561 885.525 328.576 885.482 328.589C884.947 328.792 884.339 328.518 884.134 327.967C883.93 327.401 884.223 326.808 884.77 326.604C884.873 326.576 884.96 326.546 885.063 326.546C884.701 325.301 884.265 324.099 883.758 322.938C883.73 322.982 883.684 323.012 883.656 323.027C883.149 323.331 882.497 323.156 882.207 322.65C881.919 322.141 882.091 321.489 882.597 321.201C882.685 321.143 882.787 321.1 882.89 321.085C882.323 319.941 881.687 318.823 880.976 317.767C880.947 317.811 880.916 317.853 880.874 317.883C880.44 318.26 879.773 318.202 879.383 317.753C879.005 317.302 879.078 316.636 879.527 316.26C879.614 316.188 879.699 316.13 879.802 316.086C879.034 315.058 878.223 314.087 877.34 313.158C877.31 313.202 877.281 313.232 877.252 313.274C876.875 313.738 876.207 313.797 875.761 313.42C875.311 313.044 875.253 312.361 875.629 311.927C875.702 311.825 875.803 311.753 875.905 311.709C874.977 310.827 873.992 310 872.947 309.232C872.934 309.29 872.905 309.333 872.876 309.391C872.585 309.898 871.949 310.072 871.442 309.784C870.92 309.479 870.761 308.827 871.052 308.335C871.109 308.219 871.183 308.131 871.283 308.06C870.212 307.348 869.109 306.696 867.95 306.131C867.936 306.19 867.907 306.248 867.892 306.306C867.704 306.855 867.095 307.147 866.543 306.944C865.994 306.74 865.719 306.131 865.907 305.582C865.951 305.466 866.023 305.363 866.096 305.263C864.922 304.755 863.719 304.307 862.473 303.945C862.473 304.003 862.473 304.075 862.459 304.146C862.359 304.727 861.807 305.104 861.242 305.001C860.662 304.901 860.27 304.35 860.372 303.771C860.401 303.64 860.445 303.524 860.501 303.409C859.271 303.117 857.996 302.886 856.707 302.755C856.721 302.813 856.721 302.886 856.721 302.959C856.736 303.538 856.258 304.017 855.677 304.017C855.084 304.017 854.62 303.538 854.62 302.959C854.62 302.813 854.649 302.684 854.706 302.568C854.055 302.523 853.403 302.509 852.737 302.509C852.085 302.509 851.446 302.523 850.81 302.568C850.839 302.639 850.852 302.712 850.868 302.786C850.984 303.351 850.592 303.9 850.027 304.003C849.433 304.103 848.897 303.726 848.794 303.148C848.767 303.016 848.781 302.871 848.794 302.742C847.492 302.886 846.202 303.117 844.956 303.422C845.014 303.48 845.043 303.552 845.072 303.626C845.288 304.176 845 304.771 844.448 304.986C843.898 305.175 843.291 304.901 843.102 304.35C843.058 304.218 843.029 304.075 843.029 303.93C841.769 304.307 840.551 304.755 839.376 305.263C839.436 305.321 839.479 305.394 839.523 305.466C839.813 305.972 839.639 306.611 839.13 306.9C838.624 307.205 837.987 307.031 837.697 306.524C837.625 306.392 837.581 306.261 837.565 306.118C836.393 306.696 835.276 307.348 834.189 308.073C834.263 308.117 834.305 308.175 834.365 308.233C834.741 308.681 834.683 309.348 834.236 309.726C833.785 310.102 833.119 310.045 832.756 309.594C832.656 309.479 832.583 309.348 832.554 309.217C831.51 310 830.511 310.827 829.569 311.725C829.643 311.767 829.712 311.811 829.772 311.869C830.221 312.231 830.279 312.897 829.902 313.348C829.527 313.797 828.859 313.855 828.41 313.478C828.294 313.39 828.207 313.274 828.147 313.144C827.265 314.087 826.425 315.085 825.642 316.144C825.728 316.172 825.802 316.202 825.874 316.246C826.383 316.52 826.555 317.173 826.267 317.679C825.974 318.187 825.324 318.361 824.818 318.071C824.687 317.999 824.585 317.898 824.512 317.782C823.788 318.868 823.136 319.998 822.556 321.171C822.629 321.171 822.714 321.185 822.802 321.216C823.353 321.417 823.628 322.025 823.425 322.576C823.223 323.128 822.614 323.402 822.078 323.201C821.933 323.143 821.817 323.07 821.716 322.969C821.196 324.157 820.759 325.388 820.397 326.649C820.471 326.634 820.557 326.649 820.629 326.662C821.209 326.75 821.585 327.301 821.498 327.879C821.381 328.46 820.833 328.835 820.267 328.734C820.122 328.706 819.992 328.661 819.876 328.589C819.57 329.837 819.354 331.112 819.224 332.4C819.296 332.4 819.369 332.387 819.441 332.387C820.035 332.387 820.499 332.865 820.499 333.443C820.499 334.037 820.021 334.502 819.441 334.502C819.296 334.502 819.166 334.473 819.05 334.415H819.035C819.006 335.024 818.992 335.632 818.992 336.255C818.992 336.935 819.006 337.617 819.064 338.298C819.138 338.268 819.195 338.253 819.267 338.24C819.847 338.137 820.383 338.53 820.499 339.094Z" stroke="#3A3B38"/>
<path fill-rule="evenodd" clip-rule="evenodd" d="M822.555 336.254C822.555 319.583 836.07 306.067 852.743 306.067C869.414 306.067 882.929 319.583 882.929 336.254C882.929 352.923 869.414 366.44 852.743 366.44C836.07 366.44 822.555 352.923 822.555 336.254ZM828.956 336.254C828.956 323.117 839.607 312.469 852.743 312.469C865.878 312.469 876.528 323.117 876.528 336.254C876.528 349.389 865.878 360.04 852.743 360.04C839.607 360.04 828.956 349.389 828.956 336.254Z" stroke="#3A3B38" stroke-width="0.959"/>
<path fill-rule="evenodd" clip-rule="evenodd" d="M832.064 336.254C832.064 324.833 841.321 315.575 852.742 315.575C864.163 315.575 873.42 324.833 873.42 336.254C873.42 347.672 864.163 356.932 852.742 356.932C841.321 356.932 832.064 347.672 832.064 336.254Z" fill="#FFFFFE"/>
<path fill-rule="evenodd" clip-rule="evenodd" d="M832.064 336.254C832.064 324.833 841.321 315.575 852.742 315.575C864.163 315.575 873.42 324.833 873.42 336.254C873.42 347.672 864.163 356.932 852.742 356.932C841.321 356.932 832.064 347.672 832.064 336.254Z" stroke="#3A3B38" stroke-width="0.938"/>
<path fill-rule="evenodd" clip-rule="evenodd" d="M838.435 336.254C838.435 328.351 844.84 321.947 852.743 321.947C860.643 321.947 867.049 328.351 867.049 336.254C867.049 344.156 860.643 350.562 852.743 350.562C844.84 350.562 838.435 344.156 838.435 336.254Z" fill="#FFFFFE"/>
<path fill-rule="evenodd" clip-rule="evenodd" d="M838.435 336.254C838.435 328.351 844.84 321.947 852.743 321.947C860.643 321.947 867.049 328.351 867.049 336.254C867.049 344.156 860.643 350.562 852.743 350.562C844.84 350.562 838.435 344.156 838.435 336.254Z" stroke="#3A3B38" stroke-width="0.938"/>
<path fill-rule="evenodd" clip-rule="evenodd" d="M840.938 336.254C840.938 329.735 846.222 324.452 852.742 324.452C859.26 324.452 864.544 329.735 864.544 336.254C864.544 342.774 859.26 348.056 852.742 348.056C846.222 348.056 840.938 342.774 840.938 336.254Z" fill="#FFFFFE"/>
<path fill-rule="evenodd" clip-rule="evenodd" d="M840.938 336.254C840.938 329.735 846.222 324.452 852.742 324.452C859.26 324.452 864.544 329.735 864.544 336.254C864.544 342.774 859.26 348.056 852.742 348.056C846.222 348.056 840.938 342.774 840.938 336.254Z" stroke="#3A3B38" stroke-width="0.908"/>
<path fill-rule="evenodd" clip-rule="evenodd" d="M847.55 336.255C847.55 333.386 849.872 331.062 852.742 331.062C855.608 331.062 857.935 333.386 857.935 336.255C857.935 339.122 855.608 341.447 852.742 341.447C849.872 341.447 847.55 339.122 847.55 336.255Z" stroke="#D9252A" stroke-width="0.077"/>
<path fill-rule="evenodd" clip-rule="evenodd" d="M847.55 336.255C847.55 333.386 849.872 331.062 852.742 331.062C855.608 331.062 857.935 333.386 857.935 336.255C857.935 339.122 855.608 341.447 852.742 341.447C849.872 341.447 847.55 339.122 847.55 336.255Z" fill="#FFFFFE"/>
<path fill-rule="evenodd" clip-rule="evenodd" d="M847.55 336.255C847.55 333.386 849.872 331.062 852.742 331.062C855.608 331.062 857.935 333.386 857.935 336.255C857.935 339.122 855.608 341.447 852.742 341.447C849.872 341.447 847.55 339.122 847.55 336.255Z" stroke="#3A3B38" stroke-width="0.908"/>
<path fill-rule="evenodd" clip-rule="evenodd" d="M851.704 327.472C851.704 326.827 852.227 326.306 852.87 326.306C853.513 326.306 854.036 326.827 854.036 327.472C854.036 328.117 853.513 328.638 852.87 328.638C852.227 328.638 851.704 328.117 851.704 327.472Z" fill="#FFFFFE"/>
<path fill-rule="evenodd" clip-rule="evenodd" d="M851.704 327.472C851.704 326.827 852.227 326.306 852.87 326.306C853.513 326.306 854.036 326.827 854.036 327.472C854.036 328.117 853.513 328.638 852.87 328.638C852.227 328.638 851.704 328.117 851.704 327.472Z" stroke="#3A3B38" stroke-width="0.938"/>
<path fill-rule="evenodd" clip-rule="evenodd" d="M858.122 329.179C858.569 328.714 859.307 328.702 859.773 329.148C860.233 329.596 860.248 330.333 859.8 330.797C859.351 331.261 858.615 331.272 858.15 330.825C857.688 330.378 857.673 329.642 858.122 329.179Z" fill="#FFFFFE"/>
<path fill-rule="evenodd" clip-rule="evenodd" d="M858.122 329.179C858.569 328.714 859.307 328.702 859.773 329.148C860.233 329.596 860.248 330.333 859.8 330.797C859.351 331.261 858.615 331.272 858.15 330.825C857.688 330.378 857.673 329.642 858.122 329.179Z" stroke="#3A3B38" stroke-width="0.938"/>
<path fill-rule="evenodd" clip-rule="evenodd" d="M861.553 334.864C862.197 334.841 862.737 335.345 862.76 335.989C862.782 336.629 862.281 337.169 861.637 337.194C860.99 337.216 860.454 336.712 860.43 336.07C860.407 335.425 860.91 334.886 861.553 334.864Z" fill="#FFFFFE"/>
<path fill-rule="evenodd" clip-rule="evenodd" d="M861.553 334.864C862.197 334.841 862.737 335.345 862.76 335.989C862.782 336.629 862.281 337.169 861.637 337.194C860.99 337.216 860.454 336.712 860.43 336.07C860.407 335.425 860.91 334.886 861.553 334.864Z" stroke="#3A3B38" stroke-width="0.938"/>
<path fill-rule="evenodd" clip-rule="evenodd" d="M860.072 341.336C860.551 341.768 860.59 342.506 860.159 342.984C859.729 343.461 858.993 343.5 858.513 343.071C858.034 342.638 857.998 341.903 858.427 341.423C858.858 340.945 859.593 340.905 860.072 341.336Z" fill="#FFFFFE"/>
<path fill-rule="evenodd" clip-rule="evenodd" d="M860.072 341.336C860.551 341.768 860.59 342.506 860.159 342.984C859.729 343.461 858.993 343.5 858.513 343.071C858.034 342.638 857.998 341.903 858.427 341.423C858.858 340.945 859.593 340.905 860.072 341.336Z" stroke="#3A3B38" stroke-width="0.908"/>
<path fill-rule="evenodd" clip-rule="evenodd" d="M854.51 344.964C854.554 345.606 854.07 346.164 853.431 346.211C852.787 346.254 852.231 345.771 852.185 345.13C852.141 344.485 852.624 343.93 853.266 343.882C853.909 343.84 854.465 344.321 854.51 344.964Z" fill="#FFFFFE"/>
<path fill-rule="evenodd" clip-rule="evenodd" d="M854.51 344.964C854.554 345.606 854.07 346.164 853.431 346.211C852.787 346.254 852.231 345.771 852.185 345.13C852.141 344.485 852.624 343.93 853.266 343.882C853.909 343.84 854.465 344.321 854.51 344.964Z" stroke="#3A3B38" stroke-width="0.938"/>
<path fill-rule="evenodd" clip-rule="evenodd" d="M847.989 343.71C847.576 344.202 846.84 344.268 846.347 343.856C845.854 343.44 845.789 342.708 846.202 342.213C846.618 341.72 847.35 341.655 847.845 342.068C848.338 342.484 848.404 343.217 847.989 343.71Z" fill="#FFFFFE"/>
<path fill-rule="evenodd" clip-rule="evenodd" d="M847.989 343.71C847.576 344.202 846.84 344.268 846.347 343.856C845.854 343.44 845.789 342.708 846.202 342.213C846.618 341.72 847.35 341.655 847.845 342.068C848.338 342.484 848.404 343.217 847.989 343.71Z" stroke="#3A3B38" stroke-width="0.938"/>
<path fill-rule="evenodd" clip-rule="evenodd" d="M844.169 338.276C843.53 338.344 842.957 337.881 842.887 337.24C842.82 336.601 843.284 336.029 843.924 335.96C844.566 335.893 845.137 336.355 845.207 336.997C845.272 337.639 844.81 338.211 844.169 338.276Z" fill="#FFFFFE"/>
<path fill-rule="evenodd" clip-rule="evenodd" d="M844.169 338.276C843.53 338.344 842.957 337.881 842.887 337.24C842.82 336.601 843.284 336.029 843.924 335.96C844.566 335.893 845.137 336.355 845.207 336.997C845.272 337.639 844.81 338.211 844.169 338.276Z" stroke="#3A3B38" stroke-width="0.938"/>
<path fill-rule="evenodd" clip-rule="evenodd" d="M845.197 331.717C844.688 331.32 844.6 330.587 844.994 330.081C845.391 329.574 846.121 329.484 846.63 329.88C847.138 330.278 847.227 331.006 846.831 331.516C846.433 332.023 845.704 332.114 845.197 331.717Z" fill="#FFFFFE"/>
<path fill-rule="evenodd" clip-rule="evenodd" d="M845.197 331.717C844.688 331.32 844.6 330.587 844.994 330.081C845.391 329.574 846.121 329.484 846.63 329.88C847.138 330.278 847.227 331.006 846.831 331.516C846.433 332.023 845.704 332.114 845.197 331.717Z" stroke="#3A3B38" stroke-width="0.938"/>
<path fill-rule="evenodd" clip-rule="evenodd" d="M602.675 331.682C602.801 332.402 602.316 333.085 601.616 333.21C601.454 333.246 601.274 333.23 601.112 333.21C601.312 334.809 601.581 336.39 601.957 337.936C602.031 337.881 602.117 337.843 602.209 337.81C602.872 337.558 603.626 337.916 603.879 338.581C604.131 339.263 603.771 340.018 603.09 340.27C602.929 340.325 602.765 340.36 602.622 340.342C603.09 341.886 603.646 343.395 604.292 344.85C604.344 344.778 604.401 344.744 604.472 344.707C605.101 344.33 605.909 344.563 606.269 345.173C606.626 345.802 606.412 346.612 605.785 346.97C605.659 347.061 605.496 347.115 605.353 347.131C606.071 348.571 606.88 349.934 607.777 351.264C607.812 351.209 607.868 351.156 607.92 351.103C608.478 350.617 609.303 350.706 609.771 351.244C610.239 351.803 610.149 352.628 609.608 353.096C609.484 353.204 609.358 353.277 609.234 353.329C610.185 354.605 611.209 355.808 612.303 356.958C612.322 356.903 612.376 356.848 612.412 356.796C612.878 356.238 613.706 356.167 614.261 356.617C614.818 357.083 614.891 357.928 614.424 358.468C614.335 358.574 614.226 358.665 614.1 358.736C615.25 359.832 616.488 360.856 617.766 361.791C617.766 361.718 617.802 361.666 617.837 361.611C618.197 360.982 619.004 360.784 619.616 361.143C620.242 361.501 620.461 362.293 620.1 362.921C620.029 363.048 619.956 363.157 619.851 363.228C621.16 364.107 622.544 364.898 623.963 365.597C623.978 365.543 623.999 365.491 624.016 365.436C624.249 364.754 625.003 364.394 625.688 364.645C626.369 364.898 626.711 365.653 626.478 366.334C626.423 366.46 626.369 366.568 626.298 366.678C627.733 367.286 629.208 367.827 630.735 368.274C630.735 368.221 630.735 368.169 630.752 368.114C630.877 367.395 631.562 366.927 632.26 367.053C632.98 367.178 633.466 367.861 633.34 368.58C633.322 368.706 633.285 368.813 633.214 368.922C634.722 369.28 636.284 369.551 637.866 369.712V369.584C637.866 368.867 638.441 368.274 639.179 368.274C639.896 368.274 640.471 368.867 640.471 369.584C640.471 369.712 640.451 369.838 640.416 369.945C641.154 369.983 641.891 370 642.645 370C643.488 370 644.333 369.983 645.16 369.928C645.143 369.891 645.124 369.838 645.124 369.801C644.979 369.1 645.464 368.419 646.165 368.274C646.903 368.169 647.568 368.653 647.693 369.352C647.71 369.46 647.71 369.568 647.71 369.677C649.289 369.496 650.837 369.226 652.362 368.867C652.328 368.831 652.328 368.795 652.309 368.758C652.039 368.096 652.399 367.34 653.064 367.072C653.763 366.838 654.517 367.198 654.753 367.861C654.788 367.97 654.823 368.076 654.823 368.186C656.35 367.737 657.823 367.198 659.261 366.568C659.224 366.552 659.207 366.514 659.188 366.479C658.829 365.868 659.045 365.059 659.655 364.683C660.304 364.323 661.092 364.556 661.453 365.166C661.506 365.275 661.559 365.364 661.577 365.474C662.98 364.771 664.345 363.981 665.656 363.102C665.62 363.102 665.601 363.064 665.582 363.048C665.117 362.492 665.188 361.666 665.727 361.196C666.302 360.73 667.13 360.802 667.598 361.36C667.667 361.449 667.722 361.538 667.758 361.628C669.013 360.695 670.217 359.687 671.352 358.593C671.331 358.574 671.295 358.557 671.278 358.538C670.721 358.09 670.649 357.264 671.098 356.706C671.582 356.131 672.411 356.078 672.967 356.544C673.056 356.617 673.128 356.687 673.182 356.779C674.242 355.646 675.267 354.442 676.2 353.167C676.165 353.167 676.146 353.151 676.11 353.132C675.48 352.773 675.267 351.964 675.625 351.337C675.985 350.706 676.792 350.491 677.421 350.85C677.512 350.905 677.601 350.977 677.673 351.047C678.537 349.736 679.325 348.371 680.028 346.97C679.99 346.97 679.954 346.97 679.919 346.952C679.254 346.719 678.895 345.964 679.129 345.282C679.397 344.58 680.152 344.24 680.817 344.491C680.926 344.527 681.032 344.58 681.123 344.651C681.733 343.216 682.274 341.725 682.721 340.198C682.685 340.216 682.647 340.198 682.613 340.198C681.894 340.089 681.427 339.406 681.536 338.689C681.679 337.971 682.36 337.504 683.063 337.63C683.172 337.647 683.278 337.682 683.385 337.737C683.744 336.229 684.032 334.683 684.193 333.102H684.088C683.369 333.102 682.773 332.51 682.773 331.791C682.773 331.055 683.369 330.48 684.088 330.48C684.214 330.48 684.319 330.497 684.427 330.533C684.482 329.742 684.499 328.953 684.499 328.163C684.499 327.372 684.482 326.582 684.427 325.81C684.393 325.827 684.337 325.845 684.301 325.845C683.583 325.971 682.901 325.506 682.773 324.784C682.647 324.065 683.134 323.385 683.834 323.26C683.961 323.24 684.069 323.24 684.193 323.26C684.032 321.676 683.764 320.116 683.385 318.587C683.333 318.625 683.296 318.642 683.241 318.66C682.579 318.91 681.823 318.57 681.571 317.887C681.317 317.186 681.679 316.452 682.36 316.199C682.486 316.163 682.595 316.127 682.721 316.127C682.274 314.582 681.733 313.092 681.104 311.653C681.069 311.708 681.014 311.744 680.978 311.761C680.351 312.14 679.542 311.924 679.182 311.295C678.824 310.665 679.038 309.858 679.667 309.5C679.774 309.427 679.902 309.372 680.028 309.355C679.325 307.936 678.537 306.553 677.656 305.241C677.62 305.295 677.582 305.347 677.528 305.385C676.991 305.851 676.165 305.779 675.681 305.224C675.213 304.666 675.301 303.839 675.859 303.372C675.966 303.284 676.072 303.211 676.2 303.158C675.249 301.883 674.242 300.679 673.147 299.528C673.109 299.582 673.073 299.618 673.04 299.67C672.572 300.247 671.744 300.319 671.189 299.851C670.632 299.385 670.561 298.54 671.027 298.001C671.116 297.875 671.242 297.787 671.368 297.732C670.217 296.638 668.997 295.613 667.702 294.66C667.685 294.731 667.65 294.786 667.614 294.857C667.253 295.486 666.465 295.702 665.836 295.344C665.188 294.966 664.99 294.159 665.352 293.547C665.421 293.404 665.513 293.295 665.637 293.205C664.309 292.324 662.942 291.517 661.506 290.816C661.489 290.889 661.453 290.961 661.434 291.032C661.201 291.714 660.446 292.074 659.763 291.823C659.082 291.571 658.739 290.816 658.974 290.134C659.027 289.99 659.116 289.864 659.207 289.74C657.752 289.109 656.261 288.554 654.715 288.104C654.715 288.176 654.715 288.265 654.697 288.354C654.573 289.075 653.89 289.541 653.188 289.414C652.47 289.289 651.984 288.608 652.11 287.889C652.148 287.727 652.202 287.584 652.273 287.439C650.745 287.079 649.165 286.793 647.568 286.63C647.584 286.703 647.584 286.793 647.584 286.882C647.601 287.6 647.009 288.194 646.29 288.194C645.555 288.194 644.979 287.6 644.979 286.882C644.979 286.703 645.016 286.54 645.087 286.397C644.279 286.342 643.471 286.326 642.645 286.326C641.835 286.326 641.045 286.342 640.255 286.397C640.29 286.487 640.308 286.575 640.326 286.668C640.471 287.366 639.984 288.05 639.286 288.176C638.549 288.301 637.884 287.834 637.757 287.116C637.723 286.953 637.739 286.774 637.757 286.613C636.142 286.793 634.542 287.079 632.998 287.458C633.07 287.529 633.105 287.618 633.141 287.71C633.409 288.391 633.053 289.128 632.368 289.398C631.688 289.631 630.933 289.289 630.698 288.608C630.646 288.444 630.607 288.265 630.607 288.086C629.045 288.554 627.537 289.109 626.081 289.74C626.155 289.811 626.207 289.9 626.26 289.99C626.621 290.618 626.405 291.409 625.777 291.768C625.148 292.146 624.358 291.93 623.999 291.302C623.909 291.139 623.854 290.977 623.836 290.797C622.382 291.517 620.998 292.324 619.651 293.223C619.74 293.276 619.794 293.349 619.866 293.421C620.334 293.978 620.262 294.804 619.706 295.271C619.148 295.739 618.322 295.667 617.873 295.109C617.748 294.966 617.657 294.803 617.622 294.643C616.327 295.613 615.089 296.638 613.92 297.751C614.011 297.803 614.1 297.858 614.174 297.929C614.729 298.379 614.801 299.205 614.335 299.763C613.868 300.319 613.039 300.392 612.484 299.924C612.339 299.815 612.234 299.67 612.16 299.51C611.064 300.679 610.021 301.916 609.053 303.23C609.161 303.265 609.25 303.301 609.34 303.355C609.969 303.695 610.185 304.504 609.827 305.133C609.465 305.763 608.658 305.977 608.029 305.618C607.868 305.528 607.742 305.404 607.651 305.259C606.752 306.606 605.945 308.007 605.227 309.462C605.315 309.462 605.424 309.479 605.532 309.516C606.215 309.766 606.557 310.523 606.303 311.204C606.053 311.887 605.299 312.228 604.634 311.979C604.455 311.906 604.311 311.816 604.184 311.689C603.539 313.164 602.998 314.69 602.549 316.253C602.64 316.236 602.748 316.253 602.836 316.27C603.558 316.379 604.023 317.062 603.914 317.78C603.771 318.499 603.09 318.965 602.388 318.838C602.209 318.805 602.048 318.748 601.904 318.66C601.525 320.204 601.257 321.785 601.095 323.385C601.184 323.385 601.274 323.366 601.364 323.366C602.1 323.366 602.675 323.958 602.675 324.677C602.675 325.413 602.083 325.99 601.364 325.99C601.184 325.99 601.024 325.953 600.88 325.881H600.861C600.825 326.636 600.808 327.389 600.808 328.163C600.808 329.006 600.825 329.852 600.897 330.696C600.987 330.658 601.058 330.641 601.15 330.623C601.868 330.497 602.533 330.984 602.675 331.682Z" fill="#FFFFFE"/>
<path fill-rule="evenodd" clip-rule="evenodd" d="M602.675 331.682C602.801 332.402 602.316 333.085 601.616 333.21C601.454 333.246 601.274 333.23 601.112 333.21C601.312 334.809 601.581 336.39 601.957 337.936C602.031 337.881 602.117 337.843 602.209 337.81C602.872 337.558 603.626 337.916 603.879 338.581C604.131 339.263 603.771 340.018 603.09 340.27C602.929 340.325 602.765 340.36 602.622 340.342C603.09 341.886 603.646 343.395 604.292 344.85C604.344 344.778 604.401 344.744 604.472 344.707C605.101 344.33 605.909 344.563 606.269 345.173C606.626 345.802 606.412 346.612 605.785 346.97C605.659 347.061 605.496 347.115 605.353 347.131C606.071 348.571 606.88 349.934 607.777 351.264C607.812 351.209 607.868 351.156 607.92 351.103C608.478 350.617 609.303 350.706 609.771 351.244C610.239 351.803 610.149 352.628 609.608 353.096C609.484 353.204 609.358 353.277 609.234 353.329C610.185 354.605 611.209 355.808 612.303 356.958C612.322 356.903 612.376 356.848 612.412 356.796C612.878 356.238 613.706 356.167 614.261 356.616C614.819 357.083 614.891 357.928 614.424 358.468C614.335 358.574 614.226 358.665 614.1 358.736C615.25 359.832 616.488 360.856 617.766 361.791C617.766 361.718 617.802 361.666 617.837 361.611C618.197 360.982 619.004 360.784 619.616 361.143C620.242 361.501 620.461 362.293 620.1 362.921C620.029 363.048 619.956 363.157 619.851 363.228C621.16 364.107 622.544 364.898 623.963 365.597C623.978 365.543 623.999 365.491 624.016 365.436C624.249 364.754 625.003 364.394 625.688 364.645C626.369 364.898 626.711 365.653 626.478 366.334C626.423 366.46 626.369 366.568 626.298 366.678C627.733 367.286 629.208 367.827 630.735 368.274C630.735 368.221 630.735 368.169 630.752 368.114C630.877 367.395 631.562 366.927 632.26 367.053C632.98 367.178 633.466 367.861 633.34 368.58C633.322 368.706 633.285 368.813 633.214 368.922C634.722 369.28 636.284 369.551 637.866 369.712V369.584C637.866 368.867 638.441 368.274 639.179 368.274C639.896 368.274 640.471 368.867 640.471 369.584C640.471 369.712 640.451 369.838 640.416 369.945C641.154 369.983 641.891 370 642.645 370C643.488 370 644.333 369.983 645.16 369.928C645.143 369.891 645.124 369.838 645.124 369.801C644.979 369.1 645.464 368.419 646.165 368.274C646.903 368.169 647.568 368.653 647.693 369.352C647.71 369.46 647.71 369.568 647.71 369.677C649.289 369.496 650.837 369.226 652.362 368.867C652.328 368.831 652.328 368.795 652.309 368.758C652.039 368.096 652.399 367.34 653.064 367.072C653.763 366.838 654.517 367.198 654.753 367.861C654.788 367.97 654.823 368.076 654.823 368.186C656.35 367.737 657.823 367.198 659.261 366.568C659.224 366.552 659.207 366.514 659.188 366.479C658.829 365.868 659.045 365.059 659.655 364.683C660.304 364.323 661.092 364.556 661.453 365.166C661.506 365.275 661.559 365.364 661.577 365.474C662.98 364.771 664.345 363.981 665.656 363.102C665.62 363.102 665.601 363.064 665.582 363.048C665.117 362.492 665.188 361.666 665.727 361.196C666.302 360.73 667.13 360.802 667.598 361.36C667.667 361.449 667.722 361.538 667.758 361.628C669.013 360.695 670.217 359.687 671.352 358.593C671.331 358.574 671.295 358.557 671.278 358.538C670.721 358.09 670.649 357.264 671.098 356.706C671.582 356.131 672.411 356.077 672.967 356.544C673.056 356.616 673.128 356.687 673.182 356.779C674.242 355.646 675.267 354.442 676.2 353.167C676.165 353.167 676.146 353.151 676.11 353.132C675.48 352.773 675.267 351.964 675.625 351.337C675.985 350.706 676.792 350.491 677.421 350.85C677.512 350.905 677.601 350.977 677.673 351.047C678.537 349.736 679.325 348.371 680.028 346.97C679.99 346.97 679.954 346.97 679.919 346.952C679.254 346.719 678.895 345.964 679.129 345.282C679.397 344.58 680.152 344.24 680.817 344.491C680.926 344.527 681.032 344.58 681.123 344.651C681.733 343.216 682.274 341.725 682.721 340.198C682.685 340.216 682.647 340.198 682.613 340.198C681.894 340.089 681.427 339.406 681.536 338.689C681.679 337.971 682.36 337.504 683.063 337.63C683.172 337.647 683.278 337.682 683.385 337.737C683.744 336.229 684.032 334.683 684.193 333.102H684.088C683.369 333.102 682.773 332.51 682.773 331.791C682.773 331.055 683.369 330.48 684.088 330.48C684.214 330.48 684.319 330.497 684.427 330.533C684.482 329.742 684.499 328.953 684.499 328.163C684.499 327.372 684.482 326.582 684.427 325.81C684.393 325.827 684.337 325.845 684.301 325.845C683.583 325.971 682.901 325.506 682.773 324.784C682.647 324.065 683.134 323.385 683.834 323.26C683.961 323.24 684.069 323.24 684.193 323.26C684.032 321.676 683.764 320.116 683.385 318.587C683.333 318.625 683.296 318.642 683.241 318.66C682.579 318.91 681.823 318.57 681.571 317.887C681.317 317.186 681.679 316.452 682.36 316.199C682.487 316.163 682.595 316.127 682.721 316.127C682.274 314.582 681.733 313.092 681.104 311.653C681.069 311.708 681.014 311.744 680.978 311.761C680.351 312.14 679.542 311.924 679.182 311.295C678.824 310.665 679.038 309.858 679.667 309.5C679.774 309.427 679.902 309.372 680.028 309.355C679.325 307.936 678.537 306.553 677.656 305.241C677.62 305.295 677.582 305.347 677.528 305.385C676.991 305.851 676.165 305.779 675.681 305.224C675.213 304.666 675.301 303.839 675.859 303.372C675.966 303.284 676.072 303.211 676.2 303.158C675.249 301.883 674.242 300.679 673.147 299.528C673.109 299.582 673.073 299.618 673.04 299.67C672.572 300.247 671.744 300.319 671.189 299.851C670.632 299.385 670.561 298.54 671.027 298.001C671.116 297.875 671.242 297.787 671.368 297.732C670.217 296.638 668.997 295.613 667.702 294.66C667.685 294.731 667.65 294.786 667.614 294.857C667.253 295.486 666.465 295.702 665.836 295.344C665.188 294.966 664.99 294.159 665.352 293.547C665.421 293.404 665.513 293.295 665.637 293.205C664.309 292.324 662.942 291.517 661.506 290.816C661.489 290.889 661.453 290.961 661.434 291.032C661.201 291.714 660.446 292.074 659.763 291.823C659.082 291.571 658.739 290.816 658.974 290.134C659.027 289.99 659.116 289.864 659.207 289.74C657.752 289.109 656.261 288.554 654.715 288.104C654.715 288.176 654.715 288.265 654.697 288.354C654.573 289.075 653.89 289.541 653.188 289.414C652.47 289.289 651.984 288.608 652.11 287.889C652.148 287.727 652.202 287.584 652.273 287.439C650.745 287.079 649.165 286.793 647.568 286.63C647.584 286.703 647.584 286.793 647.584 286.882C647.601 287.6 647.009 288.194 646.29 288.194C645.555 288.194 644.979 287.6 644.979 286.882C644.979 286.703 645.016 286.54 645.087 286.397C644.279 286.342 643.471 286.326 642.645 286.326C641.835 286.326 641.045 286.342 640.255 286.397C640.29 286.487 640.308 286.575 640.326 286.668C640.471 287.366 639.984 288.05 639.286 288.176C638.549 288.301 637.884 287.834 637.757 287.116C637.723 286.953 637.739 286.774 637.757 286.613C636.142 286.793 634.542 287.079 632.998 287.458C633.07 287.529 633.105 287.618 633.141 287.71C633.409 288.391 633.053 289.128 632.368 289.398C631.688 289.631 630.933 289.289 630.698 288.608C630.646 288.444 630.607 288.265 630.607 288.086C629.045 288.554 627.537 289.109 626.081 289.74C626.155 289.811 626.207 289.9 626.26 289.99C626.621 290.618 626.405 291.409 625.777 291.768C625.148 292.146 624.358 291.93 623.999 291.302C623.909 291.139 623.854 290.977 623.836 290.797C622.382 291.517 620.998 292.324 619.651 293.223C619.74 293.276 619.794 293.349 619.866 293.421C620.334 293.978 620.262 294.804 619.706 295.271C619.148 295.739 618.322 295.667 617.873 295.109C617.748 294.966 617.657 294.804 617.622 294.643C616.327 295.613 615.089 296.638 613.92 297.751C614.011 297.803 614.1 297.858 614.174 297.929C614.729 298.379 614.801 299.205 614.335 299.763C613.868 300.319 613.039 300.392 612.484 299.924C612.339 299.815 612.234 299.67 612.16 299.51C611.064 300.679 610.021 301.916 609.053 303.23C609.161 303.265 609.25 303.301 609.34 303.355C609.969 303.695 610.185 304.504 609.827 305.133C609.465 305.763 608.658 305.977 608.029 305.618C607.868 305.528 607.742 305.404 607.651 305.259C606.752 306.606 605.945 308.007 605.227 309.462C605.315 309.462 605.424 309.479 605.533 309.516C606.215 309.766 606.557 310.523 606.303 311.204C606.053 311.887 605.299 312.228 604.634 311.979C604.455 311.906 604.311 311.816 604.184 311.689C603.539 313.164 602.998 314.69 602.549 316.253C602.64 316.236 602.748 316.253 602.836 316.27C603.558 316.379 604.023 317.062 603.914 317.78C603.771 318.499 603.09 318.965 602.388 318.838C602.209 318.805 602.048 318.748 601.904 318.66C601.525 320.204 601.257 321.785 601.095 323.385C601.184 323.385 601.274 323.366 601.364 323.366C602.1 323.366 602.675 323.958 602.675 324.677C602.675 325.413 602.083 325.99 601.364 325.99C601.184 325.99 601.024 325.953 600.88 325.881H600.861C600.825 326.636 600.808 327.389 600.808 328.163C600.808 329.006 600.825 329.852 600.897 330.696C600.987 330.658 601.058 330.641 601.15 330.623C601.868 330.497 602.533 330.984 602.675 331.682Z" stroke="#3A3B38"/>
<path fill-rule="evenodd" clip-rule="evenodd" d="M604.646 328.162C604.646 307.173 621.663 290.157 642.652 290.157C663.638 290.157 680.654 307.173 680.654 328.162C680.654 349.149 663.638 366.166 642.652 366.166C621.663 366.166 604.646 349.149 604.646 328.162ZM613.16 328.162C613.16 311.873 626.365 298.672 642.652 298.672C658.938 298.672 672.141 311.873 672.141 328.162C672.141 344.447 658.938 357.651 642.652 357.651C626.365 357.651 613.16 344.447 613.16 328.162Z" stroke="#3A3B38" stroke-width="0.934"/>
<path fill-rule="evenodd" clip-rule="evenodd" d="M616.146 328.162C616.146 313.522 628.011 301.657 642.652 301.657C657.289 301.657 669.155 313.522 669.155 328.162C669.155 342.798 657.289 354.666 642.652 354.666C628.011 354.666 616.146 342.798 616.146 328.162ZM624.913 328.162C624.913 318.366 632.853 310.424 642.652 310.424C652.448 310.424 660.388 318.366 660.388 328.162C660.388 337.958 652.448 345.9 642.652 345.9C632.853 345.9 624.913 337.958 624.913 328.162Z" stroke="#3A3B38" stroke-width="0.906"/>
<path fill-rule="evenodd" clip-rule="evenodd" d="M627.531 328.162C627.531 319.813 634.3 313.044 642.652 313.044C651.002 313.044 657.77 319.813 657.77 328.162C657.77 336.512 651.002 343.281 642.652 343.281C634.3 343.281 627.531 336.512 627.531 328.162Z" fill="#FFFFFE"/>
<path fill-rule="evenodd" clip-rule="evenodd" d="M627.531 328.162C627.531 319.813 634.3 313.044 642.652 313.044C651.002 313.044 657.77 319.813 657.77 328.162C657.77 336.512 651.002 343.281 642.652 343.281C634.3 343.281 627.531 336.512 627.531 328.162Z" stroke="#3A3B38"/>
<path fill-rule="evenodd" clip-rule="evenodd" d="M636.214 328.163C636.214 324.606 639.093 321.724 642.652 321.724C646.206 321.724 649.089 324.606 649.089 328.163C649.089 331.719 646.206 334.6 642.652 334.6C639.093 334.6 636.214 331.719 636.214 328.163Z" stroke="#D9252A" stroke-width="0.095"/>
<path fill-rule="evenodd" clip-rule="evenodd" d="M636.214 328.163C636.214 324.606 639.093 321.724 642.652 321.724C646.206 321.724 649.089 324.606 649.089 328.163C649.089 331.719 646.206 334.6 642.652 334.6C639.093 334.6 636.214 331.719 636.214 328.163Z" fill="#FFFFFE"/>
<path fill-rule="evenodd" clip-rule="evenodd" d="M636.214 328.163C636.214 324.606 639.093 321.724 642.652 321.724C646.206 321.724 649.089 324.606 649.089 328.163C649.089 331.719 646.206 334.6 642.652 334.6C639.093 334.6 636.214 331.719 636.214 328.163Z" stroke="#3A3B38"/>
<path fill-rule="evenodd" clip-rule="evenodd" d="M641.364 317.275C641.364 316.473 642.012 315.828 642.808 315.828C643.607 315.828 644.254 316.473 644.254 317.275C644.254 318.074 643.607 318.719 642.808 318.719C642.012 318.719 641.364 318.074 641.364 317.275Z" fill="#FFFFFE"/>
<path fill-rule="evenodd" clip-rule="evenodd" d="M641.364 317.275C641.364 316.473 642.012 315.828 642.808 315.828C643.607 315.828 644.254 316.473 644.254 317.275C644.254 318.074 643.607 318.719 642.808 318.719C642.012 318.719 641.364 318.074 641.364 317.275Z" stroke="#3A3B38"/>
<path fill-rule="evenodd" clip-rule="evenodd" d="M649.321 319.39C649.875 318.813 650.79 318.799 651.367 319.352C651.938 319.907 651.957 320.82 651.402 321.397C650.844 321.972 649.931 321.986 649.356 321.431C648.782 320.876 648.765 319.964 649.321 319.39Z" fill="#FFFFFE"/>
<path fill-rule="evenodd" clip-rule="evenodd" d="M649.321 319.39C649.875 318.813 650.79 318.799 651.367 319.352C651.938 319.907 651.957 320.82 651.402 321.397C650.844 321.972 649.931 321.986 649.356 321.431C648.782 320.876 648.765 319.964 649.321 319.39Z" stroke="#3A3B38"/>
<path fill-rule="evenodd" clip-rule="evenodd" d="M653.575 326.437C654.373 326.41 655.044 327.034 655.072 327.833C655.098 328.628 654.476 329.297 653.678 329.326C652.878 329.354 652.213 328.728 652.183 327.933C652.155 327.134 652.777 326.466 653.575 326.437Z" fill="#FFFFFE"/>
<path fill-rule="evenodd" clip-rule="evenodd" d="M653.575 326.437C654.373 326.41 655.044 327.034 655.072 327.833C655.098 328.628 654.476 329.297 653.678 329.326C652.878 329.354 652.213 328.728 652.183 327.933C652.155 327.134 652.777 326.466 653.575 326.437Z" stroke="#3A3B38"/>
<path fill-rule="evenodd" clip-rule="evenodd" d="M651.738 334.463C652.332 334.999 652.381 335.912 651.848 336.504C651.313 337.097 650.402 337.146 649.807 336.613C649.212 336.075 649.166 335.166 649.698 334.57C650.232 333.977 651.145 333.928 651.738 334.463Z" fill="#FFFFFE"/>
<path fill-rule="evenodd" clip-rule="evenodd" d="M651.738 334.463C652.332 334.999 652.381 335.912 651.848 336.504C651.313 337.097 650.402 337.146 649.807 336.613C649.212 336.075 649.166 335.166 649.698 334.57C650.232 333.977 651.145 333.928 651.738 334.463Z" stroke="#3A3B38"/>
<path fill-rule="evenodd" clip-rule="evenodd" d="M644.843 338.962C644.898 339.757 644.298 340.45 643.504 340.505C642.707 340.56 642.017 339.961 641.959 339.165C641.906 338.368 642.504 337.679 643.3 337.62C644.097 337.568 644.789 338.163 644.843 338.962Z" fill="#FFFFFE"/>
<path fill-rule="evenodd" clip-rule="evenodd" d="M644.843 338.962C644.898 339.757 644.298 340.45 643.504 340.505C642.707 340.56 642.017 339.961 641.959 339.165C641.906 338.368 642.504 337.679 643.3 337.62C644.097 337.568 644.789 338.163 644.843 338.962Z" stroke="#3A3B38"/>
<path fill-rule="evenodd" clip-rule="evenodd" d="M636.758 337.406C636.245 338.016 635.332 338.097 634.722 337.585C634.111 337.072 634.031 336.164 634.542 335.549C635.06 334.938 635.967 334.858 636.581 335.37C637.19 335.887 637.272 336.796 636.758 337.406Z" fill="#FFFFFE"/>
<path fill-rule="evenodd" clip-rule="evenodd" d="M636.758 337.406C636.245 338.016 635.332 338.097 634.722 337.585C634.111 337.072 634.031 336.164 634.542 335.549C635.06 334.938 635.967 334.858 636.581 335.37C637.19 335.887 637.272 336.796 636.758 337.406Z" stroke="#3A3B38"/>
<path fill-rule="evenodd" clip-rule="evenodd" d="M632.023 330.67C631.229 330.754 630.519 330.178 630.432 329.384C630.351 328.592 630.924 327.883 631.718 327.798C632.515 327.715 633.222 328.286 633.309 329.083C633.389 329.879 632.817 330.588 632.023 330.67Z" fill="#FFFFFE"/>
<path fill-rule="evenodd" clip-rule="evenodd" d="M632.023 330.67C631.229 330.754 630.519 330.178 630.432 329.384C630.351 328.592 630.924 327.883 631.718 327.798C632.515 327.715 633.222 328.286 633.309 329.083C633.389 329.879 632.817 330.588 632.023 330.67Z" stroke="#3A3B38"/>
<path fill-rule="evenodd" clip-rule="evenodd" d="M633.296 322.537C632.666 322.046 632.556 321.137 633.046 320.508C633.537 319.881 634.442 319.77 635.073 320.259C635.703 320.753 635.813 321.656 635.322 322.288C634.831 322.915 633.925 323.03 633.296 322.537Z" fill="#FFFFFE"/>
<path fill-rule="evenodd" clip-rule="evenodd" d="M633.296 322.537C632.666 322.046 632.556 321.137 633.046 320.508C633.537 319.881 634.442 319.77 635.073 320.259C635.703 320.753 635.813 321.656 635.322 322.288C634.831 322.915 633.925 323.03 633.296 322.537Z" stroke="#3A3B38"/>
<path fill-rule="evenodd" clip-rule="evenodd" d="M786.074 156.891C786.683 156.891 787.299 156.873 787.897 156.829C791.329 156.57 795.508 151.01 795.973 150.376L796.169 150.112L796.096 149.79C795.612 147.616 794.827 144.172 794.827 144.172L794.771 143.924L794.572 143.766C793.248 142.714 790.982 140.825 790.54 140.222C790.109 139.635 790.072 138.464 790.038 137.43L790.015 136.811C789.925 134.925 780.345 129.333 777.201 129.333C776.885 129.333 776.604 129.377 776.364 129.465L775.694 129.707C773.262 130.578 770.507 131.565 770.577 133.851C770.587 134.18 770.603 134.502 770.617 134.819C770.688 136.318 770.751 137.615 770.226 138.708C769.931 139.323 769.56 139.68 769.2 140.023C768.769 140.435 768.282 140.901 768.282 141.676C768.282 142.54 768.98 143.112 770.135 143.227C770.152 143.279 770.167 143.328 770.18 143.372L769.877 143.473L769.683 143.966C769.577 144.566 769.689 145.018 769.887 145.347C769.819 145.481 769.786 145.61 769.771 145.723C769.699 146.333 770.141 146.742 770.23 146.817L770.383 146.946L770.451 146.958C770.513 147.023 770.649 147.194 770.819 147.581C770.898 147.765 770.88 147.865 770.756 148.249C770.6 148.743 770.383 149.421 770.659 150.492C771.072 152.084 773.841 152.433 777.871 152.469C778.185 152.472 778.425 152.474 778.556 152.482C778.792 152.671 779.627 154.35 780.216 156.042L780.361 156.457L780.796 156.52C780.9 156.534 783.388 156.891 786.074 156.891Z" fill="#FFFFFE"/>
<path fill-rule="evenodd" clip-rule="evenodd" d="M777.201 128.609C780.219 128.609 790.614 134.107 790.738 136.779C790.748 136.978 790.754 137.189 790.761 137.405C790.788 138.195 790.827 139.387 791.124 139.793C791.464 140.255 793.411 141.921 795.023 143.198L795.421 143.515L795.534 144.012C795.534 144.012 796.319 147.458 796.803 149.632L796.947 150.274L796.557 150.805C795.764 151.883 791.629 157.274 787.951 157.551C787.372 157.594 786.742 157.616 786.074 157.616C783.337 157.616 780.799 157.252 780.692 157.236L779.822 157.11L779.532 156.281C779.096 155.034 778.492 153.718 778.128 153.195C778.049 153.195 777.96 153.194 777.863 153.194C774.186 153.16 770.546 152.94 769.958 150.674C769.629 149.401 769.903 148.541 770.067 148.028C770.09 147.957 770.117 147.889 770.132 147.821C770.084 147.714 770.041 147.634 770.007 147.578L769.763 147.371C769.36 147.03 768.961 146.396 769.053 145.638C769.061 145.562 769.077 145.477 769.102 145.381C768.931 144.963 768.861 144.45 768.969 143.84L768.993 143.698C767.959 143.275 767.557 142.43 767.557 141.676C767.557 140.593 768.218 139.961 768.699 139.5C769.026 139.187 769.335 138.892 769.574 138.393C770.018 137.466 769.961 136.255 769.894 134.854C769.878 134.532 769.862 134.205 769.852 133.873C769.767 131.06 772.918 129.932 775.449 129.025L776.114 128.784C776.435 128.668 776.8 128.609 777.201 128.609ZM777.201 130.058C776.975 130.058 776.777 130.087 776.613 130.146C774.138 131.052 771.242 131.896 771.301 133.829C771.361 135.762 771.604 137.511 770.88 139.021C770.155 140.53 769.006 140.771 769.006 141.676C769.006 142.476 770.28 142.524 770.575 142.524C770.614 142.524 770.636 142.523 770.636 142.523C770.636 142.523 770.939 143.186 770.939 143.548C770.939 143.911 770.396 144.092 770.396 144.092C770.215 145.118 770.939 145.329 770.939 145.329C770.093 145.752 770.699 146.265 770.699 146.265C770.699 146.265 771.061 146.326 771.482 147.291C771.904 148.256 770.939 148.68 771.361 150.31C771.784 151.94 777.7 151.699 778.605 151.759C779.511 151.82 780.9 155.803 780.9 155.803C780.9 155.803 783.41 156.167 786.074 156.167C786.664 156.167 787.262 156.15 787.842 156.106C791.043 155.866 795.389 149.948 795.389 149.948C794.905 147.775 794.121 144.334 794.121 144.334C794.121 144.334 790.621 141.556 789.956 140.651C789.291 139.745 789.353 138.115 789.291 136.847C789.236 135.662 780.387 130.058 777.201 130.058Z" fill="#3A3B38"/>
<path fill-rule="evenodd" clip-rule="evenodd" d="M773.202 132.108C773.202 132.108 780.945 131.656 781.625 138.719L783.073 138.492C783.073 138.492 783.481 135.73 785.473 135.187C787.465 134.644 788.688 136.455 788.371 138.04C788.053 139.625 787.964 140.893 787.964 140.893C787.964 140.893 789.321 140.982 790.544 142.523C791.767 144.061 792.717 146.145 794.573 146.461C794.573 146.461 794.573 145.329 795.208 144.016C795.841 142.704 797.925 140.258 797.925 136.636C797.925 133.014 798.151 130.297 796.702 128.531C795.253 126.766 775.965 126.675 774.878 128.123C773.792 129.572 773.067 130.976 773.202 132.108Z" fill="#FFFFFE"/>
<path fill-rule="evenodd" clip-rule="evenodd" d="M773.202 132.108C773.202 132.108 780.945 131.656 781.625 138.719L783.073 138.492C783.073 138.492 783.481 135.73 785.473 135.187C787.465 134.644 788.688 136.455 788.371 138.04C788.053 139.625 787.964 140.893 787.964 140.893C787.964 140.893 789.321 140.982 790.544 142.523C791.767 144.061 792.717 146.145 794.573 146.461C794.573 146.461 794.573 145.329 795.208 144.016C795.841 142.704 797.925 140.258 797.925 136.636C797.925 133.014 798.151 130.297 796.702 128.531C795.253 126.766 775.965 126.675 774.878 128.123C773.792 129.572 773.067 130.976 773.202 132.108Z" stroke="#3A3B38"/>
<path fill-rule="evenodd" clip-rule="evenodd" d="M699.127 178.88C699.127 178.88 697.859 176.344 700.486 176.344C700.486 176.344 715.789 184.993 716.65 186.397C717.511 187.801 727.879 195.452 727.879 195.452C727.879 195.452 728.467 196.539 727.427 197.219C726.385 197.897 726.204 197.626 725.073 196.765C723.94 195.904 719.458 192.917 719.458 192.917L716.243 195.361C716.243 195.361 715.563 196.086 714.658 196.086C714.658 196.086 715.293 197.172 714.387 198.849C713.481 200.524 705.875 211.345 705.875 211.345C705.875 211.345 704.516 212.748 701.392 213.472L688.623 237.426C688.623 237.426 689.664 240.051 687.536 242.949C685.409 245.847 681.333 251.915 681.333 251.915C681.333 251.915 680.519 253.907 676.036 253.545L670.558 264.682L684.367 264.501L689.121 269.074L687.446 271.247L683.281 268.034L668.747 267.942L667.705 270.161L649.457 260.065L659.691 234.347L667.569 227.147C667.569 227.147 669.652 225.381 672.414 225.924L702.387 189.747C702.387 189.747 703.339 188.706 704.426 188.932L705.104 184.812L699.127 178.88Z" fill="#FFFFFE"/>
<path fill-rule="evenodd" clip-rule="evenodd" d="M699.127 178.88C699.127 178.88 697.859 176.344 700.486 176.344C700.486 176.344 715.789 184.993 716.65 186.397C717.511 187.801 727.879 195.452 727.879 195.452C727.879 195.452 728.467 196.539 727.427 197.219C726.385 197.897 726.204 197.626 725.073 196.765C723.94 195.904 719.458 192.917 719.458 192.917L716.243 195.361C716.243 195.361 715.563 196.086 714.658 196.086C714.658 196.086 715.293 197.172 714.387 198.849C713.481 200.524 705.875 211.345 705.875 211.345C705.875 211.345 704.516 212.748 701.392 213.472L688.623 237.426C688.623 237.426 689.664 240.051 687.536 242.949C685.409 245.847 681.333 251.915 681.333 251.915C681.333 251.915 680.519 253.907 676.036 253.545L670.558 264.682L684.367 264.501L689.121 269.074L687.446 271.247L683.281 268.034L668.747 267.942L667.705 270.161L649.457 260.065L659.691 234.347L667.569 227.147C667.569 227.147 669.652 225.381 672.414 225.924L702.387 189.747C702.387 189.747 703.339 188.706 704.426 188.932L705.104 184.812L699.127 178.88Z" stroke="#3A3B38"/>
<path fill-rule="evenodd" clip-rule="evenodd" d="M798.468 134.281L798.196 137.043L783.572 133.738L776.01 132.063C776.01 132.063 774.425 134.191 770.667 134.87L770.697 136.576C770.697 136.576 765.913 137.995 761.928 132.651L761.996 132.627L772.524 128.758C772.524 128.758 776.016 121.544 785.247 121.241C792.628 120.999 798.649 126.766 798.332 131.383C798.332 131.383 797.35 131.021 797.109 131.475C796.869 131.927 796.779 133.528 796.779 133.528C796.779 133.528 796.747 133.949 797.35 134.1C797.955 134.252 798.468 134.281 798.468 134.281Z" fill="#FFFFFE"/>
<path fill-rule="evenodd" clip-rule="evenodd" d="M798.468 134.281L798.196 137.043L783.572 133.738L776.01 132.063C776.01 132.063 774.425 134.191 770.667 134.87L770.697 136.576C770.697 136.576 765.913 137.995 761.928 132.651L761.996 132.627L772.524 128.758C772.524 128.758 776.016 121.544 785.247 121.241C792.628 120.999 798.649 126.766 798.332 131.383C798.332 131.383 797.35 131.021 797.109 131.475C796.869 131.927 796.779 133.528 796.779 133.528C796.779 133.528 796.747 133.949 797.35 134.1C797.955 134.252 798.468 134.281 798.468 134.281Z" stroke="#3A3B38"/>
<path fill-rule="evenodd" clip-rule="evenodd" d="M772.252 137.021C772.252 137.021 772.773 137.609 773.406 137.633C774.041 137.654 775.081 137.678 775.081 137.678C775.081 137.678 774.063 138.719 773.475 138.424C772.886 138.13 772.207 137.699 772.252 137.021Z" fill="#3A3B38"/>
<path fill-rule="evenodd" clip-rule="evenodd" d="M794.936 148.77C794.936 148.77 798.377 149.902 801.818 156.196C805.259 162.49 807.66 168.648 808.293 176.572C808.293 176.572 791.313 221.26 789.368 223.887C787.42 226.512 785.971 227.373 785.292 227.599C784.612 227.827 741.326 231.992 739.924 231.04C738.52 230.09 735.396 227.373 735.26 227.373C735.124 227.373 735.622 227.464 734.716 227.464C733.811 227.464 733.086 227.147 733.086 227.147C733.086 227.147 718.868 254.178 716.605 261.241L715.519 261.422L715.427 265.407C715.427 265.407 715.971 265.136 716.424 264.682C716.424 264.682 716.786 268.758 718.054 270.75C719.322 272.743 719.503 277.722 718.779 279.896C718.779 279.896 716.967 282.975 712.711 282.342C708.455 281.707 703.836 280.349 702.931 280.349C702.025 280.349 697.588 281.707 693.604 281.255C689.619 280.801 685.544 279.625 683.551 277.451C681.559 275.278 680.291 274.916 682.013 273.467C682.013 273.467 682.103 271.656 684.095 271.656C686.087 271.656 689.982 272.832 692.607 270.84C692.607 270.84 688.26 270.116 685 265.769C681.74 261.422 682.827 260.427 684.095 260.065C684.095 260.065 686.541 258.616 687.536 258.978C688.533 259.34 694.798 262.013 698.222 261.603C702.507 261.09 702.658 258.072 704.379 257.891C704.379 257.891 696.592 253.634 694.509 249.107C694.509 249.107 704.833 216.598 718.96 205.912C718.96 205.912 736.709 205.459 758.894 207.451C758.894 207.451 758.804 198.395 760.616 192.329C760.616 192.329 750.835 196.584 744.497 196.584L735.803 197.445C735.803 197.445 732.045 198.078 730.551 197.49C729.057 196.901 728.422 196.494 728.422 196.494C728.422 196.494 727.924 195.497 727.2 194.954C726.475 194.411 717.828 189.521 717.601 188.344C717.375 187.166 718.461 187.302 719.141 187.528C719.82 187.754 727.065 192.101 730.687 191.739C730.687 191.739 739.666 191.001 743.832 188.708C747.997 186.414 751.017 184.722 751.017 184.722C751.017 184.722 746.76 185.717 738.036 186.052C731.029 186.32 721.918 184.119 720.409 184.119C718.899 184.119 717.088 185.69 714.914 185.267C712.741 184.844 708.878 182.551 707.912 182.792C706.945 183.032 706.824 184.483 708.515 185.69C708.515 185.69 706.886 186.956 705.195 186.474C703.504 185.991 701.272 184.481 701.211 182.188C701.15 179.894 703.384 175.608 707.368 176.272C711.353 176.935 716.302 178.324 719.925 178.022C723.547 177.721 732.059 176.754 737.191 174.943C742.323 173.132 746.729 172.347 749.627 172.347C752.525 172.347 760.495 171.441 762.186 170.415C762.186 170.415 763.816 169.085 765.084 168.301C766.352 167.518 774.742 164.078 776.07 161.421C777.4 158.763 778.124 156.047 778.908 155.322C779.692 154.598 792.009 149.343 794.936 148.77Z" fill="#FFFFFE"/>
<path fill-rule="evenodd" clip-rule="evenodd" d="M794.936 148.77C794.936 148.77 798.377 149.902 801.818 156.196C805.259 162.49 807.66 168.648 808.293 176.572C808.293 176.572 791.313 221.26 789.368 223.887C787.42 226.512 785.971 227.373 785.292 227.599C784.612 227.827 741.326 231.992 739.924 231.04C738.52 230.09 735.396 227.373 735.26 227.373C735.124 227.373 735.622 227.464 734.716 227.464C733.811 227.464 733.086 227.147 733.086 227.147C733.086 227.147 718.868 254.178 716.605 261.241L715.519 261.422L715.427 265.407C715.427 265.407 715.971 265.136 716.424 264.682C716.424 264.682 716.786 268.758 718.054 270.75C719.322 272.743 719.503 277.722 718.779 279.896C718.779 279.896 716.967 282.975 712.711 282.342C708.455 281.707 703.836 280.349 702.931 280.349C702.025 280.349 697.588 281.707 693.604 281.255C689.619 280.801 685.544 279.625 683.551 277.451C681.559 275.278 680.291 274.916 682.013 273.467C682.013 273.467 682.103 271.656 684.095 271.656C686.087 271.656 689.982 272.832 692.607 270.84C692.607 270.84 688.26 270.116 685 265.769C681.74 261.422 682.827 260.427 684.095 260.065C684.095 260.065 686.541 258.616 687.536 258.978C688.533 259.34 694.798 262.013 698.222 261.603C702.507 261.09 702.658 258.072 704.379 257.891C704.379 257.891 696.592 253.634 694.509 249.107C694.509 249.107 704.833 216.598 718.96 205.912C718.96 205.912 736.709 205.459 758.894 207.451C758.894 207.451 758.804 198.395 760.616 192.329C760.616 192.329 750.835 196.584 744.497 196.584L735.803 197.445C735.803 197.445 732.045 198.078 730.551 197.49C729.057 196.901 728.422 196.494 728.422 196.494C728.422 196.494 727.924 195.497 727.2 194.954C726.475 194.411 717.828 189.521 717.601 188.344C717.375 187.166 718.461 187.302 719.141 187.528C719.82 187.754 727.065 192.101 730.687 191.739C730.687 191.739 739.666 191.001 743.832 188.708C747.997 186.414 751.017 184.722 751.017 184.722C751.017 184.722 746.76 185.717 738.036 186.052C731.029 186.32 721.918 184.119 720.409 184.119C718.899 184.119 717.088 185.69 714.914 185.267C712.741 184.844 708.878 182.551 707.912 182.792C706.945 183.032 706.824 184.483 708.515 185.69C708.515 185.69 706.886 186.956 705.195 186.474C703.504 185.991 701.272 184.481 701.211 182.188C701.15 179.894 703.384 175.608 707.368 176.272C711.353 176.935 716.302 178.324 719.925 178.022C723.547 177.721 732.059 176.754 737.191 174.943C742.323 173.132 746.729 172.347 749.627 172.347C752.525 172.347 760.495 171.441 762.186 170.415C762.186 170.415 763.816 169.085 765.084 168.301C766.352 167.518 774.742 164.078 776.07 161.421C777.4 158.763 778.124 156.047 778.908 155.322C779.692 154.598 792.009 149.343 794.936 148.77Z" stroke="#3A3B38"/>
<path fill-rule="evenodd" clip-rule="evenodd" d="M715.698 261.422C715.698 261.422 708.757 260.637 704.048 257.71L715.698 261.422Z" fill="#FFFFFE"/>
<path d="M715.698 261.422C715.698 261.422 708.757 260.637 704.048 257.71" stroke="#3A3B38"/>
<path fill-rule="evenodd" clip-rule="evenodd" d="M715.427 265.407C715.427 265.407 715.277 268.425 711.593 268.396C707.91 268.365 707.216 267.248 706.372 265.346C705.525 263.445 705.444 262.034 704.085 262.011C702.728 261.989 700.961 264.569 699.785 266.041C698.607 267.512 694.192 270.048 692.087 271.044" fill="#FFFFFE"/>
<path d="M715.427 265.407C715.427 265.407 715.277 268.425 711.593 268.396C707.91 268.365 707.216 267.248 706.372 265.346C705.525 263.445 705.444 262.034 704.085 262.011C702.728 261.989 700.961 264.569 699.785 266.041C698.607 267.512 694.192 270.048 692.087 271.044" stroke="#3A3B38"/>
<path fill-rule="evenodd" clip-rule="evenodd" d="M706.432 258.948C706.432 258.948 705.405 261.876 705.134 262.389L706.432 258.948Z" fill="#FFFFFE"/>
<path d="M706.432 258.948C706.432 258.948 705.405 261.876 705.134 262.389" stroke="#3A3B38"/>
<path d="M684.231 259.792C684.231 259.792 683.733 261.377 684.774 262.962C685.816 264.546 691.612 269.483 694.237 269.98M719.005 274.083C719.005 274.083 719.141 279.416 712.802 279.308C706.463 279.199 705.513 277.857 701.166 278.182C696.819 278.509 691.702 278.474 687.763 277.385C683.824 276.297 682.013 273.467 682.013 273.467L719.005 274.083Z" stroke="#3A3B38" stroke-width="0.442"/>
<path d="M704.229 224.325C704.229 224.325 708.577 230.482 714.312 234.829C720.046 239.176 726.808 240.928 726.808 240.928M711.172 214.424C711.172 214.424 718.535 223.663 732.301 229.518L711.172 214.424ZM708.998 216.537C708.998 216.537 716.546 228.492 730.974 232.778L708.998 216.537ZM705.859 221.789C705.859 221.789 715.216 233.44 728.74 237.365L705.859 221.789Z" stroke="#0A0B09" stroke-width="0.5"/>
<path fill-rule="evenodd" clip-rule="evenodd" d="M770.517 210.259C770.517 210.259 762.608 208.087 758.623 207.422L770.517 210.259Z" fill="#FFFFFE"/>
<path d="M770.517 210.259C770.517 210.259 762.608 208.087 758.623 207.422" stroke="#3A3B38"/>
<path d="M762.246 170.233C762.246 170.233 761.883 172.166 764.659 174.097C767.438 176.028 772.931 181.824 772.931 181.824C772.931 181.824 780.357 178.563 782.952 172.647" stroke="#3A3B38" stroke-width="0.494"/>
<path fill-rule="evenodd" clip-rule="evenodd" d="M772.328 181.22C772.328 181.22 768.282 182.911 764.057 183.092C759.832 183.273 757.234 182.427 751.257 184.118" fill="#FFFFFE"/>
<path d="M772.328 181.22C772.328 181.22 768.282 182.911 764.057 183.092C759.832 183.273 757.234 182.427 751.257 184.118" stroke="#3A3B38"/>
<path fill-rule="evenodd" clip-rule="evenodd" d="M770.093 182.065C770.093 182.065 770.516 189.309 775.587 194.984C780.658 200.66 787.54 208.932 794.061 210.863" fill="#FFFFFE"/>
<path d="M770.093 182.065C770.093 182.065 770.516 189.309 775.587 194.984C780.658 200.66 787.54 208.932 794.061 210.863" stroke="#3A3B38"/>
<path fill-rule="evenodd" clip-rule="evenodd" d="M764.057 183.092C764.057 183.092 761.34 188.647 759.769 195.952L764.057 183.092Z" fill="#FFFFFE"/>
<path d="M764.057 183.092C764.057 183.092 761.34 188.647 759.769 195.952" stroke="#3A3B38"/>
<path d="M777.037 158.401C777.037 158.401 782.468 153.978 789.804 154.34C797.137 154.702 800.45 158.233 802.305 163.259C804.162 168.286 805.575 174.806 805.531 181.733M775.648 162.386C775.648 162.386 781.141 155.322 790.067 155.697C798.287 156.045 800.45 162.716 801.776 166.157C803.1 169.598 804.869 178.292 804.029 185.491L775.648 162.386Z" stroke="#3A3B38" stroke-width="0.494"/>
<path fill-rule="evenodd" clip-rule="evenodd" d="M799.374 186.079C805.653 177.102 807.387 174.987 811.825 176.888C814.267 177.935 812.912 182.956 812.912 182.956L803.358 241.907L747.983 241.817C747.983 241.817 745.854 240.323 744.859 240.323C743.862 240.323 738.475 241.545 737.569 234.799C736.664 228.053 747.62 224.612 766.592 224.838C785.564 225.064 794.03 228.505 794.03 228.505C794.03 228.505 789.956 225.924 789.549 220.22C789.14 214.514 794.528 193.007 799.374 186.079Z" fill="#FFFFFE"/>
<path fill-rule="evenodd" clip-rule="evenodd" d="M799.374 186.079C805.653 177.102 807.387 174.987 811.825 176.888C814.267 177.935 812.912 182.956 812.912 182.956L803.358 241.907L747.983 241.817C747.983 241.817 745.854 240.323 744.859 240.323C743.862 240.323 738.475 241.545 737.569 234.799C736.664 228.053 747.62 224.612 766.592 224.838C785.564 225.064 794.03 228.505 794.03 228.505C794.03 228.505 789.956 225.924 789.549 220.22C789.14 214.514 794.528 193.007 799.374 186.079Z" stroke="#3A3B38"/>
<path d="M628.041 90V272.651" stroke="#3A3B38"/>
<path fill-rule="evenodd" clip-rule="evenodd" d="M622.517 291.397L622.608 96.8823H620.705V292.03" fill="#FFFFFE"/>
<path d="M622.517 291.397L622.608 96.8823H620.705V292.03" stroke="#3A3B38"/>
<path d="M612.647 291.487L612.555 200.479" stroke="#3A3B38"/>
<path d="M614.82 292.211L614.277 199.12" stroke="#3A3B38"/>
<path fill-rule="evenodd" clip-rule="evenodd" d="M609.084 291.881H486.41L486.652 292.848L608.597 296.468L609.084 291.881Z" fill="#FFFFFE"/>
<path fill-rule="evenodd" clip-rule="evenodd" d="M609.084 291.881H486.41L486.652 292.848L608.597 296.468L609.084 291.881Z" stroke="#3A3B38"/>
<path fill-rule="evenodd" clip-rule="evenodd" d="M808.248 348.387V335.829C808.248 335.829 809.638 291.517 852.621 291.517C852.621 291.517 897.808 292.03 897.808 335.678C897.808 346.636 897.777 348.146 897.777 348.146C897.777 348.146 898.021 349.836 896.45 349.836C894.879 349.836 894.761 348.145 894.761 345.127C894.761 342.109 894.91 339.754 894.91 335.497C894.91 324.722 886.76 294.657 852.167 294.657C814.255 294.657 810.603 330.517 810.481 337.882C810.362 345.247 810.723 347.361 810.723 347.361" fill="#FFFFFE"/>
<path d="M808.248 348.387V335.829C808.248 335.829 809.638 291.517 852.621 291.517C852.621 291.517 897.808 292.03 897.808 335.678C897.808 346.636 897.777 348.146 897.777 348.146C897.777 348.146 898.021 349.836 896.45 349.836C894.879 349.836 894.761 348.145 894.761 345.127C894.761 342.109 894.91 339.754 894.91 335.497C894.91 324.722 886.76 294.657 852.167 294.657C814.255 294.657 810.603 330.517 810.481 337.882C810.362 345.247 810.723 347.361 810.723 347.361" stroke="#3A3B38"/>
<path d="M770.848 134.826C770.848 134.826 766.636 136.526 761.996 132.627" stroke="#3A3B38" stroke-width="0.494"/>
<path fill-rule="evenodd" clip-rule="evenodd" d="M698.795 347.662C698.795 347.662 698.856 343.346 698.856 326.594C698.856 278.84 654.121 273.104 644.885 273.104C639.39 273.104 621.159 273.104 621.159 273.104C621.159 273.104 619.106 273.047 619.106 274.374C619.106 275.701 619.829 276.547 621.037 276.547C622.246 276.547 642.408 276.426 647.843 276.426C656.657 276.426 677.011 282.627 687.326 298.281C697.59 313.857 696.129 332.679 695.893 347.296" fill="#FFFFFE"/>
<path d="M698.795 347.662C698.795 347.662 698.856 343.346 698.856 326.594C698.856 278.84 654.121 273.104 644.885 273.104C639.39 273.104 621.159 273.104 621.159 273.104C621.159 273.104 619.106 273.047 619.106 274.374C619.106 275.701 619.829 276.547 621.037 276.547C622.246 276.547 642.408 276.426 647.843 276.426C656.657 276.426 677.011 282.627 687.326 298.281C697.59 313.857 696.129 332.679 695.893 347.296" stroke="#3A3B38"/>
</g>
<path fill-rule="evenodd" clip-rule="evenodd" d="M0 370.272H43.8622V329.836H0" fill="white"/>
<path d="M0 370.272H43.8622V329.836H0" stroke="#3A3B38"/>
<path fill-rule="evenodd" clip-rule="evenodd" d="M22.9818 337.93H29.7762V329.836H22.9818V337.93Z" stroke="#3A3B38"/>
<path fill-rule="evenodd" clip-rule="evenodd" d="M0 329.8H43.8622V289.365H0" fill="white"/>
<path d="M0 329.8H43.8622V289.365H0" stroke="#3A3B38"/>
<path fill-rule="evenodd" clip-rule="evenodd" d="M22.9818 297.459H29.7762V289.365H22.9818V297.459Z" stroke="#3A3B38"/>
<path fill-rule="evenodd" clip-rule="evenodd" d="M0 289.329H43.8622V248.894H0" fill="white"/>
<path d="M0 289.329H43.8622V248.894H0" stroke="#3A3B38"/>
<path fill-rule="evenodd" clip-rule="evenodd" d="M22.9818 256.987H29.7762V248.894H22.9818V256.987Z" stroke="#3A3B38"/>
<path fill-rule="evenodd" clip-rule="evenodd" d="M0 248.894H43.8622V208.459H0" fill="white"/>
<path d="M0 248.894H43.8622V208.459H0" stroke="#3A3B38"/>
<path fill-rule="evenodd" clip-rule="evenodd" d="M22.9818 216.552H29.7762V208.459H22.9818V216.552Z" stroke="#3A3B38"/>
<path fill-rule="evenodd" clip-rule="evenodd" d="M0 208.813H43.8622V168.378H0" fill="white"/>
<path d="M0 208.813H43.8622V168.378H0" stroke="#3A3B38"/>
<path fill-rule="evenodd" clip-rule="evenodd" d="M22.9818 176.472H29.7762V168.378H22.9818V176.472Z" stroke="#3A3B38"/>
<path fill-rule="evenodd" clip-rule="evenodd" d="M0 168.342H43.8622V127.907H0" fill="white"/>
<path d="M0 168.342H43.8622V127.907H0" stroke="#3A3B38"/>
<path fill-rule="evenodd" clip-rule="evenodd" d="M22.9818 136H29.7762V127.907H22.9818V136Z" stroke="#3A3B38"/>
<path fill-rule="evenodd" clip-rule="evenodd" d="M0 127.87H43.8622V87.4352H0" fill="white"/>
<path d="M0 127.87H43.8622V87.4352H0" stroke="#3A3B38"/>
<path fill-rule="evenodd" clip-rule="evenodd" d="M22.9818 95.5288H29.7762V87.4352H22.9818V95.5288Z" stroke="#3A3B38"/>
<path fill-rule="evenodd" clip-rule="evenodd" d="M0 87.4351H43.8622V47H0" fill="white"/>
<path d="M0 87.4351H43.8622V47H0" stroke="#3A3B38"/>
<path fill-rule="evenodd" clip-rule="evenodd" d="M22.9818 55.0937H29.7762V47H22.9818V55.0937Z" stroke="#3A3B38"/>
<path fill-rule="evenodd" clip-rule="evenodd" d="M45.5981 370.272H89.4603V329.836H45.5981V370.272Z" fill="#FFFFFE"/>
<path fill-rule="evenodd" clip-rule="evenodd" d="M45.5981 370.272H89.4603V329.836H45.5981V370.272Z" stroke="#3A3B38"/>
<path fill-rule="evenodd" clip-rule="evenodd" d="M68.58 337.93H75.3744V329.836H68.58V337.93Z" fill="#FFFFFE"/>
<path fill-rule="evenodd" clip-rule="evenodd" d="M68.58 337.93H75.3744V329.836H68.58V337.93Z" stroke="#3A3B38"/>
<path fill-rule="evenodd" clip-rule="evenodd" d="M89.2756 370.272H133.138V329.836H89.2756V370.272Z" fill="#FFFFFE"/>
<path fill-rule="evenodd" clip-rule="evenodd" d="M89.2756 370.272H133.138V329.836H89.2756V370.272Z" stroke="#3A3B38"/>
<path fill-rule="evenodd" clip-rule="evenodd" d="M112.257 337.93H119.052V329.836H112.257V337.93Z" fill="#FFFFFE"/>
<path fill-rule="evenodd" clip-rule="evenodd" d="M112.257 337.93H119.052V329.836H112.257V337.93Z" stroke="#3A3B38"/>
<path fill-rule="evenodd" clip-rule="evenodd" d="M133.138 370.272H177V329.836H133.138V370.272Z" fill="#FFFFFE"/>
<path fill-rule="evenodd" clip-rule="evenodd" d="M133.138 370.272H177V329.836H133.138V370.272Z" stroke="#3A3B38"/>
<path fill-rule="evenodd" clip-rule="evenodd" d="M156.12 337.93H162.914V329.836H156.12V337.93Z" fill="#FFFFFE"/>
<path fill-rule="evenodd" clip-rule="evenodd" d="M156.12 337.93H162.914V329.836H156.12V337.93Z" stroke="#3A3B38"/>
<path fill-rule="evenodd" clip-rule="evenodd" d="M45.5981 329.8H89.4603V289.365H45.5981V329.8Z" fill="#FFFFFE"/>
<path fill-rule="evenodd" clip-rule="evenodd" d="M45.5981 329.8H89.4603V289.365H45.5981V329.8Z" stroke="#3A3B38"/>
<path fill-rule="evenodd" clip-rule="evenodd" d="M68.58 297.459H75.3744V289.365H68.58V297.459Z" fill="#FFFFFE"/>
<path fill-rule="evenodd" clip-rule="evenodd" d="M68.58 297.459H75.3744V289.365H68.58V297.459Z" stroke="#3A3B38"/>
<path fill-rule="evenodd" clip-rule="evenodd" d="M89.2756 329.8H133.138V289.365H89.2756V329.8Z" fill="#FFFFFE"/>
<path fill-rule="evenodd" clip-rule="evenodd" d="M89.2756 329.8H133.138V289.365H89.2756V329.8Z" stroke="#3A3B38"/>
<path fill-rule="evenodd" clip-rule="evenodd" d="M112.257 297.459H119.052V289.365H112.257V297.459Z" fill="#FFFFFE"/>
<path fill-rule="evenodd" clip-rule="evenodd" d="M112.257 297.459H119.052V289.365H112.257V297.459Z" stroke="#3A3B38"/>
<path fill-rule="evenodd" clip-rule="evenodd" d="M133.138 329.8H177V289.365H133.138V329.8Z" fill="#FFFFFE"/>
<path fill-rule="evenodd" clip-rule="evenodd" d="M133.138 329.8H177V289.365H133.138V329.8Z" stroke="#3A3B38"/>
<path fill-rule="evenodd" clip-rule="evenodd" d="M156.12 297.459H162.914V289.365H156.12V297.459Z" fill="#FFFFFE"/>
<path fill-rule="evenodd" clip-rule="evenodd" d="M156.12 297.459H162.914V289.365H156.12V297.459Z" stroke="#3A3B38"/>
<path fill-rule="evenodd" clip-rule="evenodd" d="M133.138 289.8H177V249.365H133.138V289.8Z" fill="#FFFFFE"/>
<path fill-rule="evenodd" clip-rule="evenodd" d="M133.138 289.8H177V249.365H133.138V289.8Z" stroke="#3A3B38"/>
<path fill-rule="evenodd" clip-rule="evenodd" d="M156.12 257.459H162.914V249.365H156.12V257.459Z" fill="#FFFFFE"/>
<path fill-rule="evenodd" clip-rule="evenodd" d="M156.12 257.459H162.914V249.365H156.12V257.459Z" stroke="#3A3B38"/>
<path fill-rule="evenodd" clip-rule="evenodd" d="M45.5981 289.329H89.4603V248.894H45.5981V289.329Z" fill="#FFFFFE"/>
<path fill-rule="evenodd" clip-rule="evenodd" d="M45.5981 289.329H89.4603V248.894H45.5981V289.329Z" stroke="#3A3B38"/>
<path fill-rule="evenodd" clip-rule="evenodd" d="M68.58 256.987H75.3744V248.894H68.58V256.987Z" fill="#FFFFFE"/>
<path fill-rule="evenodd" clip-rule="evenodd" d="M68.58 256.987H75.3744V248.894H68.58V256.987Z" stroke="#3A3B38"/>
<path fill-rule="evenodd" clip-rule="evenodd" d="M45.5981 248.894H89.4603V208.459H45.5981V248.894Z" fill="#FFFFFE"/>
<path fill-rule="evenodd" clip-rule="evenodd" d="M45.5981 248.894H89.4603V208.459H45.5981V248.894Z" stroke="#3A3B38"/>
<path fill-rule="evenodd" clip-rule="evenodd" d="M68.58 216.552H75.3744V208.459H68.58V216.552Z" fill="#FFFFFE"/>
<path fill-rule="evenodd" clip-rule="evenodd" d="M68.58 216.552H75.3744V208.459H68.58V216.552Z" stroke="#3A3B38"/>
<path fill-rule="evenodd" clip-rule="evenodd" d="M45.5981 208.813H89.4603V168.378H45.5981V208.813Z" fill="#FFFFFE"/>
<path fill-rule="evenodd" clip-rule="evenodd" d="M45.5981 208.813H89.4603V168.378H45.5981V208.813Z" stroke="#3A3B38"/>
<path fill-rule="evenodd" clip-rule="evenodd" d="M68.58 176.472H75.3744V168.378H68.58V176.472Z" fill="#FFFFFE"/>
<path fill-rule="evenodd" clip-rule="evenodd" d="M68.58 176.472H75.3744V168.378H68.58V176.472Z" stroke="#3A3B38"/>
<path fill-rule="evenodd" clip-rule="evenodd" d="M45.5981 168.342H89.4603V127.907H45.5981V168.342Z" fill="#FFFFFE"/>
<path fill-rule="evenodd" clip-rule="evenodd" d="M45.5981 168.342H89.4603V127.907H45.5981V168.342Z" stroke="#3A3B38"/>
<path fill-rule="evenodd" clip-rule="evenodd" d="M68.58 136H75.3744V127.907H68.58V136Z" fill="#FFFFFE"/>
<path fill-rule="evenodd" clip-rule="evenodd" d="M68.58 136H75.3744V127.907H68.58V136Z" stroke="#3A3B38"/>
<path fill-rule="evenodd" clip-rule="evenodd" d="M177 369.435H220.862V329H177V369.435Z" fill="#FFFFFE"/>
<path fill-rule="evenodd" clip-rule="evenodd" d="M177 369.435H220.862V329H177V369.435Z" stroke="#3A3B38"/>
<path fill-rule="evenodd" clip-rule="evenodd" d="M199.982 337.094H206.776V329H199.982V337.094Z" fill="#FFFFFE"/>
<path fill-rule="evenodd" clip-rule="evenodd" d="M199.982 337.094H206.776V329H199.982V337.094Z" stroke="#3A3B38"/>
<path fill-rule="evenodd" clip-rule="evenodd" d="M264 369.435H307.862V329H264V369.435Z" fill="#FFFFFE"/>
<path fill-rule="evenodd" clip-rule="evenodd" d="M264 369.435H307.862V329H264V369.435Z" stroke="#3A3B38"/>
<path fill-rule="evenodd" clip-rule="evenodd" d="M286.982 337.094H293.776V329H286.982V337.094Z" fill="#FFFFFE"/>
<path fill-rule="evenodd" clip-rule="evenodd" d="M286.982 337.094H293.776V329H286.982V337.094Z" stroke="#3A3B38"/>
<path fill-rule="evenodd" clip-rule="evenodd" d="M220 369.435H263.862V329H220V369.435Z" fill="#FFFFFE"/>
<path fill-rule="evenodd" clip-rule="evenodd" d="M220 369.435H263.862V329H220V369.435Z" stroke="#3A3B38"/>
<path fill-rule="evenodd" clip-rule="evenodd" d="M242.982 337.094H249.776V329H242.982V337.094Z" fill="#FFFFFE"/>
<path fill-rule="evenodd" clip-rule="evenodd" d="M242.982 337.094H249.776V329H242.982V337.094Z" stroke="#3A3B38"/>
<path fill-rule="evenodd" clip-rule="evenodd" d="M307 369.435H350.862V329H307V369.435Z" fill="#FFFFFE"/>
<path fill-rule="evenodd" clip-rule="evenodd" d="M307 369.435H350.862V329H307V369.435Z" stroke="#3A3B38"/>
<path fill-rule="evenodd" clip-rule="evenodd" d="M329.982 337.094H336.776V329H329.982V337.094Z" fill="#FFFFFE"/>
<path fill-rule="evenodd" clip-rule="evenodd" d="M329.982 337.094H336.776V329H329.982V337.094Z" stroke="#3A3B38"/>
<path fill-rule="evenodd" clip-rule="evenodd" d="M219 329.435H262.862V289H219V329.435Z" fill="#FFFFFE"/>
<path fill-rule="evenodd" clip-rule="evenodd" d="M219 329.435H262.862V289H219V329.435Z" stroke="#3A3B38"/>
<path fill-rule="evenodd" clip-rule="evenodd" d="M241.982 297.094H248.776V289H241.982V297.094Z" fill="#FFFFFE"/>
<path fill-rule="evenodd" clip-rule="evenodd" d="M241.982 297.094H248.776V289H241.982V297.094Z" stroke="#3A3B38"/>
<path fill-rule="evenodd" clip-rule="evenodd" d="M177 329.435H220.862V289H177V329.435Z" fill="#FFFFFE"/>
<path fill-rule="evenodd" clip-rule="evenodd" d="M177 329.435H220.862V289H177V329.435Z" stroke="#3A3B38"/>
<path fill-rule="evenodd" clip-rule="evenodd" d="M199.982 297.094H206.776V289H199.982V297.094Z" fill="#FFFFFE"/>
<path fill-rule="evenodd" clip-rule="evenodd" d="M199.982 297.094H206.776V289H199.982V297.094Z" stroke="#3A3B38"/>
<path fill-rule="evenodd" clip-rule="evenodd" d="M177 289.435H220.862V249H177V289.435Z" fill="#FFFFFE"/>
<path fill-rule="evenodd" clip-rule="evenodd" d="M177 289.435H220.862V249H177V289.435Z" stroke="#3A3B38"/>
<path fill-rule="evenodd" clip-rule="evenodd" d="M199.982 257.094H206.776V249H199.982V257.094Z" fill="#FFFFFE"/>
<path fill-rule="evenodd" clip-rule="evenodd" d="M199.982 257.094H206.776V249H199.982V257.094Z" stroke="#3A3B38"/>
<path fill-rule="evenodd" clip-rule="evenodd" d="M261 329.435H304.862V289H261V329.435Z" fill="#FFFFFE"/>
<path fill-rule="evenodd" clip-rule="evenodd" d="M261 329.435H304.862V289H261V329.435Z" stroke="#3A3B38"/>
<path fill-rule="evenodd" clip-rule="evenodd" d="M283.982 297.094H290.776V289H283.982V297.094Z" fill="#FFFFFE"/>
<path fill-rule="evenodd" clip-rule="evenodd" d="M283.982 297.094H290.776V289H283.982V297.094Z" stroke="#3A3B38"/>
<path fill-rule="evenodd" clip-rule="evenodd" d="M89.2756 289.329H133.138V248.894H89.2756V289.329Z" fill="#FFFFFE"/>
<path fill-rule="evenodd" clip-rule="evenodd" d="M89.2756 289.329H133.138V248.894H89.2756V289.329Z" stroke="#3A3B38"/>
<path fill-rule="evenodd" clip-rule="evenodd" d="M112.257 256.987H119.052V248.894H112.257V256.987Z" fill="#FFFFFE"/>
<path fill-rule="evenodd" clip-rule="evenodd" d="M112.257 256.987H119.052V248.894H112.257V256.987Z" stroke="#3A3B38"/>
<path fill-rule="evenodd" clip-rule="evenodd" d="M89.2756 248.894H133.138V208.459H89.2756V248.894Z" fill="#FFFFFE"/>
<path fill-rule="evenodd" clip-rule="evenodd" d="M89.2756 248.894H133.138V208.459H89.2756V248.894Z" stroke="#3A3B38"/>
<path fill-rule="evenodd" clip-rule="evenodd" d="M112.257 216.552H119.052V208.459H112.257V216.552Z" fill="#FFFFFE"/>
<path fill-rule="evenodd" clip-rule="evenodd" d="M112.257 216.552H119.052V208.459H112.257V216.552Z" stroke="#3A3B38"/>
<g clip-path="url(#clip1_562_2139)">
<path d="M16.8388 19.6762C12.3859 21.8195 9.1946 24.1285 7.08238 26.7345C5.17953 29.0824 4.21789 31.6362 4.20195 34.3618L4.20564 34.7345L3.47107 35.1877C1.40685 36.4615 0.406437 38.7415 0.860184 41.138C1.26849 43.2947 2.74225 44.9294 4.77467 45.5375C5.48975 45.7516 6.12422 44.925 5.72678 44.2859C5.00267 43.1214 4.87437 41.7134 5.78873 40.6105C7.0554 42.7715 8.71751 43.4746 9.67241 43.7032L9.78353 43.7284L9.69101 45.0725C9.65035 45.595 9.82299 46.1597 10.1036 46.6071L10.2137 46.769H24.7069C24.1088 46.769 23.5971 46.3705 23.4459 45.8051L23.4191 45.6814L21.8046 36.0244C21.7965 35.9768 21.7831 35.9304 21.7642 35.886C21.7521 35.8574 20.5362 32.9232 20.6773 29.2646C20.6905 28.9248 20.4259 28.6387 20.0862 28.6257C19.746 28.6081 19.4605 28.8773 19.4475 29.2171C19.3102 32.7724 20.3373 35.6215 20.5814 36.2438L20.602 36.2956L21.2272 40.0357C19.4036 41.064 17.8012 41.7701 16.4364 42.1504C17.0643 41.2446 17.7165 39.9399 17.7887 38.3588C17.8797 36.3664 17.0333 34.4312 15.2732 32.607C15.0374 32.3623 14.6477 32.3551 14.4031 32.5916C14.1587 32.8277 14.1518 33.2174 14.3879 33.4621C15.9001 35.0293 16.6309 36.6541 16.5599 38.2911C16.4538 40.7355 14.5792 42.4726 14.4361 42.6016L14.3597 42.6779C14.0551 43.0369 14.2716 43.6133 14.7352 43.6846L14.8312 43.6919L17.986 43.6968C18.8059 43.698 19.473 44.3641 19.473 45.1815C19.473 45.9466 18.8649 46.5876 18.12 46.6595L17.9789 46.6661L12.4017 46.6477C11.6365 46.6454 10.9831 46.0277 10.9241 45.2763L10.9199 45.1424L11.0508 43.24C11.0749 42.8909 10.7917 42.5851 10.4422 42.582C10.3217 42.5789 7.36013 42.4551 5.99129 37.9817C4.8038 34.1001 5.47334 30.6749 8.03828 27.5101C10.006 25.0823 13.1463 22.8199 17.3724 20.7859C17.6787 20.6384 17.8076 20.2706 17.6602 19.9641C17.5127 19.6576 17.1448 19.5289 16.8388 19.6762ZM24.492 3.97025L24.3568 4.1997L23.1075 5.26535C20.6484 7.36332 19.5598 10.6238 20.2666 13.7746C20.8401 16.331 22.5142 18.471 24.8596 19.6459C25.584 20.0087 26.5151 19.735 26.9266 19.0361C27.3552 18.3081 27.5777 17.499 27.5873 16.6771C28.2667 17.4952 28.9533 18.3072 29.6114 19.1427C30.6775 20.4962 32.2978 21.2403 33.954 21.2405C34.3029 21.2405 36.7303 20.9692 36.7303 20.4949C36.6949 27.3167 32.2169 32.5159 26.9694 36.2914C27.7021 33.3745 27.4321 30.5425 27.0601 28.6375C26.9948 28.3039 26.6715 28.0858 26.3381 28.1514C26.0046 28.2166 25.7869 28.54 25.8521 28.8736C26.2192 30.7537 26.4827 33.5941 25.6529 36.4479C24.3738 40.8457 26.9376 43.7223 27.7538 44.4993C28.5673 45.2735 28.1069 46.6651 27.006 46.7635L26.8811 46.769H37.842C38.6708 45.5641 38.4149 43.8574 37.2632 42.9521C35.6153 41.6563 35.2895 39.7875 36.2953 37.3979C38.1024 33.1039 37.3548 28.3324 36.8923 26.2929C37.6884 24.1388 38.0651 21.8296 37.9356 19.5339C39.2933 18.1094 39.4358 16.393 39.4666 14.5918L39.4734 14.075L39.4762 13.8153C39.7957 14.1849 40.1776 14.5015 40.6076 14.7446C41.3644 15.1723 42.3714 14.9284 42.8485 14.2035C44.2345 12.0966 44.6108 9.50456 43.8807 7.09183C42.9786 4.11091 40.558 1.89488 37.5244 1.24829L37.2383 1.1923L35.3155 0.849322C31.4897 -1.0514 26.7098 0.345184 24.492 3.97025ZM36.0101 28.308C36.3269 30.562 36.4371 33.8871 35.1608 36.9197C33.9311 39.8419 34.3951 42.2625 36.5026 43.9198C37.1731 44.4469 37.2989 45.4501 36.7858 46.1307C36.5141 46.491 36.1148 46.7149 35.6721 46.7602L35.5042 46.7687H34.2949C33.5448 46.7687 32.9119 46.2654 32.738 45.5525L32.7094 45.4072L32.0874 41.2701L31.8144 33.9691C33.4981 32.3198 34.9407 30.4108 36.0101 28.308ZM30.6235 35.0591L30.8586 41.3507L30.861 41.385L30.8651 41.4192L31.4922 45.5903C31.547 45.9544 31.6679 46.2922 31.8414 46.5929L31.9518 46.7687H29.0562C29.672 45.7408 29.4627 44.4257 28.6022 43.6067C27.9962 43.0299 26.2498 41.0796 26.5769 38.0792C27.9523 37.1176 29.3469 36.151 30.6235 35.0591ZM21.4428 41.3232L22.2053 45.8843C22.2482 46.1416 22.3292 46.3836 22.4413 46.6057L22.531 46.7686H20.191C20.5237 46.3094 20.7038 45.7594 20.7039 45.1813C20.7039 43.983 19.9215 42.9627 18.8403 42.6032C19.6508 42.2591 20.5178 41.8318 21.4428 41.3232ZM4.31857 36.1116C4.47426 37.2449 4.76462 38.373 5.20432 39.43C3.96349 40.6425 3.57415 42.3324 4.1958 43.9622C2.94122 43.2442 2.27763 42.0083 2.06953 40.909C1.69988 38.9567 2.62655 37.1068 4.31857 36.1116ZM12.6987 30.3908C12.3014 30.3908 11.9792 30.7123 11.9792 31.109C11.9792 31.5057 12.3014 31.8273 12.6987 31.8273C13.0961 31.8273 13.4182 31.5057 13.4182 31.109C13.4182 30.7123 13.0961 30.3908 12.6987 30.3908ZM31.6191 1.21107C35.6448 1.21107 38.9354 4.72747 38.7005 8.72055L38.683 8.95143L38.2496 13.6289C38.1844 14.3408 38.2304 15.0778 38.222 15.7926C38.2019 17.5005 37.1674 19.0281 35.5867 19.6841C33.441 20.5746 31.642 19.5589 30.2717 17.9788L30.1315 17.8134L26.0779 12.932C24.2192 10.6937 23.9271 7.47603 25.352 4.93889C26.6143 2.59918 29.0588 1.21107 31.6191 1.21107ZM19.7414 18.0623C19.3441 18.0623 19.0219 18.3838 19.0219 18.7805C19.0219 19.1772 19.3441 19.4988 19.7414 19.4988C20.1388 19.4988 20.4609 19.1772 20.4609 18.7805C20.4609 18.3838 20.1388 18.0623 19.7414 18.0623ZM23.3909 6.68618C22.7146 9.84405 24.0366 12.4008 25.9893 14.7523C26.3178 16.0078 26.5752 17.2067 25.8662 18.4109C25.774 18.5676 25.574 18.6264 25.4108 18.5445C23.3971 17.5358 21.9598 15.699 21.4676 13.5048C20.913 11.0324 21.6475 8.48148 23.3909 6.68618ZM33.9203 14.2199L32.838 14.7235C31.9877 15.1192 31.9613 16.3163 32.7933 16.749L33.7483 17.2456C34.4472 17.609 35.295 17.1664 35.3943 16.3861L35.5215 15.3859C35.6338 14.5037 34.7279 13.844 33.9203 14.2199ZM1.16665 15.0858C0.826851 15.0858 0.551258 15.3615 0.551258 15.7015C0.551258 16.0415 0.826851 16.3172 1.16665 16.3172H8.64106C8.98085 16.3172 9.25645 16.0415 9.25645 15.7015C9.25645 15.3615 8.98085 15.0858 8.64106 15.0858H1.16665ZM37.6201 2.53764C40.0481 3.18124 41.9669 5.01653 42.7028 7.44824C43.3267 9.5101 43.0051 11.7255 41.8204 13.5261C41.6888 13.7261 41.422 13.7903 41.213 13.6722C40.4444 13.2376 39.9771 12.5273 39.7381 11.7051L39.6831 11.4973L39.9084 9.06507C40.1295 6.67931 39.2819 4.26227 37.6201 2.53764ZM28.5401 9.96959C28.0887 9.96959 27.7228 10.3608 27.7228 10.8434C27.7228 11.3261 28.0887 11.7173 28.5401 11.7173C28.9914 11.7173 29.3573 11.3261 29.3573 10.8434C29.3573 10.3608 28.9914 9.96959 28.5401 9.96959ZM8.34618 8.31337C8.00639 8.31337 7.7308 8.58907 7.7308 8.92907C7.7308 9.26917 8.00639 9.54477 8.34618 9.54477H15.8206C16.1604 9.54477 16.436 9.26907 16.436 8.92907C16.436 8.58907 16.1604 8.31337 15.8206 8.31337H8.34618ZM35.3116 7.69757C34.8602 7.69757 34.4944 8.06273 34.4944 8.51317C34.4944 8.96361 34.8602 9.32876 35.3116 9.32876C35.7629 9.32876 36.1288 8.96361 36.1288 8.51317C36.1288 8.06273 35.7629 7.69757 35.3116 7.69757Z" fill="black"/>
</g>
<defs>
<clipPath id="clip0_562_2139">
<rect width="424" height="282" fill="white" transform="translate(485 89)"/>
</clipPath>
<clipPath id="clip1_562_2139">
<rect width="45" height="47" fill="white"/>
</clipPath>
</defs>
</svg>
