<svg width="1144" height="352" viewBox="0 0 1144 352" fill="none" xmlns="http://www.w3.org/2000/svg">
<g clip-path="url(#clip0_562_2420)">
<path fill-rule="evenodd" clip-rule="evenodd" d="M955.134 325.285H1023.82V256.563H955.134V325.285Z" fill="#FFFFFE"/>
<path fill-rule="evenodd" clip-rule="evenodd" d="M955.134 325.285H1023.82V256.563H955.134V325.285Z" stroke="#3A3B38"/>
<path fill-rule="evenodd" clip-rule="evenodd" d="M981.494 264.55H997.458V256.563H981.494V264.55Z" fill="#FFFFFE"/>
<path fill-rule="evenodd" clip-rule="evenodd" d="M981.494 264.55H997.458V256.563H981.494V264.55Z" stroke="#3A3B38"/>
<path fill-rule="evenodd" clip-rule="evenodd" d="M1024.3 324.943H1092.98V256.22H1024.3V324.943Z" fill="#FFFFFE"/>
<path fill-rule="evenodd" clip-rule="evenodd" d="M1024.3 324.943H1092.98V256.22H1024.3V324.943Z" stroke="#3A3B38"/>
<path fill-rule="evenodd" clip-rule="evenodd" d="M1050.66 264.208H1066.62V256.22H1050.66V264.208Z" fill="#FFFFFE"/>
<path fill-rule="evenodd" clip-rule="evenodd" d="M1050.66 264.208H1066.62V256.22H1050.66V264.208Z" stroke="#3A3B38"/>
<path fill-rule="evenodd" clip-rule="evenodd" d="M989.603 256.008H1058.29V187.287H989.603V256.008Z" fill="#FFFFFE"/>
<path fill-rule="evenodd" clip-rule="evenodd" d="M989.603 256.008H1058.29V187.287H989.603V256.008Z" stroke="#3A3B38"/>
<path fill-rule="evenodd" clip-rule="evenodd" d="M1015.96 195.274H1031.93V187.287H1015.96V195.274Z" fill="#FFFFFE"/>
<path fill-rule="evenodd" clip-rule="evenodd" d="M1015.96 195.274H1031.93V187.287H1015.96V195.274Z" stroke="#3A3B38"/>
<path fill-rule="evenodd" clip-rule="evenodd" d="M1092.98 325.285H1161.66V256.563H1092.98V325.285Z" fill="#FFFFFE"/>
<path fill-rule="evenodd" clip-rule="evenodd" d="M1092.98 325.285H1161.66V256.563H1092.98V325.285Z" stroke="#3A3B38"/>
<path fill-rule="evenodd" clip-rule="evenodd" d="M1119.34 264.55H1135.3V256.563H1119.34V264.55Z" fill="#FFFFFE"/>
<path fill-rule="evenodd" clip-rule="evenodd" d="M1119.34 264.55H1135.3V256.563H1119.34V264.55Z" stroke="#3A3B38"/>
<path fill-rule="evenodd" clip-rule="evenodd" d="M1027.24 186.508H1095.92V117.79H1027.24V186.508Z" fill="#FFFFFE"/>
<path fill-rule="evenodd" clip-rule="evenodd" d="M1027.24 186.508H1095.92V117.79H1027.24V186.508Z" stroke="#3A3B38"/>
<path fill-rule="evenodd" clip-rule="evenodd" d="M1053.6 125.779H1069.57V117.79H1053.6V125.779Z" fill="#FFFFFE"/>
<path fill-rule="evenodd" clip-rule="evenodd" d="M1053.6 125.779H1069.57V117.79H1053.6V125.779Z" stroke="#3A3B38"/>
<path fill-rule="evenodd" clip-rule="evenodd" d="M1058.52 256.008H1127.21V187.287H1058.52V256.008Z" fill="#FFFFFE"/>
<path fill-rule="evenodd" clip-rule="evenodd" d="M1058.52 256.008H1127.21V187.287H1058.52V256.008Z" stroke="#3A3B38"/>
<path fill-rule="evenodd" clip-rule="evenodd" d="M1084.88 195.274H1100.85V187.287H1084.88V195.274Z" fill="#FFFFFE"/>
<path fill-rule="evenodd" clip-rule="evenodd" d="M1084.88 195.274H1100.85V187.287H1084.88V195.274Z" stroke="#3A3B38"/>
<path fill-rule="evenodd" clip-rule="evenodd" d="M35.7799 259.098H976.118V242.024H35.7799V259.098Z" fill="#FFFFFE"/>
<path fill-rule="evenodd" clip-rule="evenodd" d="M35.7799 259.098H976.118V242.024H35.7799V259.098Z" stroke="#0A0B09"/>
<path fill-rule="evenodd" clip-rule="evenodd" d="M992.138 242.024H19.762C10.8054 242.024 3.54443 234.763 3.54443 225.807V225.798C3.54443 216.842 10.8054 209.581 19.762 209.581H992.138C1001.09 209.581 1008.35 216.842 1008.35 225.798V225.807C1008.35 234.763 1001.09 242.024 992.138 242.024Z" fill="#FFFFFE"/>
<path fill-rule="evenodd" clip-rule="evenodd" d="M992.138 242.024H19.762C10.8054 242.024 3.54443 234.763 3.54443 225.807V225.798C3.54443 216.842 10.8054 209.581 19.762 209.581H992.138C1001.09 209.581 1008.35 216.842 1008.35 225.798V225.807C1008.35 234.763 1001.09 242.024 992.138 242.024Z" stroke="#0A0B09"/>
<path fill-rule="evenodd" clip-rule="evenodd" d="M19.7569 211.789C12.0323 211.789 5.74934 218.077 5.74934 225.803C5.74934 233.53 12.0323 239.818 19.7569 239.818H992.145C999.866 239.818 1006.15 233.53 1006.15 225.803C1006.15 218.077 999.866 211.789 992.145 211.789H19.7569ZM992.145 244.231H19.7569C9.60236 244.231 1.3396 235.963 1.3396 225.803C1.3396 215.642 9.60236 207.376 19.7569 207.376H992.145C1002.3 207.376 1010.56 215.642 1010.56 225.803C1010.56 235.963 1002.3 244.231 992.145 244.231Z" fill="#FFFFFE"/>
<path fill-rule="evenodd" clip-rule="evenodd" d="M19.7569 211.789C12.0323 211.789 5.74934 218.077 5.74934 225.803C5.74934 233.53 12.0323 239.818 19.7569 239.818H992.145C999.866 239.818 1006.15 233.53 1006.15 225.803C1006.15 218.077 999.866 211.789 992.145 211.789H19.7569ZM992.145 244.231H19.7569C9.60236 244.231 1.3396 235.963 1.3396 225.803C1.3396 215.642 9.60236 207.376 19.7569 207.376H992.145C1002.3 207.376 1010.56 215.642 1010.56 225.803C1010.56 235.963 1002.3 244.231 992.145 244.231Z" stroke="#3A3B38"/>
<path fill-rule="evenodd" clip-rule="evenodd" d="M32.8948 225.803C32.8948 230.706 28.9233 234.679 24.0228 234.679C19.1224 234.679 15.1526 230.706 15.1526 225.803C15.1526 220.901 19.1224 216.928 24.0228 216.928C28.9233 216.928 32.8948 220.901 32.8948 225.803Z" fill="#FFFFFE"/>
<path fill-rule="evenodd" clip-rule="evenodd" d="M32.8948 225.803C32.8948 230.706 28.9233 234.679 24.0228 234.679C19.1224 234.679 15.1526 230.706 15.1526 225.803C15.1526 220.901 19.1224 216.928 24.0228 216.928C28.9233 216.928 32.8948 220.901 32.8948 225.803Z" stroke="#3A3B38"/>
<path fill-rule="evenodd" clip-rule="evenodd" d="M497.389 225.803C497.389 230.706 493.418 234.679 488.517 234.679C483.617 234.679 479.647 230.706 479.647 225.803C479.647 220.901 483.617 216.928 488.517 216.928C493.418 216.928 497.389 220.901 497.389 225.803Z" fill="#FFFFFE"/>
<path fill-rule="evenodd" clip-rule="evenodd" d="M497.389 225.803C497.389 230.706 493.418 234.679 488.517 234.679C483.617 234.679 479.647 230.706 479.647 225.803C479.647 220.901 483.617 216.928 488.517 216.928C493.418 216.928 497.389 220.901 497.389 225.803Z" stroke="#3A3B38"/>
<path fill-rule="evenodd" clip-rule="evenodd" d="M995.727 225.803C995.727 230.706 991.755 234.679 986.857 234.679C981.954 234.679 977.985 230.706 977.985 225.803C977.985 220.901 981.954 216.928 986.857 216.928C991.755 216.928 995.727 220.901 995.727 225.803Z" fill="#FFFFFE"/>
<path fill-rule="evenodd" clip-rule="evenodd" d="M995.727 225.803C995.727 230.706 991.755 234.679 986.857 234.679C981.954 234.679 977.985 230.706 977.985 225.803C977.985 220.901 981.954 216.928 986.857 216.928C991.755 216.928 995.727 220.901 995.727 225.803Z" stroke="#3A3B38"/>
<path fill-rule="evenodd" clip-rule="evenodd" d="M447.007 207.171H535.923V118.212H447.007V207.171Z" fill="#FFFFFE"/>
<path fill-rule="evenodd" clip-rule="evenodd" d="M447.007 207.171H535.923V118.212H447.007V207.171Z" stroke="#3A3B38"/>
<path fill-rule="evenodd" clip-rule="evenodd" d="M481.129 128.552H501.799V118.212H481.129V128.552Z" fill="#FFFFFE"/>
<path fill-rule="evenodd" clip-rule="evenodd" d="M481.129 128.552H501.799V118.212H481.129V128.552Z" stroke="#3A3B38"/>
<path fill-rule="evenodd" clip-rule="evenodd" d="M603.044 207.171H691.959V118.212H603.044V207.171Z" fill="#FFFFFE"/>
<path fill-rule="evenodd" clip-rule="evenodd" d="M603.044 207.171H691.959V118.212H603.044V207.171Z" stroke="#3A3B38"/>
<path fill-rule="evenodd" clip-rule="evenodd" d="M754 207.171H842.916V118.212H754V207.171Z" stroke="#3A3B38"/>
<path fill-rule="evenodd" clip-rule="evenodd" d="M637.166 128.552H657.834V118.212H637.166V128.552Z" fill="#FFFFFE"/>
<path fill-rule="evenodd" clip-rule="evenodd" d="M637.166 128.552H657.834V118.212H637.166V128.552Z" stroke="#3A3B38"/>
<path fill-rule="evenodd" clip-rule="evenodd" d="M788.122 128.552H808.79V118.212H788.122V128.552Z" stroke="#3A3B38"/>
<path fill-rule="evenodd" clip-rule="evenodd" d="M290.969 207.171H379.883V118.212H290.969V207.171Z" fill="#FFFFFE"/>
<path fill-rule="evenodd" clip-rule="evenodd" d="M290.969 207.171H379.883V118.212H290.969V207.171Z" stroke="#3A3B38"/>
<path fill-rule="evenodd" clip-rule="evenodd" d="M325.091 128.552H345.761V118.212H325.091V128.552Z" fill="#FFFFFE"/>
<path fill-rule="evenodd" clip-rule="evenodd" d="M325.091 128.552H345.761V118.212H325.091V128.552Z" stroke="#3A3B38" stroke-width="1.5"/>
<path fill-rule="evenodd" clip-rule="evenodd" d="M902.038 63.9647L891.837 49.0417C891.837 49.0417 886.989 53.2703 882.888 53.0233C878.784 52.7745 882.39 42.7012 882.39 42.7012C882.39 42.7012 880.026 39.0952 880.649 36.6094C880.649 36.6094 874.803 26.2857 878.784 16.7115C878.784 16.7115 879.522 2.59558 895.443 0.920358C902.534 0.175813 911.236 4.52802 914.967 11.74L916.832 11.8635L920.563 17.209C920.563 17.209 919.572 18.4527 917.827 18.4527C916.089 18.4527 915.465 18.4527 915.465 18.4527L917.577 21.6881C917.577 21.6881 921.064 22.0604 920.318 26.0403C920.318 26.0403 924.42 30.8883 923.051 37.8515L925.166 43.5709C925.166 43.5709 930.388 43.4491 933.996 47.5509L937.351 51.5308C937.351 51.5308 958.615 56.1318 963.337 58.8663C963.337 58.8663 978.386 75.0314 980.376 85.3535C982.366 95.6739 985.351 109.6 985.351 109.6C985.351 109.6 985.97 114.824 985.472 117.435C984.975 120.046 981.371 124.772 976.396 126.263C971.426 127.757 968.065 125.891 968.065 125.891C968.065 125.891 966.573 133.353 969.182 135.465C971.795 137.578 972.668 141.683 972.668 141.683C972.668 141.683 970.675 145.91 968.812 146.782C968.812 146.782 970.802 148.523 970.304 148.768C969.807 149.021 967.942 150.884 967.942 150.884C967.942 150.884 969.807 158.595 970.055 163.57C970.304 168.541 970.304 188.811 970.304 194.284C970.304 199.754 969.309 243.774 969.309 248.373C969.309 252.974 969.434 263.296 970.923 267.027C972.418 270.757 970.055 285.553 970.055 285.553C970.055 285.553 970.304 297.865 970.304 300.353C970.304 302.838 972.292 309.803 966.947 312.908C966.947 312.908 969.558 314.279 966.698 316.393C966.698 316.393 967.444 319.252 965.578 323.606C965.578 323.606 971.049 334.798 971.049 339.77C971.049 344.744 969.807 348.474 969.807 348.474C969.807 348.474 966.079 350.838 959.857 350.838C953.641 350.838 949.291 347.479 949.291 343.003C949.291 338.527 949.538 334.671 947.423 332.06C945.311 329.451 945.809 327.085 945.809 327.085C945.809 327.085 941.827 322.733 943.94 319.252C943.94 319.252 941.456 315.398 943.819 313.782C943.819 313.782 940.336 312.661 940.585 309.055C940.834 305.449 944.193 292.146 944.193 292.146C944.193 292.146 945.188 268.27 943.819 263.917C942.448 259.563 940.957 250.487 940.957 250.487C940.957 250.487 938.969 244.519 937.101 241.161C935.239 237.806 931.258 221.763 931.258 221.763C931.258 221.763 928.897 238.427 929.143 243.028C929.393 247.627 925.411 262.548 926.034 266.528C926.66 270.508 927.28 279.959 927.029 281.453C926.782 282.942 923.922 303.087 923.922 303.087C923.922 303.087 925.664 307.192 925.411 309.927C925.166 312.661 925.041 318.134 925.041 318.134C925.041 318.134 925.041 323.232 924.669 324.474C924.295 325.72 924.545 328.082 924.545 328.082C924.545 328.082 918.203 333.179 916.46 333.179C914.72 333.179 912.729 332.307 912.729 332.307C912.729 332.307 907.258 336.289 906.261 337.159C905.27 338.028 896.191 344.621 888.11 343.624C880.026 342.631 878.534 339.521 878.534 339.521L879.033 334.422L879.654 333.678C879.654 333.678 887.24 326.588 889.976 325.097C892.711 323.606 898.181 314.651 898.181 314.651C898.181 314.651 898.181 308.059 898.058 305.575C897.931 303.087 898.428 301.843 898.428 301.843C898.428 301.843 897.186 289.286 897.063 284.809C896.938 280.333 898.181 276.972 898.181 276.972C898.181 276.972 896.938 264.664 897.686 257.45C898.428 250.24 897.809 244.893 897.809 240.542C897.809 236.19 898.681 224.126 897.686 218.531C896.689 212.935 896.066 199.381 896.066 199.381C896.066 199.381 900.418 176.125 899.302 173.142C898.181 170.159 898.058 167.049 898.926 165.807C899.799 164.563 899.55 162.449 899.55 162.449L895.696 137.829C895.696 137.829 892.711 142.927 888.605 143.298C884.504 143.675 884.38 144.792 881.891 144.171C879.405 143.548 872.313 141.807 871.447 137.331C870.577 132.854 873.684 123.278 873.684 123.278C873.684 123.278 872.193 119.051 873.31 115.445C874.43 111.841 881.021 92.4402 881.021 92.4402C881.021 92.4402 882.636 83.24 884.257 80.2533C885.869 77.2701 902.038 63.9647 902.038 63.9647Z" fill="#FFFFFE"/>
<path fill-rule="evenodd" clip-rule="evenodd" d="M902.038 63.9647L891.837 49.0417C891.837 49.0417 886.989 53.2703 882.888 53.0233C878.784 52.7745 882.39 42.7012 882.39 42.7012C882.39 42.7012 880.026 39.0952 880.649 36.6094C880.649 36.6094 874.803 26.2857 878.784 16.7115C878.784 16.7115 879.522 2.59558 895.443 0.920358C902.534 0.175813 911.236 4.52802 914.967 11.74L916.832 11.8635L920.563 17.209C920.563 17.209 919.572 18.4527 917.827 18.4527C916.089 18.4527 915.465 18.4527 915.465 18.4527L917.577 21.6881C917.577 21.6881 921.064 22.0604 920.318 26.0403C920.318 26.0403 924.42 30.8883 923.051 37.8515L925.166 43.5709C925.166 43.5709 930.388 43.4491 933.996 47.5509L937.351 51.5308C937.351 51.5308 958.615 56.1318 963.337 58.8663C963.337 58.8663 978.386 75.0314 980.376 85.3535C982.366 95.6739 985.351 109.6 985.351 109.6C985.351 109.6 985.97 114.824 985.472 117.435C984.975 120.046 981.371 124.772 976.396 126.263C971.426 127.757 968.065 125.891 968.065 125.891C968.065 125.891 966.573 133.353 969.182 135.465C971.795 137.578 972.668 141.683 972.668 141.683C972.668 141.683 970.675 145.91 968.812 146.782C968.812 146.782 970.802 148.523 970.304 148.768C969.807 149.021 967.942 150.884 967.942 150.884C967.942 150.884 969.807 158.595 970.055 163.57C970.304 168.541 970.304 188.811 970.304 194.284C970.304 199.754 969.309 243.774 969.309 248.373C969.309 252.974 969.434 263.296 970.923 267.027C972.418 270.757 970.055 285.553 970.055 285.553C970.055 285.553 970.304 297.865 970.304 300.353C970.304 302.838 972.292 309.803 966.947 312.908C966.947 312.908 969.558 314.279 966.698 316.393C966.698 316.393 967.444 319.252 965.578 323.606C965.578 323.606 971.049 334.798 971.049 339.77C971.049 344.744 969.807 348.474 969.807 348.474C969.807 348.474 966.079 350.838 959.857 350.838C953.641 350.838 949.291 347.479 949.291 343.003C949.291 338.528 949.538 334.671 947.423 332.06C945.311 329.451 945.809 327.085 945.809 327.085C945.809 327.085 941.827 322.733 943.94 319.252C943.94 319.252 941.456 315.398 943.819 313.782C943.819 313.782 940.336 312.661 940.585 309.055C940.834 305.449 944.193 292.146 944.193 292.146C944.193 292.146 945.188 268.27 943.819 263.917C942.448 259.563 940.957 250.487 940.957 250.487C940.957 250.487 938.969 244.519 937.101 241.161C935.239 237.806 931.258 221.763 931.258 221.763C931.258 221.763 928.897 238.427 929.143 243.028C929.393 247.627 925.411 262.548 926.034 266.528C926.66 270.508 927.28 279.959 927.029 281.453C926.782 282.942 923.922 303.087 923.922 303.087C923.922 303.087 925.664 307.192 925.411 309.927C925.166 312.661 925.041 318.134 925.041 318.134C925.041 318.134 925.041 323.232 924.669 324.474C924.295 325.72 924.545 328.082 924.545 328.082C924.545 328.082 918.203 333.179 916.46 333.179C914.72 333.179 912.729 332.307 912.729 332.307C912.729 332.307 907.258 336.289 906.261 337.159C905.27 338.028 896.191 344.621 888.11 343.624C880.026 342.631 878.534 339.521 878.534 339.521L879.033 334.422L879.654 333.678C879.654 333.678 887.24 326.588 889.976 325.097C892.711 323.606 898.181 314.651 898.181 314.651C898.181 314.651 898.181 308.059 898.058 305.575C897.931 303.087 898.428 301.843 898.428 301.843C898.428 301.843 897.186 289.286 897.063 284.809C896.938 280.333 898.181 276.972 898.181 276.972C898.181 276.972 896.938 264.664 897.686 257.45C898.428 250.24 897.809 244.893 897.809 240.542C897.809 236.19 898.681 224.126 897.686 218.531C896.689 212.935 896.066 199.381 896.066 199.381C896.066 199.381 900.418 176.125 899.302 173.142C898.181 170.159 898.058 167.049 898.926 165.807C899.799 164.563 899.55 162.449 899.55 162.449L895.696 137.829C895.696 137.829 892.711 142.927 888.605 143.298C884.504 143.675 884.38 144.792 881.891 144.171C879.405 143.548 872.313 141.807 871.447 137.331C870.577 132.854 873.684 123.278 873.684 123.278C873.684 123.278 872.193 119.051 873.31 115.445C874.43 111.841 881.021 92.4402 881.021 92.4402C881.021 92.4402 882.636 83.24 884.257 80.2533C885.869 77.2701 902.038 63.9647 902.038 63.9647Z" stroke="#3A3B38" stroke-width="1.5"/>
<path fill-rule="evenodd" clip-rule="evenodd" d="M918.822 58.8662C918.822 58.8662 916.959 65.4571 912.854 66.4521C908.75 67.4471 904.273 66.5773 902.038 63.9647" fill="#FFFFFE"/>
<path d="M918.822 58.8662C918.822 58.8662 916.959 65.4571 912.854 66.4521C908.75 67.4471 904.273 66.5773 902.038 63.9647" stroke="#3A3B38" stroke-width="1.5"/>
<path d="M906.141 49.9148C906.141 49.9148 906.639 51.4056 904.896 51.903C903.155 52.4005 902.906 53.6443 902.41 54.2653C901.913 54.888 899.672 55.8813 899.175 53.7678C898.681 51.656 896.442 45.3121 896.442 45.3121" stroke="#3A3B38"/>
<path d="M899.55 42.0819L904.398 38.9717C904.398 38.9717 906.012 38.2255 907.632 38.4742M901.043 43.6945C901.043 43.6945 901.164 43.6945 902.41 43.6945C903.652 43.6945 905.644 43.6945 906.51 41.2121L901.043 43.6945ZM895.443 47.0551C895.443 47.0551 895.944 48.6711 893.206 49.0417L895.443 47.0551Z" stroke="#3A3B38" stroke-width="0.5"/>
<path d="M910.245 55.7578L908.503 56.1318L907.008 57.3755C907.008 57.3755 905.644 58.6175 904.273 58.6175C904.273 58.6175 903.777 59.1167 903.777 60.8546" stroke="#3A3B38"/>
<path d="M918.137 33.391C918.137 33.391 920.502 32.8901 920.502 34.4469C920.502 36.0003 920.191 36.4352 920.191 36.4352M918.45 38.4251C918.45 38.4251 919.694 37.1814 918.947 36.3117C918.203 35.4419 918.203 32.7057 918.325 31.462C918.45 30.2182 918.325 29.3485 919.443 29.5955C920.563 29.8443 921.064 32.083 921.064 32.083L918.45 38.4251Z" stroke="#3A3B38" stroke-width="0.5"/>
<path d="M945.311 106.493C945.311 106.493 946.8 110.969 946.553 113.455C946.304 115.942 946.304 125.146 946.304 125.146M920.066 25.8525C920.066 25.8525 918.325 25.2332 917.392 26.9084C916.46 28.587 915.9 30.577 915.9 31.6346C915.9 32.6922 916.646 35.738 916.646 35.738L914.906 36.6095C914.906 36.6095 912.916 33.3132 912.916 31.9459C912.916 30.577 913.911 27.7815 912.979 27.345C912.047 26.9084 910.552 26.2265 910.552 26.2265L920.066 25.8525ZM916.646 18.4527C916.646 18.4527 913.228 18.7032 911.734 21.749C910.245 24.7949 910.368 28.8374 905.207 34.9901C900.048 41.1461 896.256 45.6879 891.465 49.4783L916.646 18.4527ZM914.224 11.8009C914.224 11.8009 911.549 13.2308 908.194 17.4578C904.833 21.6881 903.154 23.9878 900.667 25.8525C898.181 27.7172 891.155 30.577 892.276 33.4367C893.392 36.2981 894.516 36.9818 894.516 36.9818L914.224 11.8009ZM907.383 28.5261C907.383 28.5261 905.019 31.8224 900.978 34.6195C896.937 37.4149 891.531 39.8415 889.913 40.7755C888.294 41.7045 886.057 43.0126 886.057 43.0126C886.057 43.0126 882.635 37.4792 882.141 37.4149C881.644 37.3557 880.962 37.1679 880.962 37.1679L907.383 28.5261ZM954.883 64.2152C954.883 64.2152 950.034 74.9079 950.656 81.3719C951.279 87.8409 955.504 98.9076 955.504 98.9076L954.883 64.2152ZM958.865 83.6123L955.134 101.519L958.865 83.6123ZM928.772 46.1837C928.772 46.1837 930.014 55.262 922.802 62.9681L916.46 76.2768L928.772 46.1837ZM917.333 97.2916C917.333 97.2916 916.338 82.7425 916.338 78.639C916.338 74.5339 907.632 67.8195 907.632 67.8195L902.533 64.711L917.333 97.2916ZM915.84 77.8945C915.84 77.8945 915.218 77.2701 912.607 76.7743C909.994 76.2768 904.896 71.1767 903.53 71.1767C902.159 71.1767 900.667 71.3019 900.667 71.3019L915.84 77.8945ZM902.159 63.2202C902.159 63.2202 901.787 68.3203 900.296 69.1867C898.804 70.0582 896.066 72.5456 896.066 72.5456C896.066 72.5456 898.926 76.0264 900.919 74.6591C902.906 73.2919 905.518 72.1717 905.518 72.1717L902.159 63.2202ZM929.89 68.4405L921.186 86.0997L929.89 68.4405ZM929.269 79.0113L922.181 86.4737L929.269 79.0113ZM973.785 91.5704C973.785 91.5704 962.968 97.2916 961.349 97.6622C959.733 98.0361 955.504 98.4118 954.636 102.141L973.785 91.5704ZM978.761 103.011C978.761 103.011 970.553 99.1546 967.444 99.9026C964.334 100.647 962.346 102.762 962.346 102.762L978.761 103.011ZM975.03 105.747C975.03 105.747 968.811 102.263 965.703 102.263C962.596 102.263 959.11 102.639 959.11 102.639H953.89L946.179 104.876L942.947 104.752L930.637 104.006C930.637 104.006 933.62 108.607 933.62 114.201C933.62 119.797 932.75 124.649 935.61 125.271C938.471 125.891 940.087 125.891 940.585 125.644C941.082 125.393 953.146 125.146 956.378 125.393C959.611 125.644 969.558 125.891 969.558 125.891L975.03 105.747Z" stroke="#3A3B38"/>
<path fill-rule="evenodd" clip-rule="evenodd" d="M937.598 122.408C937.598 123.232 938.436 123.901 939.465 123.901C940.495 123.901 941.331 123.232 941.331 122.408C941.331 121.586 940.495 120.917 939.465 120.917C938.436 120.917 937.598 121.586 937.598 122.408Z" fill="#FFFFFE"/>
<path fill-rule="evenodd" clip-rule="evenodd" d="M937.598 122.408C937.598 123.232 938.436 123.901 939.465 123.901C940.495 123.901 941.331 123.232 941.331 122.408C941.331 121.586 940.495 120.917 939.465 120.917C938.436 120.917 937.598 121.586 937.598 122.408ZM962.589 102.833C962.589 102.833 968.688 109.6 970.177 111.841L962.589 102.833Z" stroke="#3A3B38"/>
<path fill-rule="evenodd" clip-rule="evenodd" d="M915.675 102.886L910.866 83.8203L875.718 93.1051L887.155 147.983L925.455 140.189L920.479 122.948" fill="#FFFFFE"/>
<path d="M915.675 102.886L910.866 83.8203L875.718 93.1051L887.155 147.983L925.455 140.189L920.479 122.948" stroke="#3A3B38"/>
<path fill-rule="evenodd" clip-rule="evenodd" d="M931.258 104.006C931.258 104.006 927.029 103.261 925.912 102.762C924.792 102.263 921.064 99.2781 921.064 99.2781C921.064 99.2781 917.678 96.8736 915.343 97.9126C913.869 98.5691 915.456 100.789 915.456 100.789L918.079 101.766C918.079 101.766 915.465 103.383 912.979 103.881C910.495 104.378 906.764 104.131 906.764 104.131C906.764 104.131 899.302 106.991 899.302 108.357C899.302 109.725 900.297 112.088 901.913 111.094C903.53 110.099 906.261 108.607 906.261 108.607L912.109 108.233L906.013 111.715L900.792 115.073C900.792 115.073 900.297 119.174 902.283 118.804C904.273 118.43 912.979 114.326 912.979 114.326L908.503 117.31L903.53 121.29C903.53 121.29 902.906 123.278 905.393 123.031C907.881 122.78 917.208 118.929 917.208 118.929C917.208 118.929 910.495 121.911 912.231 123.156C913.974 124.4 914.225 125.019 915.841 124.024C917.455 123.031 918.325 122.283 920.689 122.283C923.051 122.283 930.887 120.917 932.378 119.674" fill="#FFFFFE"/>
<path d="M931.258 104.006C931.258 104.006 927.029 103.261 925.912 102.762C924.792 102.263 921.064 99.2781 921.064 99.2781C921.064 99.2781 917.678 96.8736 915.343 97.9126C913.869 98.5691 915.456 100.789 915.456 100.789L918.079 101.766C918.079 101.766 915.465 103.383 912.979 103.881C910.495 104.378 906.764 104.131 906.764 104.131C906.764 104.131 899.302 106.991 899.302 108.357C899.302 109.725 900.297 112.088 901.913 111.094C903.53 110.099 906.261 108.607 906.261 108.607L912.109 108.233L906.013 111.715L900.792 115.073C900.792 115.073 900.297 119.174 902.283 118.804C904.273 118.43 912.979 114.326 912.979 114.326L908.503 117.31L903.53 121.29C903.53 121.29 902.906 123.278 905.393 123.031C907.881 122.78 917.208 118.929 917.208 118.929C917.208 118.929 910.495 121.911 912.231 123.156C913.974 124.4 914.225 125.019 915.841 124.024C917.455 123.031 918.325 122.283 920.689 122.283C923.051 122.283 930.887 120.917 932.378 119.674" stroke="#3A3B38"/>
<path fill-rule="evenodd" clip-rule="evenodd" d="M878.864 109.685C878.864 109.685 875.882 109.685 875.882 113.663C875.882 117.641 875.383 117.809 874.721 118.97C874.056 120.131 877.789 128.253 880.273 128.75C882.761 129.248 885.373 128.378 885.373 128.378C885.373 128.378 889.228 125.434 889.228 123.777C889.228 122.117 884.874 124.523 884.874 124.523C884.874 124.523 882.845 125.271 883.011 124.276C883.177 123.278 886.619 120.669 886.619 120.669C886.619 120.669 890.223 119.797 890.595 118.181C891.068 116.139 889.352 114.947 889.352 114.947C889.352 114.947 889.228 112.336 886.492 112.585C885.995 110.595 885.622 109.725 883.756 109.477C879.947 108.969 878.864 109.685 878.864 109.685Z" fill="#FFFFFE"/>
<path fill-rule="evenodd" clip-rule="evenodd" d="M878.864 109.685C878.864 109.685 875.882 109.685 875.882 113.663C875.882 117.641 875.383 117.809 874.721 118.97C874.056 120.131 877.789 128.253 880.273 128.75C882.761 129.248 885.373 128.378 885.373 128.378C885.373 128.378 889.228 125.434 889.228 123.777C889.228 122.117 884.874 124.523 884.874 124.523C884.874 124.523 882.845 125.271 883.011 124.276C883.177 123.278 886.619 120.669 886.619 120.669C886.619 120.669 890.223 119.797 890.595 118.181C891.068 116.139 889.352 114.947 889.352 114.947C889.352 114.947 889.228 112.336 886.492 112.585C885.995 110.595 885.622 109.725 883.756 109.477C879.947 108.969 878.864 109.685 878.864 109.685Z" stroke="#3A3B38"/>
<path fill-rule="evenodd" clip-rule="evenodd" d="M879.031 120.792L881.351 117.31C881.351 117.31 887.984 115.154 890.304 116.48" fill="#FFFFFE"/>
<path d="M879.031 120.792L881.351 117.31C881.351 117.31 887.984 115.154 890.304 116.48" stroke="#3A3B38"/>
<path fill-rule="evenodd" clip-rule="evenodd" d="M877.373 115.819C877.373 115.819 878.825 114.12 880.649 112.959C882.471 111.798 888.11 112.585 888.11 112.585" fill="#FFFFFE"/>
<path d="M928.897 240.789C928.897 240.789 927.902 244.767 926.034 244.767C924.171 244.767 915.094 247.877 907.505 246.634C899.921 245.39 897.56 242.53 897.56 242.53M877.373 115.819C877.373 115.819 878.825 114.12 880.649 112.959C882.471 111.798 888.11 112.585 888.11 112.585L877.373 115.819ZM969.434 146.283C969.434 146.283 962.346 146.41 958.615 148.895C954.883 151.381 941.331 156.481 935.486 157.229C929.64 157.972 925.166 157.723 924.42 157.723C923.67 157.723 918.079 157.972 914.348 157.972C910.615 157.972 900.667 156.73 899.672 155.858C898.68 154.989 898.68 154.989 898.68 154.989L969.434 146.283ZM924.42 157.723C924.42 157.723 922.181 156.356 922.181 152.127C922.181 147.902 922.056 140.939 922.056 140.939L924.42 157.723ZM926.782 158.097C926.782 158.097 927.943 159.258 926.614 161.744C925.289 164.231 926.117 177.496 926.117 177.496L928.274 188.106C928.274 188.106 926.283 189.434 924.129 184.791C921.973 180.149 922.139 164.896 921.475 163.901L926.782 158.097ZM931.002 199.003C931.002 199.003 928.44 216.625 932.089 226.072L931.002 199.003ZM934.573 234.032C934.573 234.032 942.035 235.855 943.859 236.354C945.682 236.85 952.149 239.006 957.286 237.016C962.427 235.027 969.558 228.726 969.558 228.726L934.573 234.032ZM969.724 239.171C969.724 239.171 965.08 239.006 963.588 241.828C962.095 244.644 959.606 247.795 953.476 247.627C947.34 247.463 938.551 242.821 938.551 242.821L969.724 239.171ZM963.588 228.602C963.588 228.602 963.09 250.487 959.611 265.907L963.588 228.602ZM966.201 291.149C966.201 291.149 956.997 303.211 953.019 306.07C949.04 308.932 942.947 311.668 942.575 309.055L966.201 291.149ZM967.444 293.762C967.444 293.762 959.857 303.712 961.601 303.832C963.337 303.957 965.827 301.471 965.827 301.471L967.444 293.762ZM945.682 316.269C945.682 316.269 945.311 317.014 948.792 317.014C952.271 317.014 960.231 315.77 960.231 317.14L945.682 316.269ZM944.565 323.232C944.565 323.232 944.687 323.853 946.925 322.486C949.164 321.119 955.257 319.499 961.226 319.999L944.565 323.232ZM922.181 310.673C922.181 310.673 926.66 308.311 923.548 308.311C920.44 308.311 911.114 310.922 908.876 311.294C906.639 311.668 901.912 313.408 904.273 313.408L922.181 310.673ZM899.799 315.523C899.799 315.523 900.048 315.523 903.154 315.523C906.261 315.523 906.764 315.895 908.003 316.64C909.248 317.388 919.194 317.76 919.443 319.004C919.694 320.247 913.602 319.499 914.72 320.621C915.841 321.738 919.32 322.858 919.32 322.858L899.799 315.523ZM945.433 326.339C945.433 326.339 947.176 327.085 948.792 325.594C950.409 324.102 953.641 321.119 957.87 321.616C962.095 322.114 964.708 323.728 964.708 323.728L945.433 326.339ZM924.917 325.097C924.917 325.097 919.443 328.207 914.84 325.967C910.245 323.728 899.921 318.506 895.57 319.004L924.917 325.097ZM897.685 281.7L904.525 299.358C904.525 299.358 906.388 304.952 909.001 303.334L897.685 281.7ZM925.166 274.734C925.166 274.734 923.299 285.43 922.802 285.927L925.166 274.734ZM929.143 236.19C929.143 236.19 927.527 234.572 926.904 235.691C926.283 236.811 918.573 238.674 910.615 238.176C902.657 237.681 898.307 234.322 898.307 233.08L929.143 236.19Z" stroke="#3A3B38"/>
</g>
<defs>
<clipPath id="clip0_562_2420">
<rect width="1163" height="352" fill="white"/>
</clipPath>
</defs>
</svg>
